<svg width="48" height="49" xmlns="http://www.w3.org/2000/svg" xmlns:xlink="http://www.w3.org/1999/xlink" xml:space="preserve" overflow="hidden"><g transform="translate(-120 -280)"><path d="M43.68 8.25 4.32 8.25C3.16312 8.26643 2.23749 9.21555 2.25 10.3725L2.25 35.3775C2.23749 36.5345 3.16312 37.4836 4.32 37.5L20.25 37.5 20.25 40.5 16.5 40.5C16.0858 40.5 15.75 40.8358 15.75 41.25L15.75 42C15.75 42.4142 16.0858 42.75 16.5 42.75L31.5 42.75C31.9142 42.75 32.25 42.4142 32.25 42L32.25 41.25C32.25 40.8358 31.9142 40.5 31.5 40.5L27.75 40.5 27.75 37.5 43.68 37.5C44.8369 37.4836 45.7625 36.5345 45.75 35.3775L45.75 10.3725C45.7625 9.21555 44.8369 8.26643 43.68 8.25ZM42.75 33.3525C42.75 33.7336 42.4411 34.0425 42.06 34.0425L5.94 34.0425C5.55893 34.0425 5.25 33.7336 5.25 33.3525L5.25 11.94C5.25 11.5589 5.55893 11.25 5.94 11.25L42.06 11.25C42.4411 11.25 42.75 11.5589 42.75 11.94Z" fill="#3B3B3C" transform="matrix(1 0 0 1.02083 120 280)"/><path d="M12 15C12.4142 15 12.75 15.3358 12.75 15.75L12.75 30C12.75 30.4142 12.4142 30.75 12 30.75L9 30.75C8.58579 30.75 8.25 30.4142 8.25 30L8.25 15.75C8.25 15.3358 8.58579 15 9 15Z" fill="#3B3B3C" transform="matrix(1 0 0 1.02083 120 280)"/><path d="M18 20.25C18.4142 20.25 18.75 20.5858 18.75 21L18.75 30C18.75 30.4142 18.4142 30.75 18 30.75L15 30.75C14.5858 30.75 14.25 30.4142 14.25 30L14.25 21C14.25 20.5858 14.5858 20.25 15 20.25Z" fill="#3B3B3C" transform="matrix(1 0 0 1.02083 120 280)"/><path d="M24 23.25C24.4142 23.25 24.75 23.5858 24.75 24L24.75 30C24.75 30.4142 24.4142 30.75 24 30.75L21 30.75C20.5858 30.75 20.25 30.4142 20.25 30L20.25 24C20.25 23.5858 20.5858 23.25 21 23.25Z" fill="#3B3B3C" transform="matrix(1 0 0 1.02083 120 280)"/><path d="M33.06 24.69 33.06 21C33.0647 20.5858 32.7327 20.2463 32.3186 20.2415 32.278 20.2411 32.2375 20.2439 32.1975 20.25 29.6389 20.6758 27.7748 22.9064 27.81 25.5 27.956 28.2954 30.1896 30.529 32.985 30.675 35.5786 30.7102 37.8092 28.8461 38.235 26.2875 38.2972 25.878 38.0155 25.4956 37.606 25.4335 37.566 25.4274 37.5255 25.4245 37.485 25.425L33.81 25.425C33.4016 25.4251 33.0682 25.0984 33.06 24.69Z" fill="#3B3B3C" transform="matrix(1 0 0 1.02083 120 280)"/><path d="M35.4075 18.75C37.639 19.1117 39.3884 20.861 39.75 23.0925 39.8038 23.5032 39.5146 23.8798 39.1039 23.9336 39.0695 23.9382 39.0347 23.9403 39 23.94L35.31 23.94C34.8958 23.94 34.56 23.6042 34.56 23.19L34.56 19.5C34.5565 19.0858 34.8894 18.7472 35.3036 18.7436 35.3384 18.7434 35.3731 18.7455 35.4075 18.75Z" fill="#3B3B3C" transform="matrix(1 0 0 1.02083 120 280)"/></g></svg>