<?xml version="1.0" encoding="UTF-8"?><svg id="Layer_1" xmlns="http://www.w3.org/2000/svg" 
viewBox="0 0 300 300" width="105" height="105"><defs><style>.cls-1{fill:#808080;fill-rule:evenodd;stroke-width:0px;}</style></defs>
<path class="cls-1" d="M229,252.8H35.9c-.4,0-.9-.1-1.3-.3-2-.7-3.6-2.2-4.2-4.2-.1-.4-.2-.9-.3-1.3V53.1c0-.4.1-.9.3-1.3.7-2,2.2-3.6,4.2-4.2.4-.1.9-.2,1.3-.3h193.8c.2,0,.4,0,.7.1.4.1.9.2,1.3.4,1.7.8,3,2.2,3.6,4,.1.4.2.9.3,1.3v62.6c-.1.9-.4,1.8-.8,2.6-.9,1.6-2.5,2.7-4.3,3.1-.7.1-1.4.2-2,.1-.7,0-1.3-.3-2-.5s-1.2-.7-1.7-1.1c-1-.9-1.7-2.2-2-3.5-.1-.6-.1-.8-.1-1.3v-54.7H43.2v179.3h186.6c.2,0,.4.1.7.1.9.2,1.7.6,2.5,1.1.5.4,1.1.9,1.5,1.5,1.1,1.5,1.5,3.4,1.1,5.2-.1.7-.4,1.3-.7,1.9-.3.6-.8,1.1-1.3,1.6-.8.8-1.9,1.3-3,1.5-.6.1-.8.1-1.3.1h0Z"/><path class="cls-1" d="M268.1,176c.5.5.9,1.1,1.2,1.7.9,1.7.9,3.8.2,5.6-.3.8-.8,1.4-1.4,2l-33.8,33.8c-.3.3-.3.3-.6.5-.5.4-1.2.8-1.9,1-.8.3-1.6.4-2.5.4-.7,0-1.4-.2-2-.4s-1.3-.6-1.8-1.1c-1.7-1.5-2.7-3.8-2.3-6,.1-1,.5-1.9,1.1-2.7.2-.4.5-.7.8-1l22.6-22.6h-53c-.3,0-.4,0-.8,0-.8-.1-1.5-.3-2.2-.7-.8-.4-1.5-1-2.1-1.7-.5-.6-.9-1.3-1.1-2-.2-.6-.3-1.2-.3-1.9,0-2.2,1.1-4.4,2.9-5.6.8-.5,1.6-.9,2.5-1,.4,0,.8-.1,1.2-.1,17.6,0,35.2-.4,52.9-.1l-22.5-22.5-.3-.3c-.2-.3-.3-.4-.5-.7-.4-.6-.7-1.2-.9-1.9-.2-.7-.3-1.4-.2-2.1.1-2.1,1.3-4.1,3.1-5.2.7-.4,1.5-.8,2.3-.9.4,0,.5,0,.8-.1h.8c.4,0,.8.1,1.2.2.8.2,1.6.6,2.3,1.1l34.4,34.4h0c0,0,0,0,0,0h0Z"/><rect class="cls-1" x="57.4" y="109" width="69.7" height="20.8"/><rect class="cls-1" x="57.4" y="141.9" width="69.7" height="20.8"/><rect class="cls-1" x="138.4" y="141.9" width="69.7" height="20.8"/><rect class="cls-1" x="138.4" y="109" width="69.7" height="20.8"/><rect class="cls-1" x="138.4" y="76.1" width="69.7" height="20.8"/><circle class="cls-1" cx="92.3" cy="197.3" r="26.5"/><rect class="cls-1" x="57.4" y="76.1" width="69.7" height="20.8"/><path class="cls-1" d="M183.7,221.7c0-.7.1-1.3.5-1.9.2-.3.4-.5.7-.7.3-.2.7-.4,1-.4.2,0,.3,0,.5,0h3.6c1.1,0,2.2-.3,3.2-.7,1-.4,1.9-1,2.7-1.7,1.1-1.1,1.9-2.4,2.4-3.9.3-.9.4-1.9.4-2.9s-.3-2-.6-2.9c-.4-1-1-2-1.7-2.8-.8-.8-1.7-1.5-2.7-2-1.1-.5-2.4-.8-3.6-.8h-3.3c-.2,0-.3,0-.5,0-.4,0-.7-.2-1-.4-.3-.2-.5-.4-.7-.6-.1-.2-.3-.4-.4-.7-.4-.9-.2-1.9.4-2.7.2-.3.5-.5.8-.7.3-.1.6-.3.9-.3.1,0,.2,0,.3,0h3.5c.7,0,1.5,0,2.2.2,1.3.2,2.5.6,3.7,1.1,1.7.8,3.2,1.9,4.4,3.2,1.2,1.3,2.2,2.8,2.8,4.5.6,1.5.9,3.1,1,4.7,0,1.5-.1,2.9-.5,4.3-.4,1.3-.9,2.7-1.7,3.8-1.6,2.6-4.1,4.6-6.9,5.8-1.2.5-2.4.8-3.6.9-.5,0-.9,0-1.5.1h-.6v5.3c0,.4-.1.9-.4,1.3-.1.2-.3.4-.5.6-.6.5-1.3.8-2.1.8-.3,0-.5,0-.8-.2-.3-.1-.6-.3-.8-.5-.3-.2-.5-.5-.7-.8-.2-.4-.3-.7-.3-1.1,0-2.5,0-5,0-7.5v-.3h0Z"/><path class="cls-1" d="M171.4,195.4c.7,0,1.5,0,2.2.2,1.3.2,2.5.6,3.7,1.1,1.7.8,3.2,1.9,4.4,3.2,1.2,1.3,2.2,2.8,2.8,4.5.6,1.5.9,3.1,1,4.7,0,1.6-.1,3.1-.6,4.6-.5,1.7-1.3,3.4-2.5,4.8-1.6,2-3.6,3.6-6,4.5-1.2.5-2.4.8-3.6.9-.5,0-1,0-1.5.1h-3.4c-.2,0-.3,0-.5,0-.4,0-.7-.2-1-.4-.3-.2-.5-.4-.7-.6-.2-.2-.3-.4-.4-.7-.4-.9-.2-1.9.4-2.7.2-.3.5-.5.8-.7.3-.1.6-.3.9-.3.1,0,.2,0,.3,0h3.6c1.1,0,2.2-.3,3.2-.7,1-.4,1.9-1,2.7-1.7,1.1-1.1,1.9-2.4,2.4-3.9.3-.9.4-1.9.4-2.9s-.3-2-.6-2.9c-.4-1-1-2-1.7-2.8-.8-.8-1.7-1.5-2.7-2-1.1-.5-2.4-.8-3.6-.8h-3.3c-.2,0-.3,0-.5,0-.4,0-.7-.2-1-.4-.3-.2-.5-.4-.7-.6-.2-.2-.3-.4-.4-.7-.4-.9-.2-1.9.4-2.7.2-.3.5-.5.8-.7.3-.1.6-.3.9-.3.1,0,.2,0,.3,0h3.5,0Z"/><path class="cls-1" d="M166.8,207c-.3-1.3-.7-2.5-1.2-3.6-1.5-2.9-3.9-5.2-6.8-6.6-1.3-.6-2.7-1-4-1.2-.6,0-1.2-.1-1.8-.1h-.4c-.6,0-1.2,0-1.8.1-1.4.2-2.8.6-4,1.2-3,1.3-5.4,3.7-6.8,6.6-.6,1.2-1,2.4-1.2,3.6-.3,1.5-.4,3.1-.1,4.7.2,1.5.7,2.9,1.3,4.2.8,1.6,1.8,3,3,4.2,1.3,1.2,2.8,2.2,4.4,2.9,1.7.7,3.6,1.1,5.4,1.1s3.7-.4,5.4-1.1c1.6-.7,3.2-1.7,4.5-2.9,1.2-1.2,2.3-2.6,3-4.2.7-1.3,1.1-2.8,1.3-4.2.2-1.6.2-3.2-.1-4.7h0ZM161.5,211c-.1.9-.4,1.8-.8,2.6-.5.9-1.1,1.8-1.9,2.6-.8.8-1.7,1.4-2.8,1.8-1.1.4-2.2.7-3.3.7s-2.3-.2-3.4-.7c-1-.4-2-1-2.7-1.8-.8-.7-1.4-1.6-1.9-2.6-.4-.8-.7-1.7-.8-2.6-.1-1.1-.1-2.2.1-3.2.2-.9.6-1.8,1.1-2.6.9-1.5,2.3-2.7,3.8-3.4,1.1-.5,2.3-.8,3.6-.8h.2c1.2,0,2.5.3,3.6.8,1.6.7,2.9,1.9,3.8,3.4.5.9.9,1.8,1.1,2.8.2,1,.3,2,.1,3h0Z"/></svg>