<?xml version="1.0" encoding="utf-8"?>
<!-- Generator: Adobe Illustrator 27.8.0, SVG Export Plug-In . SVG Version: 6.00 Build 0)  -->
<svg version="1.1" id="Layer_1" xmlns="http://www.w3.org/2000/svg" xmlns:xlink="http://www.w3.org/1999/xlink" x="0px" y="0px"
	 viewBox="0 0 400 400" width="105" height="105" style="enable-background:new 0 0 400 400; fill:#ED1A33" xml:space="preserve">
<path d="M379.6,113.9l-90.9,73.5c0,1.1,0.1,2.1,0.1,3.2c0,9.9-2.1,19-6.4,27.2c-4.3,8.3-9.9,14.8-17,19.6
	c-7.1,4.8-14.7,7.2-22.7,7.2c-7,0-12.8-1.6-17.3-4.7c-4.5-3.1-7.3-7.9-8.3-14.3c-3.3,6.1-7.3,10.8-12.2,14.1
	c-4.9,3.3-10.9,4.9-18,4.9c-6,0-11.4-1.5-16.1-4.4c-4.7-2.9-8.4-7-11-12.3c-2.6-5.3-3.9-11.4-3.9-18.3c0-1.3,0.1-3.2,0.3-5.8
	c0.7-8.5,3.2-16.1,7.6-22.8c4.4-6.7,10.1-11.9,17.2-15.6c7.1-3.8,14.8-5.6,23.3-5.6c10.8,0,19.4,2.8,26,8.4
	c6.6,5.6,9.9,13.4,9.9,23.3c0,1.9-0.1,3.9-0.4,5.9l-1.9,13.8c-0.2,1.8-0.3,3-0.3,3.6c0,2.8,0.6,4.7,1.7,5.9c1.1,1.1,2.9,1.7,5.3,1.7
	c3.2,0,6.2-1.2,9-3.5c2.8-2.3,5.1-5.8,6.9-10.5c1.8-4.6,2.7-10.3,2.7-16.9c0-9.9-2.2-18.5-6.6-25.9c-4.4-7.4-10.9-13.1-19.5-17.2
	c-8.6-4.1-19-6.1-31.3-6.1c-14.7,0-27.3,3-37.8,8.9c-10.5,5.9-18.4,14-23.8,24.1c-5.4,10.1-8.1,21.5-8.1,34.2
	c0,17,5.1,30.3,15.3,39.8c10.2,9.5,25.6,14.3,46,14.2l-4.7,20.6c-17.5-0.2-32.3-3.3-44.4-9.3c-12.1-6-21.3-14.6-27.5-25.6
	c-6.2-11.1-9.3-24.3-9.3-39.6c0-7.2,0.7-13.9,2.2-20.3l-93-75.2c-6.7-5.4-11.6-12.2-14.7-19.7V309c0,19.9,16.2,36.1,36.1,36.1h316.4
	c19.9,0,36.1-16.2,36.1-36.1V94.2C391.2,101.7,386.3,108.5,379.6,113.9z M31,100.8l88.2,71.3c1.6-3.3,3.3-6.4,5.3-9.4
	c8.8-13.3,20.8-23.5,35.7-30.5c15-7.1,31.4-10.6,49.3-10.6c16.1,0,30.1,2.7,42,8.1c11.9,5.4,21,13.2,27.5,23.6c2.9,4.6,5,9.6,6.6,15
	l83.3-67.4c13.1-10.6,13.8-25.5,10.1-35.9c-0.5-1.5-1.2-3.1-2.1-4.6c-5.5-3.4-11.9-5.4-18.8-5.4H41.8c-6.9,0-13.4,2-18.8,5.4
	c-0.8,1.5-1.5,3.1-2.1,4.6C17.2,75.3,17.9,90.2,31,100.8z M190.3,184.4c-3,1.7-5.4,4.4-7.3,8c-1.9,3.6-2.8,8.1-2.8,13.4
	c0,5.4,1.5,9.5,4.4,12.3c3,2.8,6.6,4.2,11,4.2c3.4,0,6.5-0.9,9.6-2.6c3-1.7,5.5-4.4,7.4-8.1c1.9-3.7,2.9-8.2,2.9-13.6
	c0-5.4-1.5-9.5-4.4-12.2c-3-2.7-6.7-4-11.3-4C196.4,181.8,193.3,182.7,190.3,184.4z"/>
</svg>
