<?xml version="1.0" encoding="utf-8"?>
<!-- Generator: Adobe Illustrator 27.8.0, SVG Export Plug-In . SVG Version: 6.00 Build 0)  -->
<svg version="1.1" id="Layer_1" xmlns="http://www.w3.org/2000/svg" xmlns:xlink="http://www.w3.org/1999/xlink" x="0px" y="0px"
	 width="105" height="105" viewBox="0 0 1000 1000" style="enable-background:new 0 0 1000 1000;" xml:space="preserve">
<style type="text/css">
	.st0{fill:#F0A202;}
	.st1{fill:#FFFFFF;}
</style>
<path class="st0" d="M860,0H140C62.7,0,0,62.7,0,140v720c0,77.3,62.7,140,140,140h720c77.3,0,140-62.7,140-140V140
	C1000,62.7,937.3,0,860,0z"/>
<path class="st1" d="M669.9,595.2l-76.6,44.2l0,0l-3.7,2.2l-0.5,0.3l-53.5,30.9c-11,6.4-24.6,6.4-35.6,0l-122.8-70.9
	c-11-6.4-17.8-18.1-17.8-30.9V429.6c0-12.7,6.8-24.5,17.8-30.9L500,327.8c11-6.4,24.6-6.4,35.6,0l53.6,30.9l0.4,0.3l3.7,2.2l0,0
	l76.6,44.2l61.8-16.6l35.7-9.6l-26.1-97.4l0,0l0,0l-77.9-45l-29.3-17.1l-70.3-40.9c-28.4-16.5-63.5-16.5-91.9,0L262.6,299.6
	c-28.4,16.4-46,46.7-46,79.6v0.5v241.1v0.5c0,32.9,17.5,63.2,46,79.6l209.2,120.8c28.4,16.5,63.5,16.5,91.9,0l70.3-40.9l29.4-17.1
	l77.8-44.9l0,0l0,0l26.1-97.4l-35.7-9.6L669.9,595.2z"/>
</svg>
