<?xml version="1.0" encoding="utf-8"?>
<!-- Generator: Adobe Illustrator 27.8.0, SVG Export Plug-In . SVG Version: 6.00 Build 0)  -->
<svg version="1.1" id="Layer_1" xmlns="http://www.w3.org/2000/svg" xmlns:xlink="http://www.w3.org/1999/xlink" x="0px" y="0px"
	 viewBox="0 0 400 400" width="105" height="105" style="enable-background:new 0 0 400 400; fill:#ED1A33" xml:space="preserve">
<g>
	<path d="M323.6,67.6h-50.5c1.1,5.6,0.3,11.4-2.2,16.8c-4.6,9.6-14,15.6-24.7,15.6h-92.4c-10.6,0-20.1-6-24.7-15.6
		c-2.6-5.4-3.3-11.3-2.2-16.8H76.4c-7.7,0-14,6.3-14,14v303.8c0,7.7,6.3,14,14,14h247.1c7.7,0,14-6.3,14-14V81.6
		C337.6,73.9,331.3,67.6,323.6,67.6z M178.8,335.9l-78.6-107.4l72.2,36.6l140.4-154.6L178.8,335.9z"/>
	<path d="M140.6,69.3c-0.1,0.2-0.1,0.4-0.1,0.7c-0.1,0.4-0.1,0.7-0.2,1.1c0,0.2,0,0.5-0.1,0.7c0,0.3,0,0.7,0,1c0,0.3,0,0.5,0,0.7
		c0,0.3,0.1,0.7,0.1,1c0,0.2,0.1,0.5,0.1,0.7c0.1,0.3,0.2,0.7,0.3,1c0.1,0.2,0.1,0.5,0.2,0.7c0.1,0.4,0.3,0.7,0.4,1
		c0.1,0.2,0.1,0.4,0.2,0.6c0.3,0.5,0.5,1,0.8,1.5c0,0,0.1,0.1,0.1,0.1c0.3,0.4,0.6,0.9,1,1.3c0.1,0.2,0.3,0.3,0.4,0.4
		c0.3,0.3,0.5,0.6,0.8,0.8c0.2,0.2,0.3,0.3,0.5,0.4c0.3,0.2,0.6,0.4,0.9,0.7c0.2,0.1,0.4,0.3,0.6,0.4c0.3,0.2,0.6,0.4,0.9,0.5
		c0.2,0.1,0.4,0.2,0.7,0.3c0.3,0.1,0.7,0.3,1,0.4c0.2,0.1,0.4,0.2,0.7,0.2c0.4,0.1,0.8,0.2,1.2,0.3c0.2,0,0.4,0.1,0.6,0.1
		c0.6,0.1,1.3,0.1,1.9,0.1c0,0,0,0,0,0h92.4c0,0,0,0,0,0c0.7,0,1.3-0.1,1.9-0.1c0.2,0,0.4-0.1,0.6-0.1c0.4-0.1,0.8-0.2,1.2-0.3
		c0.2-0.1,0.5-0.1,0.7-0.2c0.4-0.1,0.7-0.3,1-0.4c0.2-0.1,0.4-0.2,0.7-0.3c0.3-0.2,0.6-0.3,0.9-0.5c0.2-0.1,0.4-0.3,0.6-0.4
		c0.3-0.2,0.6-0.4,0.9-0.7c0.2-0.1,0.4-0.3,0.5-0.4c0.3-0.3,0.5-0.5,0.8-0.8c0.1-0.1,0.3-0.3,0.4-0.4c0.3-0.4,0.7-0.8,1-1.3
		c0,0,0.1-0.1,0.1-0.1c0.3-0.5,0.6-1,0.8-1.5c0.1-0.2,0.2-0.4,0.2-0.6c0.1-0.3,0.3-0.7,0.4-1c0.1-0.2,0.1-0.4,0.2-0.7
		c0.1-0.3,0.2-0.7,0.3-1c0-0.2,0.1-0.5,0.1-0.7c0-0.3,0.1-0.7,0.1-1c0-0.3,0-0.5,0-0.8c0-0.3,0-0.7,0-1c0-0.2,0-0.5-0.1-0.7
		c0-0.4-0.1-0.7-0.2-1.1c0-0.2-0.1-0.4-0.1-0.7c-0.1-0.5-0.3-1-0.5-1.4c-0.5-1.3-1.2-2.6-2.2-3.8L210.6,7c-5.4-6.7-15.7-6.7-21.1,0
		l-46.2,57.1c-0.9,1.1-1.6,2.3-2.1,3.5h0c0,0,0,0,0,0c0,0.1-0.1,0.2-0.1,0.3C140.9,68.4,140.8,68.8,140.6,69.3z M200,35.7
		c6.8,0,12.3,5.5,12.3,12.3c0,6.8-5.5,12.3-12.3,12.3c-6.8,0-12.3-5.5-12.3-12.3C187.7,41.2,193.2,35.7,200,35.7z"/>
</g>
</svg>
