<?xml version="1.0" encoding="utf-8"?>
<!-- Generator: Adobe Illustrator 27.8.0, SVG Export Plug-In . SVG Version: 6.00 Build 0)  -->
<svg version="1.1" id="Layer_1" xmlns="http://www.w3.org/2000/svg" xmlns:xlink="http://www.w3.org/1999/xlink" x="0px" y="0px"
	 viewBox="0 0 250 250" style="enable-background:new 0 0 250 250; fill:#22A285" xml:space="preserve">
<g>
	<g>
		<path d="M222.3,48.7H27.7c-8.1,0-14.7,6.6-14.7,14.7v123.1c0,8.1,6.6,14.7,14.7,14.7h194.5c8.1,0,14.7-6.6,14.7-14.7V63.4
			C237,55.3,230.4,48.7,222.3,48.7z M117.9,85c0.8-0.8,1.8-1.3,3-1.3h74.6c2.4,0,4.3,1.9,4.3,4.3c0,1.2-0.5,2.2-1.3,3
			c-0.8,0.8-1.8,1.3-3,1.3h-74.6c-2.4,0-4.3-1.9-4.3-4.3C116.6,86.8,117.1,85.8,117.9,85z M49.3,92c0.4-1.1,0.9-2.2,1.5-3.2
			c1.9-3.2,4.6-5.7,8-7.3c1.2-0.6,2.4-1,3.6-1.3c1.5-0.4,3.1-0.6,4.7-0.6c1.9,0,3.8,0.3,5.6,0.8c1.3,0.4,2.5,0.9,3.6,1.6
			c3,1.7,5.5,4.2,7.2,7.2c0.6,1,1.1,2.1,1.5,3.2c0.7,1.9,1,4,1,6.1c0,0.4,0,0.7,0,1.1c-0.1,1.3-0.3,2.6-0.6,3.9
			c-0.4,1.4-0.9,2.7-1.5,3.9c-0.6,1-1.2,2-2,3c-1,1.3-2.3,2.5-3.7,3.5c-2.6,1.8-5.6,3-8.8,3.4c-1.1,0.1-2.1,0.2-3.5,0.1
			c-3.5-0.2-6.9-1.4-9.7-3.5c-1.4-1-2.6-2.2-3.7-3.5c-0.8-0.9-1.4-1.9-2-3c-0.6-1.1-1.1-2.3-1.5-3.6c-0.4-1.2-0.6-2.5-0.7-3.8
			c-0.1-0.4-0.1-0.9-0.1-1.5C48.1,96.2,48.5,94.1,49.3,92z M94.1,151.9c0,1-0.1,2-0.3,3c-0.2,1.2-0.6,2.3-1,3.3
			c-3.4,7.4-13.4,12.2-25.5,12.2h-0.1c-12.2,0-22.2-4.8-25.6-12.1c-0.5-1.1-0.8-2.2-1.1-3.4c-0.2-1-0.3-2-0.3-3.1V137
			c0-2.5,0.3-5,1-7.5c1-3.7,2.8-7,5.3-10c5.1,5,11.8,7.9,18.9,8.3c1.5,0.1,3.1,0.1,4.7-0.1c6.6-0.7,12.9-3.6,17.6-8.2
			c2.5,2.9,4.3,6.4,5.4,10c0.7,2.4,1,4.9,1,7.4V151.9z M151.5,163.7c-0.8,0.8-1.8,1.3-3,1.3h-27.5c-2.4,0-4.3-1.9-4.3-4.3
			c0-1.2,0.5-2.3,1.3-3c0.8-0.8,1.8-1.3,3-1.3h27.5c2.4,0,4.3,1.9,4.3,4.3C152.7,161.8,152.3,162.9,151.5,163.7z M198.6,139.5
			c-0.8,0.8-1.8,1.3-3,1.3h-74.6c-2.4,0-4.3-1.9-4.3-4.3c0-1.2,0.5-2.3,1.3-3c0.8-0.8,1.8-1.3,3-1.3h74.6c2.4,0,4.3,1.9,4.3,4.3
			C199.8,137.6,199.4,138.7,198.6,139.5z M215.5,115.3c-0.8,0.8-1.8,1.3-3,1.3h-91.6c-2.4,0-4.3-1.9-4.3-4.3c0-1.2,0.5-2.3,1.3-3
			c0.8-0.8,1.8-1.3,3-1.3h91.6c2.4,0,4.3,1.9,4.3,4.3C216.7,113.4,216.3,114.5,215.5,115.3z"/>
	</g>
</g>
</svg>
