<?xml version="1.0" encoding="UTF-8"?><svg id="Layer_1" xmlns="http://www.w3.org/2000/svg" viewBox="0 0 300 300"><defs><style>.cls-1{fill:#808080;fill-rule:evenodd;stroke-width:0px;}</style></defs><path class="cls-1" d="m246,252.3H54c-.4,0-.8,0-1.2-.4-2-.8-3.7-2-4.1-4.1,0-.4-.4-.8-.4-1.2v-62.5c0-.4,0-.8.4-1.2.8-2,2-3.7,4.1-4.1.4,0,.8-.4,1.2-.4h2.4c.4,0,.8.4,1.2.4,1.6.8,2.9,2,3.7,4.1,0,.4.4.8.4,1.2v55.1h186.3c.8,0,1.6.4,2.4,1.2.4.4,1.2.8,1.6,1.6,1.2,1.6,1.6,3.3,1.2,5.3,0,.8-.4,1.2-.8,2-.4.4-.8,1.2-1.2,1.6-.8.8-2,1.2-2.9,1.6q-2-.4-2.4-.4h0Zm17.9-78.4l-22.4-22.5-.4-.4q-.4-.4-.4-.8c-.4-.4-.8-1.2-.8-2-.4-2,0-4.1,1.2-5.7.4-.4.8-.8,1.6-1.2.8-.4,1.6-.8,2.4-.8h2.4c.8,0,1.6.4,2.4.8.4.4.8.4.8.8l33.4,33.5c.4.4.8,1.2,1.2,1.6.8,1.6.8,3.7,0,5.7-.4.8-.8,1.2-1.2,2l-33.4,33.5-.4.4c-.4.4-1.2.8-1.6.8-.8.4-1.6.4-2.4.4-2.4,0-4.5-1.2-5.3-3.3-.4-.4-.4-1.2-.8-2v-2c0-.8.4-2,1.2-2.9.4-.4.4-.8.8-.8l22.4-22.5h-53.8c-.8,0-1.6-.4-2.4-1.2-.4-.4-.8-.8-1.6-1.2-1.6-2-1.6-4.5-.4-6.9.4-.4.8-1.2,1.2-1.6.4-.4,1.2-1.2,2-1.2.4-.4,1.2-.4,2-.4h.8c16.7,0,34.2-.4,51.4,0h0ZM36.1,126.1l22.4,22.5.4.4q.4.4.4.8c.4.4.8,1.2.8,2,.4.8.4,1.6,0,2.4,0,.8-.4,1.2-.4,2-.8,2-2.9,3.3-4.9,3.7h-2c-.8,0-2-.4-2.9-1.2-.4-.4-.8-.4-.8-.8L15.7,124.5c-.4-.4-1.2-1.2-1.2-2-.8-1.6-.8-3.7,0-5.7.4-.8.8-1.2,1.2-1.6l33.4-33.5q.4-.4.8-.4c.8-.4,1.2-.8,2-1.2.4,0,.8,0,1.2-.4h1.6c.8,0,1.2.4,2,.8.8.4,1.2.8,1.6,1.2,1.6,1.6,2,4.1,1.6,6.1-.4.8-.4,1.6-1.2,2q-.4.4-.4.8l-22.4,22.5c17.5,0,35.5-.4,53,0h.8c.8,0,1.6.4,2,.8.8.4,1.6,1.2,2,1.6,1.2,1.6,1.6,4.1.8,6.1-.4.4-.4,1.2-.8,1.6-.4.4-.8.8-1.2,1.2-.8.4-1.6.8-2.4.8h-54.2v.8h0ZM246.4,47.7h.8c.4,0,.8.4,1.2.4,1.6.8,2.9,2,3.7,4.1,0,.4.4.8.4,1.2v62.9c-.4,1.2-.8,2.4-2,3.7-.4.4-1.2.8-1.6,1.2-.4.4-1.2.4-2,.4-1.6,0-3.7-.4-4.9-1.6-.4-.4-.8-.8-1.2-1.6-.4-.8-.8-1.6-.8-2.4v-55.1H54c-.4,0-.8,0-1.2-.4-1.2-.4-2-.8-2.9-2-.4-.4-.8-1.2-1.2-1.6-.4-.8-.4-1.2-.4-2v-2c.4-1.6,1.6-3.3,3.3-4.5.8-.4,1.6-.8,2.4-.8h192c0,.4.4.4.4.4h0Z"/><path class="cls-1" d="m180.1,163.5c3.7,0,3.7,4.5,3.7,7s.4,7-3.7,7h-8.5c-.4,2.9-1.2,5.3-2,7.8,10.2,5.7,11.8,5.3,5.3,15.1-2.8,4.1-11-2.5-12.2-3.3-1.6,2-3.7,4.1-5.7,5.7,5.7,10.2,7.7,10.6-2.8,15.5-4.5,2.5-8.1-7.8-8.9-9-2.4.8-5.3,1.6-8.1,2v8.6c0,3.7-4.1,3.7-6.5,3.7s-6.9,0-6.9-3.7v-8.6c-2.8-.4-5.3-1.2-7.7-2-5.7,10.2-5.3,11.9-15.1,5.3-4.1-2.9,2.4-11,3.3-12.3-2-1.6-4.1-3.7-5.7-5.7-10.2,5.7-10.6,7.8-15.9-3.3-2.4-4.5,7.7-8.2,8.9-9-.8-2.5-1.6-5.3-2-7.8h-9.4c-3.7,0-3.7-4.5-3.7-7s0-7,3.7-7h8.5c.4-2.9,1.2-5.3,2-8.2-10.2-5.7-11.8-5.3-5.3-15.1,2.8-4.1,11,2.5,12.2,3.3,1.6-2,3.7-4.1,6.1-6.1-5.7-10.2-7.7-10.6,2.8-15.5,4.5-2.5,8.1,7.8,8.9,9,2.4-.8,5.3-1.6,8.1-2v-7.8c0-3.7,4.5-3.7,6.9-3.7s6.5,0,6.5,3.7v8.6c2.8.4,5.7,1.2,8.1,2,5.7-10.2,5.3-11.9,15-5.3,4.1,2.9-2.4,11-3.3,12.3,2,1.6,4.1,3.7,5.7,5.7,10.2-5.7,10.6-7.8,15.9,3.3,2,4.5-7.7,8.2-8.9,9,.8,2.5,1.6,5.3,2,7.8h8.5Zm-71.6,6.5c0,11.9,9.8,21.7,21.6,21.7s21.6-9.8,21.6-21.7-9.8-21.7-21.6-21.7-21.6,9.8-21.6,21.7h0Zm87.9-94.5c.4,0,.8,0,1.2.4q.4.4.4.8l1.2,7.8c1.2.4,2.8.8,3.7,1.6l6.1-4.5q.4-.4,1.2-.4c.4,0,.8,0,1.2.4,3.7,3.3,6.1,5.7,6.9,7.4,0,.4.4.4.4.8s0,.8-.4.8c-.4.4-1.2,1.6-2,2.9-.8,1.2-1.6,2.5-2.4,2.9.8,1.2,1.2,2.9,1.6,4.1l7.7,1.2c.4,0,.8.4.8.4.4.4.4.8.4.8v9.4c0,.4,0,.8-.4.8q-.4.4-.8.4l-7.7,1.2c-.4,1.6-1.2,2.9-1.6,4.1.8,1.2,2.4,3.3,4.5,5.7.4.4.4.8.4,1.2s0,.8-.4.8c-.8,1.2-2,2.5-4.1,4.5-2,2-3.3,2.9-4.1,2.9s-.8,0-1.2-.4l-5.7-4.5c-1.2.8-2.4,1.2-3.7,1.6-.4,4.1-.8,6.5-1.2,8.2,0,.8-.8,1.2-1.6,1.2h-9.4c-.4,0-.8,0-1.2-.4q-.4-.4-.4-.8l-1.2-7.8c-1.2-.4-2.8-.8-3.7-1.6l-6.1,4.5c-.4.4-.8.4-1.2.4s-.8,0-1.2-.4c-3.7-3.3-6.1-5.7-6.9-7.4,0-.4-.4-.8-.4-.8,0-.4,0-.8.4-.8.4-.4,1.2-1.6,2-2.9,1.2-1.2,1.6-2.5,2.4-2.9-.8-1.2-1.2-2.9-1.6-4.1l-7.7-1.2c-.4,0-.8-.4-.8-.4-.4-.4-.4-.8-.4-.8v-9c0-.4,0-.8.4-.8q.4-.4.8-.4l7.7-1.2c.4-1.2.8-2.5,1.6-4.1-1.2-1.6-2.8-3.7-4.5-5.7-.4-.4-.4-.8-.4-1.2s0-.8.4-.8c.8-1.2,2-2.5,4.1-4.5,2-2,3.3-3.3,4.1-3.3s.8,0,1.2.4l5.7,4.5c1.2-.8,2.4-1.2,4.1-1.6.4-4.1.8-6.5,1.2-7.8,0-.8.8-1.2,1.6-1.2h8.9v-.4h0Zm2.8,40.9c-2,2-4.9,3.3-7.7,3.3s-5.7-1.2-7.7-3.3c-2-2-3.3-4.9-3.3-7.8s1.2-5.7,3.3-7.8c2-2,4.9-3.3,7.7-3.3s5.7,1.2,7.7,3.3c2,2,3.3,4.9,3.3,7.8s-.8,5.7-3.3,7.8h0Z"/></svg>