<?xml version="1.0" encoding="UTF-8"?><svg id="Layer_1" xmlns="http://www.w3.org/2000/svg" viewBox="0 0 300 300"><defs>
<style>.cls-1{fill:#808080;}.cls-1,.cls-2{fill-rule:evenodd;stroke-width:0px;}.cls-2{fill:#808080;}</style></defs><path class="cls-1" d="m229.1,253H36.4c-.2,0-.5,0-.7,0-.5,0-.9-.1-1.3-.3-2-.7-3.6-2.2-4.2-4.2-.1-.4-.2-.9-.3-1.3,0-.2,0-.5,0-.7V53.5c0-.2,0-.5,0-.7,0-.5.1-.9.3-1.3.6-2,2.2-3.6,4.2-4.2.4-.1.9-.2,1.3-.3.2,0,.5,0,.7,0h192.7c.2,0,.5,0,.7,0,.2,0,.5,0,.7.1.5.1.9.2,1.3.4,1.7.7,3,2.2,3.6,4,.1.4.2.9.3,1.3,0,.2,0,.5,0,.7v61.4c0,.2,0,.5,0,.7-.1.9-.4,1.8-.8,2.6-.9,1.6-2.5,2.8-4.3,3.2-.7.1-1.4.2-2.1.1-.7,0-1.4-.2-2-.5-.6-.3-1.2-.7-1.7-1.1-1-.9-1.8-2.2-2-3.5-.1-.6-.1-.8-.1-1.4v-54.8H43v179.8h186.8c.2,0,.5.1.7.1.9.2,1.8.6,2.5,1.1.6.4,1.1.9,1.4,1.4,1.1,1.5,1.5,3.4,1.1,5.2-.1.7-.4,1.3-.7,1.9-.4.6-.8,1.2-1.3,1.6-.8.8-1.9,1.3-3,1.5-.6.1-.8.1-1.4.1h0Zm18.5-79.1l-22.5-22.5-.3-.3c-.2-.3-.3-.4-.5-.7-.4-.6-.7-1.2-.9-1.9-.2-.7-.3-1.4-.2-2.1.1-2.1,1.3-4.1,3.1-5.3.7-.5,1.5-.8,2.3-.9.4,0,.5,0,.8-.1h.8c.4,0,.8.1,1.2.2.8.2,1.6.6,2.2,1.1.3.2.4.3.6.6l33.8,33.9c.5.5.9,1.1,1.2,1.7.9,1.7.9,3.8.2,5.6-.3.8-.8,1.4-1.4,2l-33.8,33.9c-.3.2-.4.3-.6.6-.6.4-1.2.8-1.9,1-.8.3-1.6.4-2.5.4-.7,0-1.4-.2-2.1-.4-.7-.2-1.3-.6-1.8-1.1-1.8-1.4-2.7-3.8-2.3-6,.1-1,.5-1.9,1.1-2.7.2-.4.5-.7.8-1l22.6-22.7h-53c-.4,0-.4,0-.8,0-.8-.1-1.5-.3-2.2-.7-.8-.4-1.5-1-2.1-1.7-.5-.6-.9-1.3-1.1-2-.2-.6-.3-1.3-.4-1.9,0-2.2,1.1-4.4,2.9-5.6.8-.5,1.6-.8,2.5-1,.4,0,.8-.1,1.2-.1,17.6,0,35.3-.5,52.9-.1h0Z"/><polygon class="cls-2" points="138.1 169 137.7 169.7 138.5 169.7 138.1 169 138.1 169"/><path class="cls-1" d="m115.3,155.9h-4.1l8-6.7,10.5-18.3h-3.3v-18.4h23.4v18.4h-3.3l16.4,28.4v-21.9h0v-56.4c0-.6,0-1.1-.2-1.7-.5-1.9-1.8-3.4-3.6-4.2-.5-.2-1.1-.4-1.6-.5-.2,0-.4,0-.6,0s-.6,0-.6,0H60.2c-.2,0-.4,0-.6,0-.6,0-1.1.2-1.7.4-1.8.7-3.3,2.1-3.9,3.9-.2.5-.3,1.1-.4,1.7,0,.2,0,.4,0,.6v56.5h0v24.9c0,.2,0,.4,0,.6,0,.6.2,1.1.4,1.7.7,1.8,2.1,3.3,3.9,3.9.5.2,1.1.3,1.7.4.2,0,.4,0,.6,0h47.5l7.6-13.1h0Zm11.1-68.3h23.4v18.4h-23.4v-18.4h0Zm-6.5,43.3h-8.2l8.2-6.9v6.9h0Zm0-25h-8l8-6.7v6.7h0Zm-23.3-18.4h9.1l-9.1,7.6v-7.6h0Zm19.3,0h4v3.1l-18.3,15.3h-5v-2.2h0l19.3-16.1h0Zm-19.3,25h8.9l-8.9,7.5v-7.5h0Zm0,16l19.1-16h4.2v3l-18.4,15.4h-4.9v-2.4h0Zm-6.6,27.3h-23.2v-18.3h0s23.2,0,23.2,0v18.4h0Zm0-24.9h-23.2v-18.4h23.2v18.4h0Zm0-25h-23.2v-18.4h23.2v18.4h0Zm6.5,31.5h8.4l-8.4,7v-7h0Zm0,15.5l18.6-15.5h4.7v2.6l-19,15.8h-4.4v-2.8h0Z"/><path class="cls-1" d="m195.8,226.3h-115.3l57.7-99.7,57.7,99.7h0Zm-92.3-13.3h69.2l-34.6-59.8-34.6,59.8h0Z"/></svg>