<?xml version="1.0" encoding="utf-8"?>
<!-- Generator: Adobe Illustrator 27.8.0, SVG Export Plug-In . SVG Version: 6.00 Build 0)  -->
<svg version="1.1" id="Layer_1" xmlns="http://www.w3.org/2000/svg" xmlns:xlink="http://www.w3.org/1999/xlink" x="0px" y="0px"
	 width="140px" height="141px" viewBox="0 0 140 141" style="enable-background:new 0 0 140 141;" xml:space="preserve">
	<g>
		<path d="M76.7,10.8H21.6c-3.3,0-6,2.7-6,6v70.5c0,3.3,2.7,6,6,6h26.3v-39c0-8.8,7.2-16,16-16h18.8V16.8
			C82.7,13.5,80,10.8,76.7,10.8z M92.7,38.3H119c8.8,0,16,7.2,16,16v70.5c0,8.8-7.2,16-16,16H63.9c-8.8,0-16-7.2-16-16v-21.5H21.6
			c-8.8,0-16-7.2-16-16V16.8c0-8.8,7.2-16,16-16h55.1c8.8,0,16,7.2,16,16V38.3z M63.9,48.3H119c3.3,0,6,2.7,6,6v70.5
			c0,3.3-2.7,6-6,6H63.9c-3.3,0-6-2.7-6-6V54.3C57.9,50.9,60.6,48.3,63.9,48.3z"/>
	</g>
</svg>
