<?xml version="1.0" encoding="utf-8"?>
<!-- Generator: Adobe Illustrator 27.8.0, SVG Export Plug-In . SVG Version: 6.00 Build 0)  -->
<svg version="1.1" id="Layer_1" xmlns="http://www.w3.org/2000/svg" xmlns:xlink="http://www.w3.org/1999/xlink" x="0px" y="0px"
	 width="140px" height="141px" viewBox="0 0 140 141" style="enable-background:new 0 0 140 141;" xml:space="preserve">
<g>
	<path d="M119,38.3H92.7V16.8c0-8.8-7.2-16-16-16H21.6c-8.8,0-16,7.2-16,16v70.5c0,8.8,7.2,16,16,16h26.3v21.5c0,8.8,7.2,16,16,16
		H119c8.8,0,16-7.2,16-16V54.3C135,45.5,127.8,38.3,119,38.3z M47.9,54.3v39H21.6c-3.3,0-6-2.7-6-6V16.8c0-3.3,2.7-6,6-6h55.1
		c3.3,0,6,2.7,6,6v21.5H63.9C55.1,38.3,47.9,45.5,47.9,54.3z M125,124.8c0,3.3-2.7,6-6,6H63.9c-3.3,0-6-2.7-6-6V54.3
		c0-3.4,2.7-6,6-6H119c3.3,0,6,2.7,6,6V124.8z"/>
</g>
</svg>
