<?xml version="1.0" encoding="utf-8"?>
<!-- Generator: Adobe Illustrator 27.8.0, SVG Export Plug-In . SVG Version: 6.00 Build 0)  -->
<svg version="1.1" id="Layer_1" xmlns="http://www.w3.org/2000/svg" xmlns:xlink="http://www.w3.org/1999/xlink" x="0px" y="0px"
	 width="140px" height="141px" viewBox="0 0 140 141" style="enable-background:new 0 0 140 141;" xml:space="preserve">
	<g>
		<path d="M70,31.5c2.8,0,5,2.2,5,5v55.8l21.2-24.7c1.8-2.1,5-2.3,7.1-0.5s2.3,5,0.5,7.1l-30,35
			c-0.9,1.1-2.3,1.7-3.8,1.7s-2.8-0.6-3.8-1.7l-30-35c-1.8-2.1-1.6-5.3,0.5-7.1c2.1-1.8,5.3-1.6,7.1,0.5L65,92.3V36.5
			C65,33.7,67.2,31.5,70,31.5z"/>
		<path d="M70,10.8c-33.1,0-60,26.9-60,60s26.9,60,60,60s60-26.9,60-60S103.1,10.8,70,10.8z M0,70.8
			c0-38.7,31.3-70,70-70s70,31.3,70,70s-31.3,70-70,70S0,109.4,0,70.8z"/>
	</g>
</svg>
