<?xml version="1.0" encoding="utf-8"?>
<!-- Generator: Adobe Illustrator 27.8.0, SVG Export Plug-In . SVG Version: 6.00 Build 0)  -->
<svg version="1.1" id="Layer_1" xmlns="http://www.w3.org/2000/svg" xmlns:xlink="http://www.w3.org/1999/xlink" x="0px" y="0px"
	 width="140px" height="141px" viewBox="0 0 140 141" style="enable-background:new 0 0 140 141;" xml:space="preserve">
<g id="Ebene_1">
	<path d="M75,73.6V19.1c0-1,0-4,4.6-6.5C82.6,11,86.9,10,91,10V0c-8,0-16,2.5-21,7.3c-1.4-1.3-3-2.5-4.9-3.6C60.6,1.4,54.8,0,49,0
		v9.9c6.2,0,16,2.5,16,9.1v54.5v3.9v44.5c0,6.6-9.8,9.1-16,9.1v9.9c8,0,16-2.5,21-7.4c5,4.9,13,7.4,21,7.4V131c-6.2,0-16-2.5-16-9.1
		V77.4V73.6z"/>
	<g>
		<rect y="39.9" width="47.2" height="10"/>
		<rect y="91.1" width="47.2" height="10"/>
		<rect x="14.7" y="65.5" width="32.6" height="10"/>
	</g>
	<path d="M138.5,95.6c-5-5-6.3-8.1-6.5-15.9v-15c0-0.8,0-1.5,0-2.3c0-0.1,0-0.1,0-0.1v-2.4h-0.1c-0.4-6.9-2.5-12.2-6.3-16
		c-7.2-7.1-18.5-7-29.5-7c-1.1,0-2.2,0-3.3,0c-2.8,0-5,2.2-5,5s2.2,5,5,5c1.1,0,2.3,0,3.4,0c9.3-0.1,18.2-0.1,22.4,4.1
		c1.9,1.9,3,4.9,3.3,8.9h-15.8c-11.7,0-21.2,9.5-21.2,21.3s9.5,21.3,21.2,21.3h4.7c6,0,11.4-2.5,15.3-6.5c1.3,2.2,3.1,4.4,5.5,6.7
		c1,1,2.3,1.5,3.5,1.5s2.6-0.5,3.5-1.5C140.5,100.7,140.5,97.5,138.5,95.6z M122,81.2c0,6.2-5,11.3-11.3,11.3H106
		c-6.2,0-11.2-5-11.2-11.3s5-11.3,11.2-11.3h16c0,3.6-0.1,6.7,0,9.5V81.2z"/>
</g>
</svg>
