<?xml version="1.0" encoding="utf-8"?>
<!-- Generator: Adobe Illustrator 27.8.0, SVG Export Plug-In . SVG Version: 6.00 Build 0)  -->
<svg version="1.1" id="Ebene_1" xmlns="http://www.w3.org/2000/svg" xmlns:xlink="http://www.w3.org/1999/xlink" x="0px" y="0px"
	 width="140px" height="141px" viewBox="0 0 140 141" style="enable-background:new 0 0 140 141;" xml:space="preserve">
<path d="M122.9,77.5V64.3l6.4-8c3.9-4.9,4.4-11.5,1.3-16.9l-4-6.8l5.7-5.7c2.9-3,4.6-6.9,4.6-11c0-2.2-0.4-4.2-1.2-6.1
	s-1.9-3.6-3.4-5.1c-6.1-6-15.9-6-22,0L93,21.9l-3.4-2l-3.7-9.5c-2.3-5.8-7.8-9.5-14-9.5h-8.1c-6.2,0-11.7,3.7-14,9.5l-3.7,9.5
	l-11.5,6.6L24.5,25c-6.2-0.9-12.1,2-15.2,7.3l-4.1,7c-3.1,5.4-2.6,12,1.3,16.9l6.4,8v13.2l-6.4,8c-3.9,5-4.4,11.6-1.3,17l4.1,7
	c3.1,5.4,9.1,8.3,15.2,7.3l10.1-1.5l11.5,6.6l3.7,9.5c2.3,5.8,7.8,9.5,14,9.5h8.1c6.2,0,11.7-3.7,14-9.5l3.7-9.5l11.5-6.6l10.1,1.5
	c6.2,0.9,12.1-1.9,15.2-7.3l4.1-7c3.1-5.4,2.6-12-1.3-16.9L122.9,77.5z M111.6,17.5l0.6-0.6l2.1-2.1l3.1-3.1c2.2-2.2,5.7-2.2,7.8,0
	c1.4,1.3,1.6,2.9,1.6,4s-0.3,2.6-1.6,4l-4.9,4.9l-0.8,0.8l-7.1,7.1L99.1,45.8L97.9,47l-10,10l-0.1,0.1l-7.3,7.3l0,0
	c1.1,2.2,1.7,4.7,1.7,7.4c0,8.1-5.6,14.8-13.2,16.6c0.8-1.9,1.3-4,1.3-6.1c0-2.2-0.4-4.2-1.2-6.1c-0.8-1.9-1.9-3.6-3.4-5.1
	c-4.6-4.6-11.4-5.6-17-3.3c0.2-0.7,0.4-1.5,0.7-2.2l-0.1,0.1c0.1-0.2,0.1-0.3,0.2-0.5v-0.1c0.8-1.9,2-3.8,3.6-5.4
	c1.6-1.6,3.5-2.8,5.4-3.6l0,0c0.2-0.1,0.3-0.2,0.5-0.2L58.9,56c1.9-0.8,4-1.2,6.2-1.2c2.7,0,5.2,0.6,7.4,1.7l0,0l7.3-7.3l0.1-0.1
	l9.9-9.9l6-6L111.6,17.5z M121.9,97.4l-4.1,7c-1,1.8-3,2.8-5.1,2.4l-11.9-1.8c-1.1-0.2-2.3,0-3.3,0.6L83.1,114
	c-1,0.6-1.7,1.4-2.2,2.5l-4.4,11.2c-0.8,1.9-2.6,3.2-4.7,3.2h-8.1c-2.1,0-3.9-1.2-4.7-3.2l-4.4-11.2c-0.4-1.1-1.2-1.9-2.2-2.5
	l-14.5-8.4c-1-0.6-2.1-0.8-3.3-0.6L23,106.8c-2,0.3-4-0.6-5.1-2.5l-4.1-7c-1-1.8-0.9-4,0.4-5.6l7.5-9.4c0.7-0.9,1.1-2,1.1-3.1V62.5
	c0-1.1-0.4-2.2-1.1-3.1L14.3,50c-1.3-1.6-1.5-3.8-0.4-5.6l4.1-7c1-1.8,3-2.8,5.1-2.5l11.8,1.8c1.1,0.2,2.3,0,3.3-0.6l14.5-8.4
	c1-0.6,1.7-1.4,2.2-2.5L59.3,14c0.8-1.9,2.6-3.2,4.7-3.2h8.1c2.1,0,3.9,1.2,4.7,3.2L81,25.2c0.4,1.1,1.2,1.9,2.2,2.5l2.6,1.5
	L69.9,45.1c-6.8-1.2-14,0.3-19.9,4.3l-0.1,0.1c-0.6,0.4-1.2,0.8-1.7,1.3c-0.1,0-0.1,0.1-0.2,0.1c-0.3,0.2-0.6,0.5-0.9,0.7
	c-0.2,0.2-0.4,0.4-0.6,0.6c-0.1,0.1-0.2,0.2-0.4,0.3l0,0l0,0c-7,7-9.4,16.9-7.1,25.9c0.7,2.8,1.9,5.5,3.5,8l2.6-2.6l0.6-0.6l2.1-2.1
	l2.1-2.1l0,0l1-1c2.2-2.2,5.7-2.2,7.8,0c1.4,1.3,1.6,2.9,1.6,4s-0.3,2.6-1.6,4l-0.9,0.9l0,0l-4,4L53,91.7l-2.6,2.6
	c2.6,1.7,5.4,2.9,8.3,3.6c8,1.9,16.7,0.2,23.4-5.3l0.1-0.1c0.3-0.2,0.6-0.5,0.9-0.8c0.2-0.2,0.5-0.4,0.7-0.6
	c0.1-0.1,0.2-0.2,0.4-0.3l0,0l0,0l0,0c5.1-5.1,7.9-11.9,7.9-19.1c0-1.5-0.1-3.1-0.4-4.5L119,39.8l2.6,4.5c1,1.8,0.9,4-0.4,5.6
	l-7.5,9.4c-0.7,0.9-1.1,2-1.1,3.1v16.7c0,1.1,0.4,2.2,1.1,3.1l7.5,9.4C122.7,93.4,122.9,95.6,121.9,97.4z"/>
</svg>
