<?xml version="1.0" encoding="utf-8"?>
<!-- Generator: Adobe Illustrator 26.0.3, SVG Export Plug-In . SVG Version: 6.00 Build 0)  -->
<svg version="1.1" id="Ebene_1" xmlns="http://www.w3.org/2000/svg" xmlns:xlink="http://www.w3.org/1999/xlink" x="0px" y="0px"
	 viewBox="0 0 140 141" style="enable-background:new 0 0 140 141;" xml:space="preserve">
	<g>
		<path d="M111,140.8H22.9c-12.4,0-22.5-10.1-22.5-22.5V30.2c0-12.4,10.1-22.5,22.5-22.5h53.4v10H22.9
			c-6.9,0-12.5,5.6-12.5,12.5v88.1c0,6.9,5.6,12.5,12.5,12.5H111c6.9,0,12.5-5.6,12.5-12.5V64.4h10v53.9
			C133.5,130.7,123.4,140.8,111,140.8z"/>
	</g>
	<g>
		<g>
			<path d="M138.6,9.8c-0.8-1.9-1.9-3.6-3.4-5.1c-6.1-6-15.9-6-22,0L43.6,74.5c-0.8,0.8-1.3,1.8-1.4,2.8l-2.5,17.5
				c-0.2,1.6,0.3,3.1,1.4,4.2c1,0.9,2.2,1.5,3.5,1.5c0.2,0,0.5,0,0.7,0L62.8,98c1.1-0.2,2.1-0.7,2.8-1.4l69.6-69.7
				c2.9-3,4.6-6.9,4.6-11C139.8,13.7,139.4,11.7,138.6,9.8z M59.7,88.3l-9.2,1.3l1.3-9.2l55.7-55.7l7.9,7.9L59.7,88.3z M128.2,19.8
				l-5.7,5.7l-7.9-7.9l5.8-5.8c2.2-2.2,5.7-2.2,7.8,0c1.4,1.3,1.6,2.9,1.6,4S129.5,18.4,128.2,19.8z"/>
		</g>
	</g>
</svg>
