<?xml version="1.0" encoding="utf-8"?>
<!-- Generator: Adobe Illustrator 27.8.0, SVG Export Plug-In . SVG Version: 6.00 Build 0)  -->
<svg version="1.1" id="Layer_1" xmlns="http://www.w3.org/2000/svg" xmlns:xlink="http://www.w3.org/1999/xlink" x="0px" y="0px"
	 width="140px" height="140px" viewBox="0 0 140 140" style="enable-background:new 0 0 140 140;" xml:space="preserve">
<g transform="matrix(10,0,0,10,0,0)">
	<path d="M13.5,7.5h-13C0.2,7.5,0,7.3,0,7V2c0-0.3,0.2-0.5,0.5-0.5h13C13.8,1.5,14,1.7,14,2v5C14,7.3,13.8,7.5,13.5,7.5z M1,6.5h12
		v-4H1V6.5z"/>
	<path d="M3.5,5.5c-0.6,0-1-0.4-1-1s0.4-1,1-1s1,0.4,1,1S4.1,5.5,3.5,5.5z M3.5,4.5L3.5,4.5L3.5,4.5z"/>
	<path d="M7,5H6C5.7,5,5.5,4.8,5.5,4.5S5.7,4,6,4h1c0.3,0,0.5,0.2,0.5,0.5S7.3,5,7,5z"/>
	<path d="M7,12.5c-0.3,0-0.5-0.2-0.5-0.5V7c0-0.3,0.2-0.5,0.5-0.5c0.3,0,0.5,0.2,0.5,0.5v5C7.5,12.3,7.3,12.5,7,12.5z"/>
	<path d="M12,12.5H2c-0.3,0-0.5-0.2-0.5-0.5s0.2-0.5,0.5-0.5h10c0.3,0,0.5,0.2,0.5,0.5S12.3,12.5,12,12.5z"/>
</g>
</svg>
