<?xml version="1.0" encoding="utf-8"?>
<!-- Generator: Adobe Illustrator 27.8.0, SVG Export Plug-In . SVG Version: 6.00 Build 0)  -->
<svg version="1.1" id="Ebene_1" xmlns="http://www.w3.org/2000/svg" xmlns:xlink="http://www.w3.org/1999/xlink" x="0px" y="0px"
	 width="140px" height="141px" viewBox="0 0 140 141" style="enable-background:new 0 0 140 141;" xml:space="preserve">
<g>
	<path d="M123.8,14.2H16.2C7.3,14.2,0,21.5,0,30.4v80.8c0,9,7.3,16.2,16.2,16.2h107.5c9,0,16.2-7.3,16.2-16.2V30.4
		C140,21.5,132.7,14.2,123.8,14.2z M130,111.3c0,3.4-2.8,6.2-6.2,6.2H16.2c-3.4,0-6.2-2.8-6.2-6.2V30.4c0-3.4,2.8-6.2,6.2-6.2h107.5
		c3.4,0,6.2,2.8,6.2,6.2v80.9H130z"/>
	<path d="M23.5,84.2c0,2.8,2.2,5,5,5s5-2.2,5-5c0-7.6,6.2-13.7,13.7-13.7S61,76.6,61,84.2c0,2.8,2.2,5,5,5c2.8,0,5-2.2,5-5
		c0-8.5-4.5-15.9-11.1-20.1c3.4-3.4,5.5-8.1,5.5-13.2c0-10.3-8.4-18.7-18.7-18.7C36.3,32.2,28,40.5,28,50.9c0,5.4,2.3,10.3,6,13.7
		C27.7,68.8,23.5,76,23.5,84.2z M46.7,42.2c4.8,0,8.7,3.9,8.7,8.7s-3.9,8.7-8.7,8.7S38,55.7,38,50.9S41.9,42.2,46.7,42.2z"/>
	<path d="M117.5,38.7H80.4c-2.8,0-5,2.2-5,5s2.2,5,5,5h37.1c2.8,0,5-2.2,5-5S120.2,38.7,117.5,38.7z"/>
	<path d="M117.5,65.5H80.4c-2.8,0-5,2.2-5,5s2.2,5,5,5h37.1c2.8,0,5-2.2,5-5S120.2,65.5,117.5,65.5z"/>
	<path d="M117.5,92.3H23.8c-2.8,0-5,2.2-5,5s2.2,5,5,5h93.7c2.8,0,5-2.2,5-5S120.2,92.3,117.5,92.3z"/>
</g>
</svg>
