<?xml version="1.0" encoding="utf-8"?>
<!-- Generator: Adobe Illustrator 27.8.0, SVG Export Plug-In . SVG Version: 6.00 Build 0)  -->
<svg version="1.1" id="Ebene_1" xmlns="http://www.w3.org/2000/svg" xmlns:xlink="http://www.w3.org/1999/xlink" x="0px" y="0px"
	 width="140px" height="141px" viewBox="0 0 140 141" style="enable-background:new 0 0 140 141;" xml:space="preserve">
<path d="M50,65.8c-15.2,0-27.5-12.3-27.5-27.5S34.8,10.8,50,10.8c15.2,0,27.5,12.3,27.5,27.5C77.5,53.4,65.2,65.7,50,65.8z M50,20.8
	c-9.7,0-17.5,7.8-17.5,17.5c0,9.7,7.8,17.5,17.5,17.5c9.6,0,17.5-7.8,17.5-17.5C67.5,28.6,59.7,20.8,50,20.8L50,20.8z"/>
<path d="M95,140.7H5c-2.8,0-5-2.2-5-5v-10c1-27.6,24.1-49.2,51.7-48.2c26.3,0.9,47.3,22,48.2,48.2v10
	C99.9,138.4,97.7,140.7,95,140.7z M10,130.7h80v-5c0.8-22.1-16.5-40.6-38.6-41.4c-22.1-0.8-40.6,16.5-41.4,38.6c0,0.9,0,1.9,0,2.8
	L10,130.7z"/>
<path d="M90,65.8c-2.8,0-5-2.2-5-5s2.2-5,5-5c9.7,0,17.5-7.8,17.5-17.5S99.7,20.8,90,20.8c-2.8,0-5-2.2-5-5s2.2-5,5-5
	c15.2,0,27.5,12.3,27.5,27.5S105.2,65.8,90,65.8z"/>
<path d="M135,140.7h-15c-2.8,0-5-2.2-5-5s2.2-5,5-5h10v-6.1c-0.1-16.6-10.3-31.4-25.8-37.3c-2.5-1.2-3.5-4.2-2.3-6.7
	c1.1-2.1,3.5-3.2,5.8-2.6c19.3,7.4,32.1,25.9,32.2,46.6v11.1C140,138.5,137.8,140.7,135,140.7z"/>
</svg>
