<?xml version="1.0" encoding="utf-8"?>
<!-- Generator: Adobe Illustrator 27.8.0, SVG Export Plug-In . SVG Version: 6.00 Build 0)  -->
<svg version="1.1" id="Layer_1" xmlns="http://www.w3.org/2000/svg" xmlns:xlink="http://www.w3.org/1999/xlink" x="0px" y="0px"
	 width="140px" height="140px" viewBox="0 0 140 140" style="enable-background:new 0 0 140 140;" xml:space="preserve">
<path d="M125,95.7V80c0-8.3-6.7-15-15-15H75V44.3c8.6-2.2,15-10,15-19.3c0-11-9-20-20-20c-11,0-20,9-20,20c0,9.3,6.4,17.1,15,19.3
	V65H30c-8.3,0-15,6.7-15,15v15.7c-8.6,2.2-15,10-15,19.3c0,11,9,20,20,20s20-9,20-20c0-9.3-6.4-17.1-15-19.3V80c0-2.8,2.2-5,5-5h35
	v20.7c-8.6,2.2-15,10-15,19.3c0,11,9,20,20,20c11,0,20-9,20-20c0-9.3-6.4-17.1-15-19.3V75h35c2.8,0,5,2.2,5,5v15.7
	c-8.6,2.2-15,10-15,19.3c0,11,9,20,20,20s20-9,20-20C140,105.7,133.6,97.9,125,95.7z M60,25c0-5.5,4.5-10,10-10c5.5,0,10,4.5,10,10
	s-4.5,10-10,10C64.5,35,60,30.5,60,25z M30,115c0,5.5-4.5,10-10,10s-10-4.5-10-10s4.5-10,10-10S30,109.5,30,115z M80,115
	c0,5.5-4.5,10-10,10c-5.5,0-10-4.5-10-10s4.5-10,10-10C75.5,105,80,109.5,80,115z M120,125c-5.5,0-10-4.5-10-10s4.5-10,10-10
	s10,4.5,10,10S125.5,125,120,125z"/>
</svg>
