<?xml version="1.0" encoding="utf-8"?>
<!-- Generator: Adobe Illustrator 27.8.0, SVG Export Plug-In . SVG Version: 6.00 Build 0)  -->
<svg version="1.1" id="Ebene_1" xmlns="http://www.w3.org/2000/svg" xmlns:xlink="http://www.w3.org/1999/xlink" x="0px" y="0px"
	 width="140px" height="141px" viewBox="0 0 140 141" style="enable-background:new 0 0 140 141;" xml:space="preserve">
<g>
	<path d="M121.5,51.9V37.6c0-3.9-1.5-7.5-4.2-10.3L94.1,4.2C91.4,1.5,87.7,0,83.8,0H34.3c-8.7,0-15.7,7-15.7,15.7v36.2
		c-9,1.2-16,8.9-16,18.2v30.2c0,9.3,7,17,16,18.2v6.8c0,8.7,7,15.7,15.7,15.7h71.5c8.7,0,15.7-7,15.7-15.7v-6.8
		c9-1.2,16-8.9,16-18.2V70.1C137.4,60.8,130.5,53.1,121.5,51.9z M88.4,12.7l21,21H88.6c-0.1,0-0.1-0.1-0.1-0.1L88.4,12.7L88.4,12.7z
		 M28.5,15.7c0-3.2,2.6-5.7,5.7-5.7h44.2v23.5c0,5.6,4.6,10.1,10.1,10.1h22.9v8.1h-83L28.5,15.7L28.5,15.7z M111.5,125.3
		c0,3.2-2.6,5.7-5.7,5.7H34.3c-3.2,0-5.7-2.6-5.7-5.7v-6.6h83L111.5,125.3L111.5,125.3z M127.4,100.3c0,3.8-2.5,7-6,8
		c-0.8,0.2-1.5,0.3-2.4,0.3H20.9c-0.8,0-1.6-0.1-2.4-0.3c-3.4-1-6-4.2-6-8V70.1c0-3.8,2.5-7,6-8c0.8-0.2,1.5-0.3,2.4-0.3h98.2
		c0.8,0,1.6,0.1,2.4,0.3c3.4,1,6,4.2,6,8L127.4,100.3L127.4,100.3z"/>
</g>
<g>
	<path d="M46.2,100.3c0,2.8-2.2,5-5,5H26.4c-4.1,0-7.4-3.3-7.4-7.4V70.2c0-2.8,2.2-5,5-5c2,0,3.8,1.2,4.6,2.9
		c0.3,0.6,0.4,1.3,0.4,2.1v25.2h12.2C44,95.3,46.2,97.6,46.2,100.3z"/>
	<path d="M64.1,65.9c-10.9,0-19.7,8.8-19.7,19.7s8.8,19.7,19.7,19.7s19.7-8.8,19.7-19.7S75,65.9,64.1,65.9z M64.1,95.3
		c-5.3,0-9.7-4.4-9.7-9.7c0-5.4,4.4-9.7,9.7-9.7c5.4,0,9.7,4.3,9.7,9.7C73.8,91,69.5,95.3,64.1,95.3z"/>
	<path d="M124.9,89.5c-0.6,2.9-1.8,5.5-3.4,7.7c-2.5,3.4-6,5.9-10,7.2c-1.9,0.6-3.8,0.9-5.9,0.9c-10.7,0-19.6-8.7-19.7-19.5
		c-0.1-10.6,8.3-19.5,18.9-19.9c2.3-0.1,4.5,0.2,6.7,0.9c0.3,0.1,0.6,0.2,0.9,0.3c2.6,1,3.9,3.8,3,6.4c-0.6,1.8-2.2,2.9-3.9,3.2
		c-0.8,0.1-1.7,0.1-2.5-0.2c-1.2-0.4-2.5-0.6-3.7-0.6c-5.2,0.2-9.3,4.6-9.3,9.8c0.1,5.3,4.4,9.6,9.7,9.6c2.2,0,4.2-0.7,5.9-2
		c1-0.7,1.8-1.6,2.4-2.7h-6c-2.8,0-5-2.2-5-5s2.2-5,5-5h9.7c1.4,0,2.7,0.4,3.9,1.1c0.7,0.4,1.3,1,1.9,1.6
		C124.8,85.1,125.3,87.3,124.9,89.5z"/>
</g>
</svg>
