<svg width="140" height="141" viewBox="0 0 140 141" fill="none" xmlns="http://www.w3.org/2000/svg">
<g clip-path="url(#clip0)">
<path fill-rule="evenodd" clip-rule="evenodd" d="M20.5025 21.2921C33.6301 8.16453 51.4348 0.789551 70 0.789551C88.5652 0.789551 106.37 8.16453 119.497 21.2921C132.625 34.4196 140 52.2244 140 70.7896C140 89.3547 132.625 107.159 119.497 120.287C106.37 133.415 88.5652 140.79 70 140.79C51.4348 140.79 33.6301 133.415 20.5025 120.287C7.37498 107.159 3.8147e-06 89.3547 3.8147e-06 70.7896C3.8147e-06 52.2244 7.37498 34.4196 20.5025 21.2921ZM70 10.7896C54.087 10.7896 38.8258 17.111 27.5736 28.3631C16.3214 39.6153 10 54.8766 10 70.7896C10 86.7025 16.3214 101.964 27.5736 113.216C38.8258 124.468 54.087 130.79 70 130.79C85.913 130.79 101.174 124.468 112.426 113.216C123.679 101.964 130 86.7025 130 70.7896C130 54.8766 123.679 39.6153 112.426 28.3631C101.174 17.111 85.913 10.7896 70 10.7896Z" fill="#334D6E"/>
<rect x="65" y="56.6924" width="10" height="48.6163" rx="5" fill="#334D6E"/>
<circle cx="70" cy="40.6605" r="5.75228" fill="#334D6E"/>
</g>
<defs>
<clipPath id="clip0">
<rect width="140" height="140" fill="white" transform="translate(3.8147e-06 0.789551)"/>
</clipPath>
</defs>
</svg>
