<?xml version="1.0" encoding="utf-8"?>
<!-- Generator: Adobe Illustrator 27.8.0, SVG Export Plug-In . SVG Version: 6.00 Build 0)  -->
<svg version="1.1" id="Layer_1" xmlns="http://www.w3.org/2000/svg" xmlns:xlink="http://www.w3.org/1999/xlink" x="0px" y="0px"
	 width="140px" height="140px" viewBox="0 0 140 140" style="enable-background:new 0 0 140 140;" xml:space="preserve">
<g transform="matrix(10,0,0,10,0,0)">
	<path d="M7,14c-3.9,0-7-3.1-7-7c0-3.9,3.1-7,7-7c3.9,0,7,3.1,7,7C14,10.9,10.9,14,7,14z M7,1C3.7,1,1,3.7,1,7s2.7,6,6,6s6-2.7,6-6
		S10.3,1,7,1z"/>
	<path d="M5.5,10c-0.1,0-0.2,0-0.2-0.1C5.1,9.8,5,9.7,5,9.5v-5c0-0.2,0.1-0.3,0.3-0.4C5.4,4,5.6,4,5.8,4.1l4,2.5
		C9.9,6.7,10,6.8,10,7c0,0.2-0.1,0.3-0.2,0.4l-4,2.5C5.7,10,5.6,10,5.5,10z M6,5.4v3.2L8.6,7L6,5.4z"/>
</g>
</svg>
