<?xml version="1.0" encoding="utf-8"?>
<!-- Generator: Adobe Illustrator 27.8.0, SVG Export Plug-In . SVG Version: 6.00 Build 0)  -->
<svg version="1.1" id="Layer_1" xmlns="http://www.w3.org/2000/svg" xmlns:xlink="http://www.w3.org/1999/xlink" x="0px" y="0px"
	 viewBox="0 0 400 400" width="105" height="105" style="enable-background:new 0 0 400 400;" xml:space="preserve">
<path fill="#8C979A" d="M221.9,233.5c-6.2,0-11.1,2-14.8,6c-3.6,4-5.5,9.5-5.5,16.4c0,6.9,1.8,12.3,5.5,16.4c3.6,4.1,8.6,6.1,14.8,6.1
	c6.1,0,11-2,14.7-6.1c3.7-4.1,5.5-9.5,5.5-16.4s-1.8-12.3-5.5-16.4C233.1,235.5,228.1,233.5,221.9,233.5z M348.1,195h-27v-30.8
	c0-7.7-3.1-15.2-8.6-20.6l-104-104c-5.5-5.5-12.9-8.6-20.6-8.6h-85.4c-13.1,0-23.7,10.6-23.7,23.7V195h-27
	c-9.3,0-16.8,7.5-16.8,16.8v88.4c0,9.3,7.5,16.8,16.8,16.8h27v28.3c0,13.1,10.6,23.7,23.7,23.7h194.9c13.1,0,23.7-10.6,23.7-23.7
	V317h27c9.3,0,16.8-7.5,16.8-16.8v-88.4C364.9,202.5,357.4,195,348.1,195z M105.9,58H183c1.8,0,3.3,1.5,3.3,3.3v73.6
	c0,16.7,13.6,30.3,30.3,30.3h74.2c1.8,0,3.3,1.5,3.3,3.3V195H105.9V58z M261.4,256c0,7.7-1.8,14.6-5.3,20.7
	c-3.5,6.1-8.3,10.9-14.3,14.3c-6,3.4-12.7,5.1-20,5.1s-14-1.7-20-5.1c-6-3.4-10.8-8.2-14.3-14.3c-3.5-6.1-5.3-13-5.3-20.7
	c0-7.7,1.8-14.5,5.3-20.6c3.5-6.1,8.3-10.8,14.3-14.3c6-3.4,12.7-5.1,20-5.1c7.4,0,14.1,1.7,20.1,5.1c6,3.4,10.7,8.2,14.2,14.3
	C259.7,241.4,261.4,248.3,261.4,256z M152.1,269c-1.3-1.3-2.9-2.4-4.8-3.3c-1.9-0.8-4.6-1.9-8-3c-4.9-1.7-9-3.3-12.1-4.9
	c-3.1-1.6-5.8-3.9-8.1-7.1c-2.2-3.1-3.4-7.2-3.4-12.2c0-4.6,1.2-8.7,3.5-12.1c2.4-3.4,5.6-6,9.8-7.8c4.2-1.8,8.9-2.7,14.3-2.7
	c8.7,0,15.6,2.1,20.7,6.2c5.1,4.1,8,9.8,8.7,17h-20.5c-0.4-2.6-1.3-4.6-2.8-6.1c-1.5-1.5-3.6-2.3-6.1-2.3c-2.2,0-4,0.6-5.4,1.8
	c-1.4,1.2-2,2.9-2,5.2c0,1.8,0.6,3.4,1.8,4.7c1.2,1.3,2.7,2.3,4.6,3.2c1.8,0.8,4.5,1.8,8,3.1c5,1.7,9.1,3.4,12.3,5
	c3.2,1.7,5.9,4.1,8.2,7.2c2.3,3.2,3.4,7.3,3.4,12.4c0,4.1-1,7.9-3.2,11.4c-2.1,3.5-5.2,6.2-9.3,8.3c-4.1,2.1-9,3.1-14.9,3.1
	c-8.8,0-16-2.1-21.7-6.4c-5.7-4.3-8.8-10.2-9.3-17.9h20.1c0.3,2.9,1.3,5.3,3.2,7c1.8,1.7,4.1,2.5,6.9,2.5c2.4,0,4.3-0.7,5.8-2
	c1.4-1.3,2.1-3.1,2.1-5.3C154.1,272,153.4,270.3,152.1,269z M105.6,270.6c0,8.2-2.2,14.5-6.7,18.9c-4.5,4.4-10.6,6.6-18.5,6.6
	c-8.6,0-15.3-2.4-20.3-7.2c-5-4.8-7.5-11.8-7.5-20.8h18.7c0,7.3,2.8,10.9,8.3,10.9c4.8,0,7.2-2.8,7.2-8.4v-53.4h18.9V270.6z
	 M294.1,342H105.9v-25h188.2V342z M341.5,295.3h-18.9l-31.6-48v48H272v-78.2h18.9l31.6,48.4v-48.4h18.9V295.3z"/>
</svg>
