<?xml version="1.0" encoding="utf-8"?>
<!-- Generator: Adobe Illustrator 27.8.0, SVG Export Plug-In . SVG Version: 6.00 Build 0)  -->
<svg version="1.1" id="Layer_1" xmlns="http://www.w3.org/2000/svg" xmlns:xlink="http://www.w3.org/1999/xlink" x="0px" y="0px"
	 viewBox="0 0 400 400" width="105" height="105" xml:space="preserve">
<path fill="#8C979A" d="M325.4,195h-4.3v-30.8c0-7.7-3.1-15.2-8.6-20.6l-104-104c-5.5-5.5-12.9-8.6-20.6-8.6h-85.4c-13.1,0-23.7,10.6-23.7,23.7V195
	h-4.3c-9.3,0-16.8,7.5-16.8,16.8v88.4c0,9.3,7.5,16.8,16.8,16.8h4.3v28.3c0,13.1,10.6,23.7,23.7,23.7h194.9
	c13.1,0,23.7-10.6,23.7-23.7V317h4.3c9.3,0,16.8-7.5,16.8-16.8v-88.4C342.2,202.5,334.7,195,325.4,195z M105.9,58H183
	c1.8,0,3.3,1.5,3.3,3.3v73.6c0,16.7,13.6,30.3,30.3,30.3h74.2c1.8,0,3.3,1.5,3.3,3.3V195H105.9V58z M207.1,269
	c-1.3-1.3-2.9-2.4-4.8-3.3c-1.9-0.8-4.6-1.9-8-3c-4.9-1.7-9-3.3-12.1-4.9c-3.1-1.6-5.8-3.9-8.1-7.1c-2.2-3.1-3.4-7.2-3.4-12.2
	c0-4.6,1.2-8.7,3.5-12.1c2.4-3.4,5.6-6,9.8-7.8c4.2-1.8,8.9-2.7,14.3-2.7c8.7,0,15.6,2.1,20.7,6.2c5.1,4.1,8,9.8,8.7,17h-20.5
	c-0.4-2.6-1.3-4.6-2.8-6.1c-1.5-1.5-3.6-2.3-6.1-2.3c-2.2,0-4,0.6-5.4,1.8c-1.4,1.2-2,2.9-2,5.2c0,1.8,0.6,3.4,1.8,4.7
	c1.2,1.3,2.7,2.3,4.6,3.2c1.8,0.8,4.5,1.8,8,3.1c5,1.7,9.1,3.4,12.3,5c3.2,1.7,5.9,4.1,8.2,7.2c2.3,3.2,3.4,7.3,3.4,12.4
	c0,4.1-1.1,7.9-3.2,11.4c-2.1,3.5-5.2,6.2-9.3,8.3c-4.1,2.1-9,3.1-14.9,3.1c-8.8,0-16-2.1-21.7-6.4c-5.7-4.3-8.8-10.2-9.3-17.9h20.1
	c0.3,2.9,1.3,5.3,3.2,7c1.8,1.7,4.1,2.5,6.9,2.5c2.4,0,4.3-0.7,5.8-2c1.4-1.3,2.1-3.1,2.1-5.3C209.1,272,208.4,270.3,207.1,269z
	 M91.8,276.9c-3.1-6-4.7-12.9-4.7-20.7s1.6-14.6,4.7-20.7c3.1-6,7.6-10.7,13.3-14.1c5.7-3.4,12.4-5,20-5c10,0,18.2,2.6,24.7,7.9
	c6.5,5.2,10.7,12.3,12.7,21.2h-20c-1.5-3.6-3.7-6.4-6.8-8.5c-3.1-2.1-6.7-3.1-10.9-3.1c-5.5,0-10,2-13.4,6.1
	c-3.4,4.1-5.1,9.5-5.1,16.3c0,6.8,1.7,12.2,5.1,16.2c3.4,4,7.9,6,13.4,6c4.2,0,7.8-1,10.9-3.1c3.1-2.1,5.3-4.9,6.8-8.4h20
	c-1.9,8.8-6.1,15.9-12.7,21.2c-6.5,5.3-14.8,7.9-24.7,7.9c-7.6,0-14.3-1.7-20-5C99.4,287.6,94.9,282.9,91.8,276.9z M294.1,342H105.9
	v-25h188.2V342z M285.7,295.3h-24.4l-27.1-78.2h20.2l19.1,58.8l19.1-58.8h20.2L285.7,295.3z"/>
</svg>
