<?xml version="1.0" encoding="UTF-8" standalone="no"?><!DOCTYPE svg PUBLIC "-//W3C//DTD SVG 1.1//EN" "http://www.w3.org/Graphics/SVG/1.1/DTD/svg11.dtd"><svg width="105" height="105" viewBox="0 0 10 10" version="1.1" xmlns="http://www.w3.org/2000/svg" xmlns:xlink="http://www.w3.org/1999/xlink" xml:space="preserve" style="fill-rule:evenodd;clip-rule:evenodd;stroke-linejoin:round;stroke-miterlimit:1.41421;"><path d="M8.532,0c0.767,0 1.389,0.622 1.389,1.389l0,7.143c0,0.767 -0.622,1.389 -1.389,1.389l-7.143,0c-0.767,0 -1.389,-0.622 -1.389,-1.389l0,-7.143c0,-0.767 0.622,-1.389 1.389,-1.389l7.143,0Zm-0.929,7.849l0.8,-0.8l-0.8,-0.801c-0.117,0 -2.887,0.001 -2.887,0.001l0,-0.001l-0.011,0l-0.002,0.001c-0.038,0 -0.076,-0.019 -0.098,-0.05c-0.009,-0.013 -0.015,-0.027 -0.018,-0.043c-0.002,-0.011 -0.003,-0.022 -0.002,-0.033c0.002,-0.026 0.013,-0.049 0.03,-0.068c0.005,-0.006 0.011,-0.011 0.017,-0.016l0.023,-0.013l0.002,-0.001l-0.001,0l1.301,-0.751l0,0c0.041,-0.023 0.081,-0.048 0.119,-0.075c0.121,-0.084 0.231,-0.183 0.326,-0.294c0.134,-0.156 0.239,-0.336 0.309,-0.529c0.064,-0.174 0.099,-0.357 0.104,-0.542c0.004,-0.165 -0.016,-0.331 -0.058,-0.49c-0.049,-0.183 -0.129,-0.358 -0.235,-0.515c-0.184,-0.273 -0.446,-0.489 -0.748,-0.618c-0.134,-0.058 -0.276,-0.098 -0.42,-0.12c-0.074,-0.011 -0.148,-0.016 -0.222,-0.018c-0.016,0 -0.025,0 -0.033,0l0,-0.001l-2.451,0l-0.801,0.8l0.801,0.801c0.117,0 0.927,0 0.997,0l0,-0.001l1.439,0l0,0.001l0.011,0l0.002,0c0.038,-0.001 0.077,0.018 0.098,0.05c0.009,0.013 0.014,0.027 0.018,0.042c0.002,0.011 0.003,0.023 0.002,0.035c-0.004,0.025 -0.014,0.047 -0.03,0.066c-0.006,0.006 -0.012,0.012 -0.018,0.016c-0.008,0.006 -0.016,0.01 -0.025,0.014l0.001,0.001l-1.263,0.729c-0.027,0.015 -0.053,0.03 -0.079,0.046l-0.034,0.019l0.001,0.001c-0.015,0.01 -0.03,0.02 -0.045,0.03c-0.12,0.084 -0.23,0.183 -0.326,0.295c-0.141,0.165 -0.251,0.357 -0.321,0.563c-0.063,0.186 -0.095,0.383 -0.091,0.58c0.002,0.18 0.034,0.358 0.092,0.528c0.053,0.155 0.128,0.302 0.222,0.435c0.225,0.318 0.558,0.553 0.932,0.66c0.153,0.044 0.311,0.065 0.469,0.065l0,0.001l2.903,0Z" style="fill:#00ade6;"/></svg>