<?xml version="1.0" encoding="UTF-8"?><svg id="Layer_1" xmlns="http://www.w3.org/2000/svg" viewBox="0 0 300 300"><defs><style>.cls-1{fill-rule:evenodd;}</style></defs><path class="cls-1" d="M229,252.8H35.9c-.4,0-.9-.1-1.3-.3-2-.7-3.6-2.2-4.2-4.2-.1-.4-.2-.9-.3-1.3V53.1c0-.4.1-.9.3-1.3.7-2,2.2-3.6,4.2-4.2.4-.1.9-.2,1.3-.3h193.8c.2,0,.4,0,.7.1.4.1.9.2,1.3.4,1.7.8,3,2.2,3.6,4,.1.4.2.9.3,1.3v62.6c-.1.9-.4,1.8-.8,2.6-.9,1.6-2.5,2.7-4.3,3.1-.7.1-1.4.2-2,.1-.7,0-1.3-.3-2-.5s-1.2-.7-1.7-1.1c-1-.9-1.7-2.2-2-3.5-.1-.6-.1-.8-.1-1.3v-54.7H43.2v179.3h186.6c.2,0,.4.1.7.1.9.2,1.7.6,2.5,1.1.5.4,1.1.9,1.5,1.5,1.1,1.5,1.5,3.4,1.1,5.2-.1.7-.4,1.3-.7,1.9-.3.6-.8,1.1-1.3,1.6-.8.8-1.9,1.3-3,1.5-.6.1-.8.1-1.3.1h0Z"/><path class="cls-1" d="M268.1,176c.5.5.9,1.1,1.2,1.7.9,1.7.9,3.8.2,5.6-.3.8-.8,1.4-1.4,2l-33.8,33.8c-.3.3-.3.3-.6.5-.5.4-1.2.8-1.9,1-.8.3-1.6.4-2.5.4-.7,0-1.4-.2-2-.4s-1.3-.6-1.8-1.1c-1.7-1.5-2.7-3.8-2.3-6,.1-1,.5-1.9,1.1-2.7.2-.4.5-.7.8-1l22.6-22.6h-53c-.3,0-.4,0-.8,0-.8-.1-1.5-.3-2.2-.7-.8-.4-1.5-1-2.1-1.7-.5-.6-.9-1.3-1.1-2-.2-.6-.3-1.2-.3-1.9,0-2.2,1.1-4.4,2.9-5.6.8-.5,1.6-.9,2.5-1,.4,0,.8-.1,1.2-.1,17.6,0,35.2-.4,52.9-.1l-22.5-22.5-.3-.3c-.2-.3-.3-.4-.5-.7-.4-.6-.7-1.2-.9-1.9-.2-.7-.3-1.4-.2-2.1.1-2.1,1.3-4.1,3.1-5.2.7-.4,1.5-.8,2.3-.9.4,0,.5,0,.8-.1h.8c.4,0,.8.1,1.2.2.8.2,1.6.6,2.3,1.1l34.4,34.4h0c0,0,0,0,0,0Z"/><rect x="57.5" y="76.1" width="69.7" height="20.8"/><rect x="57.4" y="109" width="69.7" height="20.8"/><rect x="57.5" y="141.9" width="69.7" height="20.8"/><rect x="138.4" y="141.9" width="69.7" height="20.8"/><rect x="138.4" y="109" width="69.7" height="20.8"/><rect x="138.4" y="76.1" width="69.7" height="20.8"/><circle cx="92.4" cy="197.4" r="26.5"/></svg>