<?xml version="1.0" encoding="UTF-8"?><svg id="Layer_1" xmlns="http://www.w3.org/2000/svg" viewBox="0 0 300 300"><defs><style>.cls-1{fill:#40403f;fill-rule:evenodd;stroke-width:0px;}</style></defs><path d="m110.9,167.8c.4,0,.8,0,1.6.4,1.2.4,2.1.8,2.9,1.7q.4.4.8.8c9.5,15.3,18.5,31,27.6,46.2,0,.4.4.4.4.8.4.8.4,1.2.4,2.1v2.1c-.4,2.1-1.6,3.7-3.7,4.5-.8.4-1.6.4-2.5.8-18.5.4-37,0-55.1,0s-1.6,0-2.5-.4c-1.6-.8-3.3-2.5-3.7-4.5,0-.4-.4-1.2-.4-2.1s0-1.7.4-2.1q0-.4.4-.8c8.6-15.7,18.5-31,27.6-46.2.4-.4.4-.8.8-1.2.8-.8,1.6-1.2,2.9-1.7.4,0,.8-.4,1.6-.4h.4Zm-16.5,45.8h31.7l-15.6-26.4c-5.3,8.7-10.7,17.8-16,26.4h0Zm30.4-38.8h5.8l2.5-8.3v-.4c0-.4.4-.8.4-.8.4-.8,1.2-1.2,2.1-1.7h1.6c.4,0,.8,0,1.2.4.8.4,1.6.8,2.1,1.7.4.4.4.8.4,1.2l2.5,8.3h8.6c.8,0,1.6.4,2.1.8,1.2.8,2.1,2.5,1.6,4.1,0,.4,0,.8-.4,1.2-.4.8-.8,1.2-1.2,1.7l-7,5,2.5,8.3v2.5c-.4,1.7-1.6,2.9-3.3,3.3h-1.2c-.8,0-1.6-.4-2.1-.8l-6.2-5c-3.3-7.4-7.8-14.4-11.9-21.5h0Zm40.7-28.9c0-1.7.4-3.3,1.2-4.5.4-.8.8-1.2,1.6-1.7.8-.4,1.6-.8,2.5-1.2h9.9c2.9,0,5.3-.8,7.8-1.7,2.5-.8,4.5-2.5,6.2-4.1,2.9-2.5,4.5-5.8,5.8-9.5.8-2.1.8-4.5.8-7s-.4-4.5-1.6-7c-.8-2.5-2.5-4.5-4.1-6.6-1.6-2.1-4.1-3.7-6.6-5-2.9-1.2-5.8-2.1-8.6-2.1h-9c-.8,0-1.6-.4-2.5-.8-.4-.4-1.2-.8-1.6-1.7-.4-.4-.8-1.2-.8-1.7-.8-2.1-.4-4.5.8-6.6.4-.8,1.2-1.2,2.1-1.7.8-.4,1.2-.8,2.1-.8h9c1.6,0,3.3,0,5.3.4,2.9.4,6.2,1.2,8.6,2.9,4.1,2.1,7.8,4.5,10.7,7.8,2.9,3.3,5.3,7,7,10.7,1.2,3.7,2.1,7.4,2.5,11.1,0,3.3-.4,7-1.2,10.3-.8,3.3-2.1,6.2-4.1,9.1-3.7,6.2-9.9,11.1-16.5,13.6-2.9,1.2-5.8,1.7-8.6,2.1-1.2,0-2.5,0-3.3.4h-1.2v12.8c0,1.2-.4,2.1-.8,2.9-.4.4-.8,1.2-1.2,1.7-1.2,1.2-3.3,2.1-4.9,1.7-.8,0-1.2,0-1.6-.4-.8-.4-1.6-.8-2.1-1.2-.4-.4-1.2-1.2-1.6-2.1-.4-.8-.4-1.7-.8-2.5v-18.2l-.8.4h0Zm-29.2-63.2c1.6,0,3.3,0,5.3.4,2.9.4,6.2,1.2,9,2.9,4.1,2.1,7.4,4.5,10.7,7.8,2.9,3.3,5.3,7,7,10.7,1.2,3.7,2.1,7.4,2.5,11.1,0,3.7-.4,7.4-1.2,11.1-1.2,4.1-3.3,7.8-5.8,11.6-3.7,5-8.6,8.7-14.4,10.7-2.9,1.2-5.8,1.7-8.6,2.1-1.2,0-2.5,0-3.3.4h-9.5c-.8,0-1.6-.4-2.5-.8-.4-.4-1.2-.8-1.6-1.7-.4-.4-.8-1.2-.8-1.7-.8-2.1-.4-4.5.8-6.6.4-.8,1.2-1.2,2.1-1.7.8-.4,1.2-.8,2.1-.8h9.5c2.5,0,5.3-.8,7.8-1.7,2.5-.8,4.5-2.5,6.2-4.1,2.5-2.5,4.5-5.8,5.8-9.5.8-2.1.8-4.5.8-7s-.4-4.5-1.6-7c-.8-2.5-2.5-4.5-4.1-6.6-1.6-2.1-4.1-3.7-6.6-5-2.9-1.2-5.8-2.1-8.6-2.1h-9c-.8,0-1.6-.4-2.5-.8-.4-.4-1.2-.8-1.6-1.7-.4-.4-.8-1.2-.8-1.7-.8-2.1-.4-4.5.8-6.6.4-.8,1.2-1.2,2.1-1.7.8-.4,1.2-.8,2.1-.8h.8c1.6.4,4.5.4,7.4.4h0Zm-44.4,0c1.6,0,2.9,0,4.5.4,3.3.4,6.6,1.7,9.9,2.9,7,3.3,12.8,9.1,16,15.7,1.2,2.9,2.5,5.8,2.9,8.7.8,3.7.8,7.4.4,11.1-.4,3.3-1.6,7-2.9,9.9-1.6,3.7-4.1,7-7.4,9.9-3.3,2.9-6.6,5.4-10.7,7s-8.6,2.5-12.8,2.5-9-.8-13.2-2.5c-4.1-1.7-7.4-4.1-10.7-7-2.9-2.9-5.3-6.2-7.4-9.9-1.6-3.3-2.5-6.6-2.9-9.9-.4-3.7-.4-7.4.4-11.1.4-2.9,1.6-6.2,2.9-8.7,3.3-7,9-12.8,16-15.7,2.9-1.2,6.2-2.5,9.9-2.9,1.6,0,2.9-.4,4.5-.4h.4Zm-.4,13.2c-2.9,0-5.8.8-8.6,2.1-3.7,1.7-7,4.5-9,8.3-1.2,2.1-2.1,4.1-2.5,6.2-.4,2.5-.8,5.4-.4,7.8.4,2.1.8,4.1,2.1,6.2,1.2,2.5,2.5,4.5,4.5,6.2,2.1,1.7,4.1,3.3,6.6,4.1,2.5,1.2,5.3,1.7,7.8,1.7s5.3-.4,7.8-1.7c2.5-.8,4.5-2.5,6.6-4.1,1.6-1.7,3.3-3.7,4.5-6.2.8-2.1,1.6-4.1,2.1-6.2.4-2.5.4-5-.4-7.4-.4-2.5-1.2-4.5-2.5-6.6-2.1-3.7-5.3-6.6-9-8.3-2.9-1.2-5.8-2.1-8.6-2.1h-.8Z"/><path d="m228.5,252.3H37.1c-.4,0-.8,0-1.2-.4-2.1-.8-3.7-2.1-4.1-4.1,0-.4-.4-.8-.4-1.2V53.5c0-.4,0-.8.4-1.2.4-2.1,2.1-3.7,4.1-4.1.4,0,.8-.4,1.2-.4h193c.4,0,.8.4,1.2.4,1.6.8,2.9,2.1,3.7,4.1,0,.4.4.8.4,1.2v63c-.4,1.2-.8,2.5-2.1,3.3-.4.4-1.2.8-1.6,1.2-1.6.8-3.7.8-5.4,0-.4-.4-1.2-.8-1.6-1.2-.4-.4-.8-.8-1.2-1.7s-.8-1.7-.8-2.5v-54.7H45.3v178.1h185.6c.8,0,1.6.4,2.5,1.2,1.6,1.2,2.5,2.9,2.9,4.6v2.1c0,.8-.4,1.2-.8,2.1-.4.4-.8,1.2-1.2,1.7-.8.8-2.1,1.2-2.9,1.7h-2.9Zm18.1-78.3l-22.3-22.4-.4-.4v-.8c-.4-.4-.8-1.2-.8-2.1s-.4-1.2-.4-2.1c0-2.1,1.2-4.1,2.9-5.4.8-.4,1.6-.8,2.5-.8h2.5c.8,0,1.6.4,2.1.8.4.4.8.4.8.8l33.4,33.5c.4.4,1.2,1.2,1.2,2.1.8,1.7.8,3.7,0,5.4-.4.4-.8,1.2-1.2,1.7l-33.4,33.5q-.4.4-.8.4c-.4.4-1.2.8-1.6.8-.8.4-1.6.4-2.5.4s-1.2,0-2.1-.4c-2.1-.8-3.7-2.9-4.1-5v-2.1c0-.8.4-2.1,1.2-2.9.4-.4.4-.8.8-.8l22.3-22.4h-53.2c-.8,0-1.6-.4-2.1-.8-.8-.4-1.6-.8-2.1-1.7-1.2-1.7-1.6-4.1-1.2-6.2.4-.4.4-1.2.8-1.7.4-.8,1.2-1.2,1.6-1.7.8-.4,1.6-.8,2.5-.8h1.2c17.7.8,35.1.4,52.4.8h0Z"/></svg>