<?xml version="1.0" encoding="UTF-8"?><svg id="Layer_1" xmlns="http://www.w3.org/2000/svg" viewBox="0 0 300 300"><defs><style>.cls-1{fill-rule:evenodd;}</style></defs><path class="cls-1" d="M229,252.8H36c-.4,0-.9-.1-1.3-.3-2-.7-3.6-2.2-4.2-4.2-.1-.4-.2-.9-.3-1.3V53.2c0-.4.1-.9.3-1.3.7-2,2.2-3.6,4.2-4.2.4,0,.9-.2,1.3-.3h194.5c.4,0,.9.2,1.3.4,1.7.8,3,2.2,3.6,4,.1.4.2.9.3,1.3v62.6c-.1.9-.4,1.8-.8,2.6-.9,1.6-2.5,2.7-4.3,3.1-.7,0-1.4.2-2,0-.7,0-1.3-.3-2-.5s-1.2-.7-1.7-1.1c-1-.9-1.7-2.1-2-3.5-.1-.6-.1-.8-.1-1.3v-54.7H43.3v179.3h186.5c.2,0,.4.1.7.1.9.2,1.7.6,2.5,1.1.5.4,1.1.9,1.5,1.5,1.1,1.5,1.5,3.4,1.1,5.2-.1.7-.4,1.3-.7,1.9-.3.6-.8,1.1-1.3,1.6-.8.8-1.9,1.3-3,1.5-.6.1-.8.1-1.3.1h-.3v.2Z"/><path class="cls-1" d="M229,252.8H36c-.4,0-.9-.1-1.3-.3-2-.7-3.6-2.2-4.2-4.2-.1-.4-.2-.9-.3-1.3V53.2c0-.4.1-.9.3-1.3.7-2,2.2-3.6,4.2-4.2.4,0,.9-.2,1.3-.3h194.5c.4,0,.9.2,1.3.4,1.7.8,3,2.2,3.6,4,.1.4.2.9.3,1.3v62.6c-.1.9-.4,1.8-.8,2.6-.9,1.6-2.5,2.7-4.3,3.1-.7,0-1.4.2-2,0-.7,0-1.3-.3-2-.5s-1.2-.7-1.7-1.1c-1-.9-1.7-2.1-2-3.5-.1-.6-.1-.8-.1-1.3v-54.7H43.2v179.3h186.5c.2,0,.4.1.7.1.9.2,1.7.6,2.5,1.1.5.4,1.1.9,1.5,1.5,1.1,1.5,1.5,3.4,1.1,5.2-.1.7-.4,1.3-.7,1.9-.3.6-.8,1.1-1.3,1.6-.8.8-1.9,1.3-3,1.5-.6.1-.8.1-1.3.1h-.2v.2Z"/><path class="cls-1" d="M268.1,176c.5.5.9,1.1,1.2,1.7.9,1.7.9,3.8.2,5.6-.3.8-.8,1.4-1.4,2l-33.8,33.8c-.2.2-.4.4-.6.5-.5.4-1.2.8-1.9,1-.8.3-1.6.4-2.5.4s-1.4-.2-2-.4-1.3-.6-1.8-1.1c-1.7-1.5-2.7-3.8-2.3-6,.1-1,.5-1.9,1.1-2.7.2-.4.5-.7.8-1l22.6-22.6h-53.8c-.8-.1-1.5-.3-2.2-.7-.8-.4-1.5-1-2.1-1.7-.5-.6-.9-1.3-1.1-2-.2-.6-.3-1.2-.3-1.9,0-2.2,1.1-4.4,2.9-5.6.8-.5,1.6-.9,2.5-1,.4,0,.8-.1,1.2-.1,17.6,0,35.2-.4,52.8-.1l-22.4-22.4-.3-.3c-.2-.3-.3-.4-.5-.7-.4-.6-.7-1.2-.9-1.9s-.3-1.4-.2-2.1c.1-2.1,1.3-4.1,3.1-5.2.7-.4,1.5-.8,2.3-.9.4,0,.5,0,.8-.1h.8c.4,0,.8.1,1.2.2.8.2,1.6.6,2.3,1.1l34.4,34.4h0v-.2h-.1Z"/><path d="M198.9,92.1s4.3,2.2,7.1-.9c2.7-2.8,2.1-7.4-1.2-9.3s-8.8-3.6-14-3.6c-15.4,0-27.9,12.5-27.9,27.9s12.5,27.9,27.9,27.9c0,0,8.1.4,13.8-3.7,3.4-1.9,4-6.4,1.3-9.2h0c-1.9-2-4.8-2.3-7.1-.9-2.3,1.3-4.8,2.2-7.6,2.2h-.2c-8.9,0-16.2-7.4-16.2-16.2s7.1-16.4,16.2-16.2c0,0,3.5-.4,7.9,2Z"/><path d="M124.6,77.9l26.1,26.1h-21.4c-2.6,0-4.7-2.1-4.7-4.7v-21.4h0Z"/><path d="M174.4,163.3h-32.4c-2.4,0-4.3,2.2-4.3,4.8v49.3c0,2.7,1.9,4.8,4.3,4.8h32.4c2.4,0,4.3-2.2,4.3-4.8v-49.3c0-2.7-1.9-4.8-4.3-4.8ZM145.9,175.3h24.3v9.1h-24.3v-9.1ZM145.6,194.4c0-.5.4-.9.8-.9h8.1c.4,0,.8.4.8.9v7.3c0,.5-.4.9-.8.9h-8.1c-.4,0-.8-.4-.8-.9v-7.3ZM155.4,215.3c0,.5-.4.9-.8.9h-8.1c-.4,0-.8-.4-.8-.9v-7.3c0-.5.4-.9.8-.9h8.1c.4,0,.8.4.8.9v7.3ZM161,194.4c0-.5.4-.9.8-.9h8.1c.4,0,.8.4.8.9v7.3c0,.5-.4.9-.8.9h-8.1c-.4,0-.8-.4-.8-.9v-7.3ZM170.8,215.3c0,.5-.4.9-.8.9h-8.1c-.4,0-.8-.4-.8-.9v-7.3c0-.5.4-.9.8-.9h8.1c.4,0,.8.4.8.9v7.3Z"/><path d="M128.6,109.3c-5.2,0-9.4-4.2-9.4-9.4v-22.2l-40.9.2c-5.2,0-9.4,4.2-9.4,9.4v125.8c0,5.2,4.2,9.4,9.4,9.4l53-.2h0v-60.7c0-2.5,2-4.5,4.5-4.5h14.9v-47.8h-22.1,0ZM105.5,172.8v4.7c0,2.4-2,4.4-4.4,4.4h-.3c-2.4,0-4.4-2-4.4-4.4v-4.7c-5.1,0-9.6-2.9-12-7.1-1.6-3,.5-6.6,3.9-6.6h.4c1.6,0,3,.9,3.8,2.3.8,1.3,2.1,2.1,3.8,2.3,2,.2,8.7.3,10.4-.1,4.3-1,4.6-7.5.2-8.8-2.8-.8-8.5.1-11.8-.2-4.9-.4-9.6-4-11.4-8.5-3.5-9.2,3-18.6,12.7-18.8v-4.7c0-2.4,2-4.4,4.4-4.4h.3c2.4,0,4.4,2,4.4,4.4h0v4.6c5.1,0,9.6,2.9,12,7.1,1.6,3-.5,6.6-3.9,6.6h-.3c-1.6,0-3-.9-3.8-2.3-.8-1.3-2.2-2.1-3.8-2.3-2-.2-8.7-.3-10.4.1-4.7,1.1-4.6,8.5,1,9,6.3.5,12.1-1.5,17.7,2.8,10.3,8.1,4.4,24.4-8.4,24.5h0Z"/><circle cx="205.8" cy="106.1" r="7.2"/></svg>