<?xml version="1.0" encoding="UTF-8"?>
<svg id="Layer_1" xmlns="http://www.w3.org/2000/svg" viewBox="0 0 300 300"><defs><style>.cls-1{fill:#40403f;fill-rule:evenodd;stroke-width:0px;}</style></defs>
<path d="m256.5,61.2H72.1c-3.5,0-6.6-3-6.6-6.6s3-6.6,6.6-6.6h190.7c3.5,0,6.6,3,6.6,6.6v190.7c0,3.5-3,6.6-6.6,6.6H72.1c-3.5,0-6.6-3-6.6-6.6v-60.7c0-3.5,3-6.6,6.6-6.6s6.6,3,6.6,6.6v54.1h177.8V61.2h0Z"/><path d="m52.9,126l22.5,22.5c2.5,2.5,2.5,6.7,0,9.2-2.5,2.5-6.7,2.5-9.2,0l-33.7-33.7c-2.5-2.5-2.5-6.7,0-9.2l33.7-33.7c2.5-2.5,6.7-2.5,9.2,0,2.5,2.5,2.5,6.7,0,9.2l-22.5,22.5h52.9c3.7,0,6.7,2.9,6.7,6.7s-2.9,6.7-6.7,6.7h-52.9Z"/><path d="m154.1,143h41.7c3.7,0,6.7,2.9,6.7,6.6v3.7l28.3-28.2-28.3-28.2v3.7c0,3.7-2.9,6.6-6.7,6.6h-73.3v-12.8h66.7v-12.8c0-2.5,1.7-5,4.2-5.8,2.5-.8,5.4-.4,7.1,1.2l44.2,43.9c2.5,2.5,2.5,6.6,0,9.1l-44.2,43.9c-1.7,1.7-4.6,2.5-7.1,1.2-2.5-.8-4.2-3.3-4.2-5.8v-12.8h-41.7c-3.7,0-6.7-2.9-6.7-6.6v-3.7l-28.3,28.2,28.3,28.2v-3.7c0-3.7,2.9-6.6,6.7-6.6h73.3v12.8h-66.7v12.8c0,2.5-1.7,5-4.2,5.8s-5.4.4-7.1-1.2l-44.2-43.9c-2.5-2.5-2.5-6.6,0-9.1l44.2-43.9c1.7-1.7,4.6-2.5,7.1-1.2,2.5,1.2,4.2,3.3,4.2,5.8v12.8h0Z"/></svg>