<?xml version="1.0" encoding="utf-8"?>
<!-- Generator: Adobe Illustrator 27.8.0, SVG Export Plug-In . SVG Version: 6.00 Build 0)  -->
<svg version="1.1" id="Layer_1" xmlns="http://www.w3.org/2000/svg" xmlns:xlink="http://www.w3.org/1999/xlink" x="0px" y="0px"
	 viewBox="0 0 400 400" style="enable-background:new 0 0 400 400;" xml:space="preserve">
<path fill="#8C979A" d="M369.2,186.8C362.4,99.3,289.1,30.3,200,30.3S37.6,99.3,30.8,186.8c-6.8,2.1-11.8,8.5-11.8,16v88.4
	c0,9.3,7.5,16.8,16.8,16.8h33.4c31.2,37.7,78.2,61.7,130.8,61.7s99.7-24,130.8-61.7h33.4c9.3,0,16.8-7.5,16.8-16.8v-88.4
	C381,195.2,376,188.9,369.2,186.8z M334.3,186h-49.2c-0.4-10.1-1.2-20.1-2.4-29.8C307.5,164,325.8,174.7,334.3,186z M327.3,142.4
	c-3.7-2.1-7.6-4-11.7-5.9c-11.7-5.3-24.8-9.8-38.9-13.2c-3.5-14.1-7.9-27.2-13.2-38.9c-1.9-4.1-3.8-8-5.9-11.7
	C288.4,86.7,313.3,111.6,327.3,142.4z M200,60.3c15.9,0,32.8,21.9,43.8,57c-14.1-1.8-28.8-2.7-43.8-2.7s-29.7,0.9-43.8,2.7
	C167.2,82.2,184.1,60.3,200,60.3z M148.8,148.8c15.7-2.7,32.9-4.2,51.2-4.2s35.5,1.5,51.2,4.2c2,11.6,3.3,24.1,3.9,37.2H144.9
	C145.4,172.9,146.8,160.4,148.8,148.8z M142.4,72.7c-2.1,3.7-4,7.6-5.9,11.7c-5.3,11.7-9.8,24.8-13.2,38.9
	c-14.1,3.5-27.2,7.9-38.9,13.2c-4.1,1.9-8,3.8-11.7,5.9C86.7,111.6,111.6,86.7,142.4,72.7z M117.3,156.2c-1.2,9.7-2.1,19.6-2.4,29.8
	H65.7C74.2,174.7,92.5,164,117.3,156.2z M106.2,261.6c0,8.2-2.2,14.5-6.7,18.9c-4.5,4.4-10.6,6.6-18.5,6.6c-8.6,0-15.3-2.4-20.3-7.2
	c-5-4.8-7.5-11.8-7.5-20.8h18.7c0,7.3,2.8,10.9,8.3,10.9c4.8,0,7.2-2.8,7.2-8.4v-53.4h18.9V261.6z M111.5,308h21.8
	c1,2.6,2.1,5.1,3.3,7.6c1.9,4.1,3.8,8,5.9,11.7C131.3,322.2,120.8,315.7,111.5,308z M147.5,287.1c-8.8,0-16-2.1-21.7-6.4
	c-5.7-4.3-8.8-10.2-9.3-17.9h20.1c0.3,2.9,1.3,5.3,3.2,7c1.8,1.7,4.1,2.5,6.9,2.5c2.4,0,4.3-0.7,5.8-2c1.4-1.3,2.1-3.1,2.1-5.3
	c0-2-0.6-3.6-1.9-5c-1.3-1.3-2.9-2.4-4.8-3.3c-1.9-0.8-4.6-1.9-8-3c-4.9-1.7-9-3.3-12.1-4.9c-3.1-1.6-5.8-3.9-8.1-7.1
	c-2.2-3.1-3.4-7.2-3.4-12.2c0-4.6,1.2-8.7,3.5-12.1c2.4-3.4,5.6-6,9.8-7.8c4.2-1.8,8.9-2.7,14.3-2.7c8.7,0,15.6,2.1,20.7,6.2
	c5.1,4.1,8,9.8,8.7,17H153c-0.4-2.6-1.3-4.6-2.8-6.1c-1.5-1.5-3.6-2.3-6.1-2.3c-2.2,0-4,0.6-5.4,1.8c-1.4,1.2-2,2.9-2,5.2
	c0,1.8,0.6,3.4,1.8,4.7c1.2,1.3,2.7,2.3,4.6,3.2c1.8,0.8,4.5,1.8,8,3.1c5,1.7,9.1,3.4,12.3,5c3.2,1.7,5.9,4.1,8.2,7.2
	c2.3,3.2,3.4,7.3,3.4,12.4c0,4.1-1.1,7.9-3.2,11.4c-2.1,3.5-5.2,6.2-9.3,8.3C158.3,286.1,153.4,287.1,147.5,287.1z M200,339.7
	c-11.6,0-23.8-11.7-33.8-31.7h67.5C223.8,328,211.6,339.7,200,339.7z M242.5,282c-6,3.4-12.7,5.1-20,5.1s-14-1.7-20-5.1
	c-6-3.4-10.8-8.2-14.3-14.3c-3.5-6.1-5.3-13-5.3-20.7c0-7.7,1.8-14.5,5.3-20.6c3.5-6.1,8.3-10.8,14.3-14.3c6-3.4,12.7-5.1,20-5.1
	c7.4,0,14.1,1.7,20.1,5.1c6,3.4,10.7,8.2,14.2,14.3c3.5,6.1,5.2,13,5.2,20.6c0,7.7-1.8,14.6-5.3,20.7
	C253.2,273.8,248.5,278.5,242.5,282z M257.6,327.3c2.1-3.7,4-7.6,5.9-11.7c1.1-2.5,2.2-5,3.3-7.6h21.8
	C279.2,315.7,268.7,322.2,257.6,327.3z M342,286.3h-18.9l-31.6-48v48h-18.9v-78.2h18.9l31.6,48.4v-48.4H342V286.3z M222.5,224.5
	c-6.2,0-11.1,2-14.8,6c-3.6,4-5.5,9.5-5.5,16.4c0,6.9,1.8,12.3,5.5,16.4c3.6,4.1,8.6,6.1,14.8,6.1c6.1,0,11-2,14.7-6.1
	c3.7-4.1,5.5-9.5,5.5-16.4s-1.8-12.3-5.5-16.4C233.6,226.5,228.7,224.5,222.5,224.5z"/>
</svg>
