<?xml version="1.0" encoding="utf-8"?>
<!-- Generator: Adobe Illustrator 27.8.0, SVG Export Plug-In . SVG Version: 6.00 Build 0)  -->
<svg version="1.1" id="Layer_1" xmlns="http://www.w3.org/2000/svg" xmlns:xlink="http://www.w3.org/1999/xlink" x="0px" y="0px"
	 viewBox="0 0 400 400" style="enable-background:new 0 0 400 400; fill:#CA5D27" xml:space="preserve" title="External Link">
<g>
	<g>
		<path d="M229.9,307.8h32.9c7.8,0,14.1-6.3,14.1-14.1v-23.6c0-7.8-6.3-14.1-14.1-14.1h-32.9c-7.8,0-14.1,6.3-14.1,14.1v23.6
			C215.8,301.5,222.1,307.8,229.9,307.8z"/>
		<path d="M229.9,231.7h32.9c7.8,0,14.1-6.3,14.1-14.1v-23.6c0-7.8-6.3-14.1-14.1-14.1h-32.9c-7.8,0-14.1,6.3-14.1,14.1v23.6
			C215.8,225.4,222.1,231.7,229.9,231.7z"/>
		<path d="M321.9,307.8h32.9c7.8,0,14.1-6.3,14.1-14.1v-23.6c0-7.8-6.3-14.1-14.1-14.1h-32.9c-7.8,0-14.1,6.3-14.1,14.1v23.6
			C307.8,301.5,314.1,307.8,321.9,307.8z"/>
		<path d="M321.9,383.9h32.9c7.8,0,14.1-6.3,14.1-14.1v-23.6c0-7.8-6.3-14.1-14.1-14.1h-32.9c-7.8,0-14.1,6.3-14.1,14.1v23.6
			C307.8,377.6,314.1,383.9,321.9,383.9z"/>
		<path d="M229.9,383.9h32.9c7.8,0,14.1-6.3,14.1-14.1v-23.6c0-7.8-6.3-14.1-14.1-14.1h-32.9c-7.8,0-14.1,6.3-14.1,14.1v23.6
			C215.8,377.6,222.1,383.9,229.9,383.9z"/>
		<path d="M321.9,231.7h32.9c7.8,0,14.1-6.3,14.1-14.1v-23.6c0-7.8-6.3-14.1-14.1-14.1h-32.9c-7.8,0-14.1,6.3-14.1,14.1v23.6
			C307.8,225.4,314.1,231.7,321.9,231.7z"/>
		<path d="M45.9,307.8h32.9c7.8,0,14.1-6.3,14.1-14.1v-23.6c0-7.8-6.3-14.1-14.1-14.1H45.9c-7.8,0-14.1,6.3-14.1,14.1v23.6
			C31.8,301.5,38.1,307.8,45.9,307.8z"/>
		<path d="M45.9,383.9h32.9c7.8,0,14.1-6.3,14.1-14.1v-23.6c0-7.8-6.3-14.1-14.1-14.1H45.9c-7.8,0-14.1,6.3-14.1,14.1v23.6
			C31.8,377.6,38.1,383.9,45.9,383.9z"/>
		<path d="M137.9,383.9h32.9c7.8,0,14.1-6.3,14.1-14.1v-23.6c0-7.8-6.3-14.1-14.1-14.1h-32.9c-7.8,0-14.1,6.3-14.1,14.1v23.6
			C123.8,377.6,130.1,383.9,137.9,383.9z"/>
		<path d="M137.9,231.7h32.9c7.8,0,14.1-6.3,14.1-14.1v-23.6c0-7.8-6.3-14.1-14.1-14.1h-32.9c-7.8,0-14.1,6.3-14.1,14.1v23.6
			C123.8,225.4,130.1,231.7,137.9,231.7z"/>
		<path d="M137.9,307.8h32.9c7.8,0,14.1-6.3,14.1-14.1v-23.6c0-7.8-6.3-14.1-14.1-14.1h-32.9c-7.8,0-14.1,6.3-14.1,14.1v23.6
			C123.8,301.5,130.1,307.8,137.9,307.8z"/>
	</g>
	<path d="M83,98.1H71.6c-3.2,0-5.8-2.6-5.8-5.8V22.1c0-3.2,2.6-5.8,5.8-5.8H83c3.2,0,5.8,2.6,5.8,5.8v70.2
		C88.9,95.5,86.3,98.1,83,98.1z"/>
	<path d="M329.1,98.1h-11.4c-3.2,0-5.8-2.6-5.8-5.8V22.1c0-3.2,2.6-5.8,5.8-5.8h11.4c3.2,0,5.8,2.6,5.8,5.8v70.2
		C334.9,95.5,332.3,98.1,329.1,98.1z"/>
	<path d="M368.7,57.2h-16.9v29.4c0,15.7-12.8,28.4-28.4,28.4c-15.7,0-28.4-12.8-28.4-28.4V57.2H105.8v29.4
		c0,15.7-12.8,28.4-28.4,28.4s-28.4-12.8-28.4-28.4V57.2H31.9c-14.2,0-25.8,11.5-25.8,25.8v25.7c0,14.2,11.5,25.8,25.8,25.8h336.8
		c14.2,0,25.8-11.5,25.8-25.8V82.9C394.5,68.7,383,57.2,368.7,57.2z"/>
</g>
</svg>
