<?xml version="1.0" encoding="utf-8"?>
<!-- Generator: Adobe Illustrator 27.8.0, SVG Export Plug-In . SVG Version: 6.00 Build 0)  -->
<svg version="1.1" id="Layer_1" xmlns="http://www.w3.org/2000/svg" xmlns:xlink="http://www.w3.org/1999/xlink" x="0px" y="0px"
	 viewBox="0 0 250 250" style="enable-background:new 0 0 250 250; fill:#22A285" xml:space="preserve">
<g>
	<g>
		<path d="M72.5,167.8c0,4.6,3.7,8.3,8.3,8.3h109.3c3.7,0,6.7,3,6.7,6.7c0,3.7-3,6.8-6.7,6.8H80.8c-12,0-21.8-9.8-21.8-21.8
			c0-9.1,5.5-16.8,13.4-20.1L46.6,54h-32c-3.7,0-6.8-3-6.8-6.8c0-3.7,3-6.7,6.8-6.7h42.3l6.9,25.2c26.7,0,48.6-0.1,66.5-0.1
			c-0.6,3.5-1,7.2-1,10.9c0,33.7,27.4,61.1,61.1,61.1c2.7,0,5.4-0.2,8.1-0.5c-3.5,10.3-6,17.8-6.1,17.9l-1.6,4.6H80.8
			C76.2,159.5,72.5,163.2,72.5,167.8z"/>
		<ellipse transform="matrix(0.9732 -0.2298 0.2298 0.9732 -45.2492 28.4313)" cx="99.5" cy="208.5" rx="16.6" ry="16.6"/>
		<ellipse transform="matrix(0.9732 -0.2298 0.2298 0.9732 -43.5338 43.164)" cx="163.6" cy="208.5" rx="16.6" ry="16.6"/>
	</g>
	<path d="M190.5,24.8c-24.8,0-45.5,17.5-50.5,40.7c-0.8,3.5-1.2,7.2-1.2,10.9c0,28.5,23.1,51.6,51.6,51.6c4,0,7.8-0.4,11.5-1.3
		c23-5.2,40.1-25.8,40.1-50.3C242.1,47.9,219,24.8,190.5,24.8z M180.4,115l-24.8-33.9l22.8,11.6l28-30.8h0l16.4-18l-10.7,18.1h0
		L180.4,115z"/>
</g>
</svg>
