<?xml version="1.0" encoding="UTF-8"?>
<svg id="Layer_1" xmlns="http://www.w3.org/2000/svg" viewBox="0 0 300 300" width="105" height="105"><defs>
<style>.cls-1{fill:#808080;fill-rule:evenodd;stroke-width:0px;}</style></defs>
<path class="cls-1" d="m59.2,122.5l56.8,32.6c.4.4.8.4,1.2.4,1.2.4,2.5.4,3.3,0,.4,0,.8-.4,1.2-.4l.4-.4,56.8-32.6v59.4c-.4,1.2-.8,2.5-1.7,3.3-.4.4-.8.8-1.2.8l-53.5,31c-.4.4-.8.4-1.7.8-1.2.4-2.5.4-3.7,0-.4,0-.8-.4-1.7-.8l-53.5-31c-.4-.4-.8-.4-1.2-.8-.8-.8-1.7-2.1-1.7-3.3v-59h0Zm6.6-11.6l50.2-28.9c.4-.4.8-.4,1.7-.8.4,0,1.2-.4,1.7-.4h.4c.4,0,1.2,0,1.7.4.4,0,.8.4,1.7.8l50.2,28.9-53.5,30.9-53.9-30.9h0Z"/><path class="cls-1" d="m229.8,253.4H35.3c-.4,0-.8,0-1.2-.4-2.1-.8-3.7-2.1-4.1-4.1,0-.4-.4-.8-.4-1.2V52.4c0-.4,0-.8.4-1.2.8-2.1,2.1-3.7,4.1-4.1.4,0,.8-.4,1.2-.4h196.2c.4,0,.8.4,1.2.4,1.7.8,2.9,2.1,3.7,4.1,0,.4.4.8.4,1.2v63.6c-.4,1.2-.8,2.5-2.1,3.7-.4.4-1.2.8-1.7,1.2-.8.4-1.2.4-2.1.4h-2.1c-1.7-.4-3.3-1.7-4.5-3.3-.4-.8-.8-1.7-.8-2.5v-55.7H42.7v180.4h188c.4,0,.8,0,1.2.4,1.2.4,2.1.8,2.9,2.1.4.4.8,1.2,1.2,1.7.8,1.7.8,3.7,0,5.4-.4.8-.8,1.2-1.2,1.7-.4.4-.8.8-1.7,1.2-.8.4-1.7.8-2.5.8h-.8Zm18.6-79.3l-22.7-22.7-.4-.4q-.4-.4-.4-.8c-.4-.4-.8-1.2-.8-2.1s-.4-1.2-.4-2.1c0-2.1,1.2-4.1,2.9-5.4.8-.4,1.7-.8,2.5-.8h1.7c.4,0,.8,0,1.2.4.8.4,1.7.4,2.1,1.2q.4.4.8.4l33.9,33.9c.4.4.8,1.2,1.2,1.7.8,1.7.8,3.7,0,5.8-.4.8-.8,1.2-1.2,2.1l-33.9,33.9q-.4.4-.8.4c-.4.4-1.2.8-1.7.8-.8.4-1.7.4-2.5.4s-1.2,0-2.1-.4c-2.1-.8-3.7-2.9-4.1-5v-2.1c0-.8.4-2.1,1.2-2.9.4-.4.4-.8.8-.8l22.7-22.7h-54.5c-.8,0-1.7-.4-2.5-.8-.8-.4-1.2-.8-1.7-1.7-.4-.4-.8-1.2-.8-1.7-.8-2.1-.4-4.5,1.2-6.2.4-.8,1.2-1.2,2.1-1.7.8-.4,1.7-.4,2.1-.8h.8c17.8,0,35.5-.4,53.3,0h0Z"/></svg>