<?xml version="1.0" encoding="utf-8"?>
<!-- Generator: Adobe Illustrator 27.8.0, SVG Export Plug-In . SVG Version: 6.00 Build 0)  -->
<svg version="1.1" id="Ebene_1" xmlns="http://www.w3.org/2000/svg" xmlns:xlink="http://www.w3.org/1999/xlink" x="0px" y="0px"
	 width="140px" height="141px" viewBox="0 0 140 141" style="enable-background:new 0 0 140 141;" xml:space="preserve">
<style type="text/css">
	.st0{fill:#334D6E;}
	.st1{fill:#606060;}
</style>
<path class="st0" d="M365.3,125.1L365.3,125.1L365.3,125.1z"/>
<polygon class="st0" points="365.3,99.1 364.9,98.7 365.3,98.3 "/>
<g>
	<path d="M24,140.9L24,140.9l-13.7-0.1c-2.7,0-5.3-1.1-7.2-3s-3-4.5-3-7.2v-12.8c0-4.6,1.8-8.9,5.1-12.2l41.7-42.1
		c-1.7-5-2.6-10.2-2.6-15.5c0-26.3,21.4-47.8,47.8-47.8c26.3,0,47.8,21.4,47.8,47.8c0,26.3-21.4,47.8-47.8,47.8
		c-5.2,0-10.3-0.8-15.1-2.4l-11.8,12.2c-2.5,2.8-6.1,4.4-9.9,4.4h-3.6v5.3c0,3.7-3,6.7-6.7,6.7h-5.2v4c0,3.4-1.3,6.7-3.7,9.2
		l-1.2,1.3C31.9,139.3,28,140.9,24,140.9z M92.1,10.3c-20.8,0-37.8,16.9-37.8,37.8c0,5.1,1,10.1,3,14.7l1.3,3.1l-46.4,46.8
		c-1.4,1.4-2.1,3.2-2.1,5.1v12.8c0,0,0,0.1,0.1,0.1c0.1,0.1,0.1,0.1,0.1,0.1l13.7,0.1l0,0c1.3,0,2.7-0.5,3.6-1.5l1.1-1.1
		c0.6-0.6,0.9-1.5,0.9-2.3v-7.2c0-3.7,3-6.7,6.7-6.7h5.2v-5.2c0-3.7,3-6.7,6.7-6.7H55c1,0,1.9-0.4,2.5-1.1l0.2-0.2l16.6-17.1
		l3.1,1.3C82,85,86.9,86,91.9,86c20.8,0,37.8-16.9,37.8-37.8S112.9,10.3,92.1,10.3z M39.7,118.7L39.7,118.7L39.7,118.7z M41.6,115.2
		L41.6,115.2L41.6,115.2z M51.7,106.8L51.7,106.8L51.7,106.8z"/>
</g>
<path class="st0" d="M332.6,125.1L332.6,125.1L332.6,125.1z"/>
<polygon class="st1" points="365.3,98.3 365.3,99.1 364.9,98.7 "/>
<g>
	<path d="M96.4,56.4c-8.9,0-16.2-7.3-16.2-16.2S87.5,24,96.4,24s16.2,7.3,16.2,16.2S105.3,56.4,96.4,56.4z M96.4,34.1
		c-3.4,0-6.2,2.8-6.2,6.2s2.8,6.2,6.2,6.2c3.4,0,6.2-2.8,6.2-6.2S99.8,34.1,96.4,34.1z"/>
</g>
</svg>
