<?xml version="1.0" encoding="utf-8"?>
<!-- Generator: Adobe Illustrator 27.8.0, SVG Export Plug-In . SVG Version: 6.00 Build 0)  -->
<svg version="1.1" id="Layer_1" xmlns="http://www.w3.org/2000/svg" xmlns:xlink="http://www.w3.org/1999/xlink" x="0px" y="0px"
	 width="140px" height="141px" viewBox="0 0 140 141" style="enable-background:new 0 0 140 141;" xml:space="preserve">
<g>
	<path d="M1.9,90.6L7,80.9c2.9,1.7,5.4,2.9,7.5,3.5c2.2,0.6,4.4,0.9,6.8,0.9c3.1,0,5.4-0.6,6.9-1.8c1.5-1.2,2.3-2.9,2.3-5
		c0-2-0.6-3.5-1.8-4.6c-1.2-1.1-3.4-2-6.7-2.8c-6.3-1.5-10.9-3.6-13.8-6.2c-2.9-2.7-4.3-6.4-4.3-11.2c0-4.8,1.9-8.9,5.6-12.3
		c3.7-3.4,8.9-5,15.6-5c2.8,0,5.5,0.3,8.2,1c2.7,0.6,5.3,1.6,7.8,2.8l-4.7,9.8c-2.2-1.2-4.3-2.1-6.2-2.7c-2-0.5-3.8-0.8-5.5-0.8
		c-2.6,0-4.7,0.5-6.2,1.6c-1.5,1.1-2.2,2.6-2.2,4.5c0,1.8,0.7,3.2,2,4.1c1.3,1,3.8,1.9,7.2,2.7c6.1,1.4,10.6,3.5,13.3,6.3
		c2.7,2.8,4.1,6.7,4.1,11.7c0,5.4-1.9,9.7-5.7,13.1c-3.8,3.3-9.2,5-16.4,5c-3.2,0-6.5-0.4-9.9-1.3C7.6,93.3,4.6,92.1,1.9,90.6z"/>
	<path d="M72.3,95.5c-8.2,0-14.9-2.7-20-8c-5.1-5.4-7.7-12.3-7.7-20.8c0-9,2.6-16.3,7.8-21.9c5.2-5.6,12.1-8.4,20.9-8.4
		c8.1,0,14.7,2.7,19.7,8c5,5.3,7.6,12.4,7.6,21.2c0,4.8-0.7,9.3-2.1,13.2c-1.4,4-3.5,7.2-6.4,9.7l8.9,8l-9.4,8.3l-9.7-10.4
		c-1.3,0.3-2.8,0.6-4.6,0.8C75.4,95.4,73.8,95.5,72.3,95.5z M72.8,47.1c-4.6,0-8.3,1.7-11.1,5.2c-2.7,3.4-4.1,8-4.1,13.7
		c0,5.7,1.4,10.3,4.1,13.7c2.7,3.4,6.3,5,10.7,5c4.6,0,8.2-1.6,10.9-4.9c2.7-3.3,4-7.8,4-13.5c0-6-1.3-10.7-3.9-14.1
		C80.9,48.7,77.4,47.1,72.8,47.1z"/>
	<path d="M138.1,94.5h-33.8V37.2h12.5v47.1h21.3V94.5z"/>
</g>
</svg>
