<?xml version="1.0" encoding="utf-8"?>
<!-- Generator: Adobe Illustrator 27.8.0, SVG Export Plug-In . SVG Version: 6.00 Build 0)  -->
<svg version="1.1" id="Layer_1" xmlns="http://www.w3.org/2000/svg" xmlns:xlink="http://www.w3.org/1999/xlink" x="0px" y="0px"
	 viewBox="0 0 400 400" style="enable-background:new 0 0 400 400; fill:#ED1A33" xml:space="preserve" title="External Link">
<g>
	<path d="M237.4,264.2l30.6-28.5L391.9,21c1.3-2.2,0.5-5-1.7-6.2L369.7,3.3c-2.2-1.2-5-0.4-6.2,1.8L244.2,222L237.4,264.2z"/>
	<path d="M278.7,248.4L217,298.5l10.4-78.8L327.7,40.5H41c-14.2,0-25.6,11.5-25.6,25.6v244.7c0,14.2,11.5,25.6,25.6,25.6h127.4
		c5.1,0,9.9,2,13.5,5.6l89,51.6c5.1,5.1,13.9,1.5,13.9-5.8l1.6-39.9c0-6.3,5.1-11.5,11.5-11.5h35c14.2,0,25.6-11.5,25.6-25.6V105.7
		L278.7,248.4z M129.1,103.1c0-4.8,3.9-8.7,8.7-8.7h82.8c4.8,0,8.7,3.9,8.7,8.7v2.7c0,4.8-3.9,8.7-8.7,8.7h-82.8
		c-4.8,0-8.7-3.9-8.7-8.7V103.1z M73.1,78.3c14.4,0,26.2,11.7,26.2,26.2s-11.7,26.2-26.2,26.2c-14.4,0-26.2-11.7-26.2-26.2
		S58.6,78.3,73.1,78.3z M46.9,168c0-4.8,3.9-8.7,8.7-8.7h165c4.8,0,8.7,3.9,8.7,8.7v2.7c0,4.8-3.9,8.7-8.7,8.7h-165
		c-4.8,0-8.7-3.9-8.7-8.7V168z M190.7,276c0,4.8-3.9,8.7-8.7,8.7H55.7c-4.8,0-8.7-3.9-8.7-8.7v-2.7c0-4.8,3.9-8.7,8.7-8.7h126.3
		c4.8,0,8.7,3.9,8.7,8.7V276z M211.2,223.4c0,4.8-3.9,8.7-8.7,8.7H55.7c-4.8,0-8.7-3.9-8.7-8.7v-2.7c0-4.8,3.9-8.7,8.7-8.7h146.8
		c4.8,0,8.7,3.9,8.7,8.7V223.4z"/>
</g>
</svg>
