<?xml version="1.0" encoding="utf-8"?>
<!-- Generator: Adobe Illustrator 27.8.0, SVG Export Plug-In . SVG Version: 6.00 Build 0)  -->
<svg version="1.1" id="Layer_1" xmlns="http://www.w3.org/2000/svg" xmlns:xlink="http://www.w3.org/1999/xlink" x="0px" y="0px"
	 viewBox="0 0 250 250" style="enable-background:new 0 0 250 250; fill:#22A285" xml:space="preserve">
<g>
	<path d="M245.1,166.7c0,29.4-53.8,53.3-120.1,53.3C58.6,220,4.9,196.1,4.9,166.7c0-12.2,9.2-23.4,24.6-32.3v5.2
		c0,4.7,1,9.2,2.8,13.4c-4.3,4.3-6.6,8.9-6.6,13.8c0,21.1,44.5,38.2,99.3,38.2c54.9,0,99.3-17.1,99.3-38.2c0-4.3-1.9-8.5-5.3-12.4
		c2.3-4.5,3.5-9.5,3.5-14.7v-4C236.7,144.3,245.1,155.1,245.1,166.7z"/>
	<path d="M216.4,118v21.6c0,3.8-0.7,7.3-2.1,10.4c-5.7,13.6-22.6,20.6-39.9,21c0.3-1.7,0.4-3.5,0.4-5.3v-21.6
		c0-3.7-0.4-7.3-1.2-10.7c-1.3-6-3.7-11.7-7-16.6c-2.3-3.5-5.1-6.8-8.3-9.6c1.5-2.6,2.7-5.4,3.5-8.4c3.4,1,7,1.5,10.8,1.5
		c12,0,22.8-5.6,29.8-14.3C211.1,94,216.4,105.4,216.4,118z"/>
	<path d="M204.7,62c0,5.5-1.4,10.6-3.8,15.1c-0.9,1.8-2.1,3.5-3.3,5c-5.9,7.3-14.8,11.9-24.9,11.9c-3.3,0-6.5-0.5-9.5-1.4
		c0.2-1.4,0.3-2.9,0.3-4.4c0-4.3-0.7-8.5-2-12.4c-0.7-1.9-1.5-3.8-2.4-5.6c-3.8-7.2-9.8-13-17.2-16.5C145.5,40,157.9,30,172.7,30
		C190.4,30,204.7,44.3,204.7,62z"/>
	<path d="M91.9,107.1c-3.1,2.8-5.9,6-8.2,9.5c-3.3,5-5.7,10.6-7.1,16.6c-0.8,3.5-1.2,7.1-1.2,10.8v21.6c0,1.8,0.1,3.5,0.4,5.3
		c-17.2-0.9-33.6-8.2-38.7-22.1c-1-2.8-1.6-5.9-1.6-9.3V118c0-12.6,5.3-24,13.9-32c7,8.7,17.8,14.3,29.8,14.3c3.2,0,6.3-0.4,9.2-1.1
		C89.3,102,90.5,104.6,91.9,107.1z"/>
	<path d="M109.9,53c-7.8,3.4-14.3,9.3-18.4,16.8c-1,1.8-1.8,3.7-2.5,5.6c-1.4,4-2.2,8.3-2.2,12.8c0,1.7,0.1,3.3,0.3,4.9
		c-2.5,0.6-5.2,1-7.9,1c-10.1,0-19.1-4.7-24.9-11.9c-1.3-1.6-2.4-3.2-3.3-5c-2.4-4.5-3.8-9.6-3.8-15.1c0-17.7,14.3-32,32-32
		C93.8,30,106.1,39.7,109.9,53z"/>
	<path d="M168.9,144.1v21.6c0,1.8-0.2,3.6-0.5,5.2c-0.4,2.1-1,4.1-1.9,5.9c-12.4,27.1-70.1,27.1-82.7,0.1c-0.9-1.8-1.5-3.8-1.9-5.9
		c-0.3-1.7-0.5-3.5-0.5-5.3v-21.6c0-4.2,0.6-8.2,1.7-12.1c1.8-6.2,4.9-11.8,9-16.6c1-1.2,2.1-2.3,3.2-3.3c0.8,0.9,1.6,1.8,2.4,2.7
		c6.5,6.7,15.3,11,25.2,11.5c0.7,0,1.5,0.1,2.2,0.1c1.3,0,2.6-0.1,3.8-0.2c9.2-0.9,17.4-5.1,23.5-11.4c0.8-0.9,1.7-1.8,2.4-2.7
		c1.2,1.1,2.2,2.2,3.3,3.4c4.1,4.7,7.2,10.4,9,16.6C168.3,135.9,168.9,139.9,168.9,144.1z"/>
	<path d="M157.1,88.1c0,0.6,0,1.2-0.1,1.8c-0.1,2.3-0.5,4.5-1.1,6.6c-0.6,2.4-1.5,4.6-2.6,6.7c-1,1.8-2.1,3.5-3.3,5
		c-1.8,2.2-3.9,4.2-6.3,5.9c-4.3,3.1-9.3,5.1-14.8,5.8c-1.3,0.2-2.5,0.2-3.8,0.2c-0.7,0-1.5,0-2.2-0.1c-6.1-0.4-11.8-2.6-16.5-5.9
		c-2.3-1.7-4.4-3.7-6.2-5.9c-1.3-1.6-2.4-3.2-3.3-5c-1-1.9-1.9-3.9-2.5-6c-0.6-2.1-1-4.2-1.2-6.4c-0.1-0.9-0.1-1.7-0.1-2.6
		c0-3.8,0.7-7.5,1.9-10.9c0.7-1.9,1.6-3.7,2.6-5.5c3.2-5.3,7.9-9.7,13.5-12.4c1.9-0.9,4-1.7,6.1-2.2c2.5-0.6,5.2-1,7.9-1
		c3.3,0,6.5,0.5,9.5,1.4c2.1,0.7,4.2,1.5,6.1,2.6c5.1,2.8,9.3,7.1,12.2,12.1c1,1.7,1.8,3.6,2.5,5.5C156.6,81,157.1,84.5,157.1,88.1z
		"/>
</g>
</svg>
