<?xml version="1.0" encoding="UTF-8"?>
<svg id="Layer_1" xmlns="http://www.w3.org/2000/svg" viewBox="0 0 300 300"><defs>
<style>.cls-1{fill:#808080;fill-rule:evenodd;stroke-width:0px;}</style></defs><path class="cls-1" d="m263.6,253H70.3c-.4,0-.8,0-1.2-.4-2-.8-3.7-2-4.1-4.1,0-.4-.4-.8-.4-1.2v-32.3c0-.8.4-1.6.8-2.5.4-.4.8-1.2,1.2-1.6,1.2-1.2,3.3-2,4.9-1.6.8,0,1.2.4,2,.4.8.4,1.2.8,1.6,1.2,1.2.8,1.6,2,2,3.7v25.4h179.4V60H77.7v24.9c0,.8-.4,1.6-.8,2.5-.4.4-.8,1.2-1.2,1.6-.4.4-1.2.8-1.6,1.2-1.6.8-3.7.8-5.3,0-.8-.4-1.2-.8-1.6-1.2-1.2-.8-1.6-2-2-3.7v-32.7c0-.4,0-.8.4-1.2.8-2,2-3.7,4.1-4.1,0-.4.4-.4.8-.4h194.9c.4,0,.8.4,1.2.4,1.6.8,2.9,2,3.7,4.1,0,.4.4.8.4,1.2v194.2c0,.4,0,.8-.4,1.2-.8,2-2,3.7-4.1,4.1-.4,0-.8.4-1.2.4q-.8.4-1.2.4h0Zm-174.5-110l-22.5-22.5h-.4q-.4-.4-.4-.8c-.4-.4-.8-1.2-.8-2-.4-2,0-4.5,1.2-6.1.4-.4.8-.8,1.6-1.2.8-.4,1.6-.8,2.5-.8h2.5c.8,0,1.6.4,2.5.8.4.4.8.4.8.8l33.9,33.9c.4.4.8,1.2,1.2,1.6.8,1.6.8,3.7,0,5.7-.4.8-.8,1.2-1.2,2l-33.9,33.9c-.4.4-.8.4-.8.8-.8.4-1.6.8-2.9,1.2h-2c-2-.4-4.1-2-4.9-4.1-.4-.8-.4-1.2-.4-2s0-1.6.4-2.5c.4-.8.4-1.2.8-2q0-.4.4-.8l22.5-22.5h-54.3c-.8,0-1.6-.4-2.5-.8-.8-.4-1.2-.8-1.6-1.6-.4-.4-.8-1.2-.8-1.6-.8-2-.4-4.5,1.2-6.1.4-.8,1.2-1.2,2-1.6.8-.4,1.6-.4,2-.8h.8c17.6-.4,35.1-.8,53.1-.8h0Z"/><path class="cls-1" d="m180.4,81.9h2c.4,0,.4.4.8.4l53.2,30.7h0q.4.4.8.4s.4,0,.4.4h0l.4.4c0,.4.4.4.4.8,0,0,.4.4.4.8h0c.4.4.4.8.4,1.2v1.2h0v63c-.4,1.2-.8,2.5-1.6,3.3-.4.4-.8.8-1.2.8l-53.2,30.7c-.4.4-.8.4-1.6.8-1.2.4-2.5.4-3.7,0-.4,0-.8-.4-1.6-.8l-53.2-30.7c-.4-.4-.8-.4-1.2-.8-.8-.8-1.6-2-1.6-3.3v-63h0v-1.2h0c0-.4.4-1.2.8-1.6,0-.4.4-.4.4-.8h0s.4,0,.4-.4q.4-.4.8-.4h0l53.2-30.7q.4-.4.8-.4c.4,0,.8-.4,1.6-.4,1.2-.4,1.6-.4,2-.4h0Zm46.2,48.7l-43.4,25c-.4.4-.8.4-1.2.4-1.2.4-2.5.4-3.7,0-.4,0-.8-.4-1.2-.4l-43.4-25v46.3l46.6,26.6,46.6-27v-45.9h-.4Z"/></svg>