<?xml version="1.0" encoding="UTF-8"?><svg id="Layer_1" xmlns="http://www.w3.org/2000/svg" viewBox="0 0 300 300" width="105" height="105"><defs><style>.cls-1{fill:#808080;fill-rule:evenodd;stroke-width:0px;}</style></defs><path class="cls-1" d="m227.8,250.4H38.5c-.4,0-.8,0-1.2-.4-2-.8-3.7-2-4.1-4.1,0-.4-.4-.8-.4-1.2V55.2c0-.4,0-.8.4-1.2.4-2,2-3.7,4.1-4.1.4,0,.8-.4,1.2-.4h190.9c.4,0,.8.4,1.2.4,1.6.8,2.9,2,3.7,4.1,0,.4.4.8.4,1.2v61.8c-.4,1.2-.8,2.4-2,3.3-.4.4-1.2.8-1.6,1.2-1.6.8-3.7.8-5.3,0-.4-.4-1.2-.8-1.6-1.2-.4-.4-.8-.8-1.2-1.6-.4-.8-.8-1.6-.8-2.4v-53.7H46.7v174.9h183.6c.8,0,1.6.4,2.4,1.2,1.6,1.2,2.4,2.8,2.9,4.5v2c0,.8-.4,1.2-.8,2-.4.4-.8,1.2-1.2,1.6-.8.8-2,1.2-2.9,1.6-2-.4-2.4-.4-2.9,0h0Zm17.9-77.3l-22-22-.4-.4q-.4-.4-.4-.8c-.4-.4-.8-1.2-.8-2s-.4-1.2-.4-2c0-2,1.2-4.1,2.9-5.3.8-.4,1.6-.8,2.4-.8h2.4c.8,0,1.6.4,2,.8.4.4.8.4.8.8l33,32.9c.4.4,1.2,1.2,1.2,2,.8,1.6.8,3.7,0,5.3-.4.4-.8,1.2-1.2,1.6l-33,32.9q-.4.4-.8.4c-.4.4-1.2.8-1.6.8-.8.4-1.6.4-2.4.4s-1.2,0-2-.4c-2-.8-3.7-2.8-4.1-4.9v-2c0-.8.4-2,1.2-2.8.4-.4.4-.8.8-.8l22-22h-52.6c-.8,0-1.6-.4-2-.8-.8-.4-1.6-.8-2-1.6-1.2-1.6-1.6-4.1-1.2-6.1.4-.4.4-1.2.8-1.6.4-.8,1.2-1.2,1.6-1.6.8-.4,1.6-.8,2.4-.8h1.2c17.9,1.2,35.1.4,52.2.8h0Z"/><path class="cls-1" d="m172.8,220.7h-95.2c-.4,0-1.2,0-1.6-.4-2.1-.8-3.3-2-4.1-4.1,0-.4-.4-1.2-.4-1.6v-116.2c0-.4,0-1.2.4-1.6.8-2,2.1-3.3,4.1-4.1.4,0,1.2-.4,1.6-.4h16.4v12.6h-9.4v102.7h81.6v-102.3h-9.4v-12.6h16.8c.4,0,1.2.4,1.6.4,1.6.8,2.9,2,3.7,3.7,0,.4.4,1.2.4,1.6v116.2c0,.4,0,1.2-.4,1.6-.8,2-2.1,3.3-4.1,4.1-.4,0-1.2.4-1.6.4h-.4Zm-31.6-24h-48.8v-6.5h48.8v6.5h0Zm16.4-15.9h-65.6v-6.5h65.6v6.5h0Zm-3.3-16.3h-61.9v-6.5h61.9v6.5h0Zm-5.7-16.3h-56.6v-6.5h56.6v6.5h0Zm9-15.9h-65.6v-6.5h65.6v6.5h0Zm-9.8-17.9h-45.1v-26.1h9.8c.4-6.9,5.7-12.6,12.7-12.6s12.7,5.7,12.7,12.6h9.8v26.1h0Zm-22.6-31c2.9,0,5.3,2.4,5.3,5.3s-2.5,5.3-5.3,5.3-5.3-2.4-5.3-5.3,2.5-5.3,5.3-5.3h0Z"/></svg>