<?xml version="1.0" encoding="utf-8"?>
<!-- Generator: Adobe Illustrator 27.8.0, SVG Export Plug-In . SVG Version: 6.00 Build 0)  -->
<svg version="1.1" id="Layer_1" xmlns="http://www.w3.org/2000/svg" xmlns:xlink="http://www.w3.org/1999/xlink" x="0px" y="0px"
	 viewBox="0 0 250 250" style="enable-background:new 0 0 250 250; fill:#22A285" xml:space="preserve">
<g>
	<path d="M80,157.8c-21.5-21.5-21.5-56.3,0-77.7c21.5-21.5,56.3-21.5,77.7,0c14.7,14.7,19.3,35.7,13.9,54.4l18.7,18.7
		c2-4.1,3.6-8.4,4.8-12.7l18.8-1.9c2,0,3.6-1.6,3.6-3.6V103c0-2-1.6-3.6-3.6-3.6l-18.8-1.9c-1.7-5.9-4.1-11.7-7.1-17.2l11.9-14.7
		c1.4-1.4,1.4-3.7,0-5.1l-22.5-22.5c-1.4-1.4-3.7-1.4-5.1,0l-14.7,11.9c-5.5-3.1-11.3-5.5-17.2-7.1l-1.9-18.8c0-2-1.6-3.6-3.6-3.6
		l-31.8,0c-2,0-3.6,1.6-3.6,3.6l-1.9,18.8c-5.9,1.7-11.7,4.1-17.2,7.1L65.5,37.9c-1.4-1.4-3.7-1.4-5.1,0L37.9,60.4
		c-1.4,1.4-1.4,3.7,0,5.1l11.9,14.7c-3.1,5.5-5.5,11.3-7.1,17.2l-18.8,1.9c-2,0-3.6,1.6-3.6,3.6v31.8c0,2,1.6,3.6,3.6,3.6l18.8,1.9
		c1.7,5.9,4.1,11.7,7.1,17.2l-11.9,14.7c-1.4,1.4-1.4,3.7,0,5.1l22.5,22.5c1.4,1.4,3.7,1.4,5.1,0L80.2,188
		c5.5,3.1,11.3,5.5,17.2,7.1l1.9,18.8c0,2,1.6,3.6,3.6,3.6l31.8,0c2,0,3.6-1.6,3.6-3.6l1.9-18.8c4.3-1.2,8.6-2.8,12.7-4.8
		l-18.7-18.7C115.7,177.1,94.7,172.5,80,157.8z"/>
	<path d="M227.4,200.6l-64.7-64.7c6.5-16.8,3-36.6-10.6-50.2c-14-14-34.6-17.3-51.7-10l30.8,30.8l4.5,16.9l-12.4,12.4l-16.9-4.5l0,0
		l-30.8-30.8c-7.3,17.1-4,37.7,10,51.7c13.6,13.6,33.4,17.1,50.2,10.6l64.7,64.7c3.1,3.1,8.2,3.1,11.3,0l15.5-15.5
		C230.6,208.8,230.6,203.7,227.4,200.6z"/>
</g>
</svg>
