<svg width="48" height="48" xmlns="http://www.w3.org/2000/svg" xmlns:xlink="http://www.w3.org/1999/xlink" xml:space="preserve" overflow="hidden"><g transform="translate(-248 -120)"><path d="M261.395 147.255C260.422 148.028 259.007 147.865 258.234 146.892 257.461 145.919 257.623 144.504 258.596 143.731 259.042 143.377 259.605 143.205 260.172 143.25 260.842 143.325 261.445 143.69 261.823 144.247 262.203 144.739 262.341 145.376 262.198 145.98L265.25 147.9 265.25 141.75C265.25 140.922 264.578 140.25 263.75 140.25L256.25 140.25C255.422 140.25 254.75 140.922 254.75 141.75L254.75 159.75C254.75 160.578 255.422 161.25 256.25 161.25L263.75 161.25C264.578 161.25 265.25 160.578 265.25 159.75L265.25 149.663Z" fill="#3B3B3C"/><path d="M270.605 151.245C271.001 150.927 271.492 150.753 272 150.75 272.29 150.75 272.578 150.806 272.848 150.915L277.25 145.965 277.25 134.25C277.25 133.422 276.578 132.75 275.75 132.75L268.25 132.75C267.422 132.75 266.75 133.422 266.75 134.25L266.75 148.837Z" fill="#3B3B3C"/><path d="M273.965 151.92C274.243 152.412 274.321 152.992 274.182 153.54 273.96 154.431 273.229 155.103 272.323 155.25 271.093 155.428 269.951 154.576 269.773 153.346 269.757 153.231 269.749 153.116 269.75 153 269.752 152.836 269.77 152.673 269.802 152.512L266.75 150.6 266.75 159.75C266.75 160.578 267.422 161.25 268.25 161.25L275.75 161.25C276.578 161.25 277.25 160.578 277.25 159.75L277.25 148.223Z" fill="#3B3B3C"/><path d="M287.75 126.75 280.25 126.75C279.422 126.75 278.75 127.422 278.75 128.25L278.75 144.277 282.035 140.58C281.755 140.083 281.68 139.497 281.825 138.945 282.129 137.74 283.352 137.009 284.557 137.313 285.762 137.617 286.492 138.84 286.189 140.045 285.984 140.856 285.346 141.487 284.533 141.682 284.074 141.796 283.591 141.762 283.152 141.585L278.75 146.535 278.75 159.75C278.75 160.578 279.422 161.25 280.25 161.25L287.75 161.25C288.578 161.25 289.25 160.578 289.25 159.75L289.25 128.25C289.25 127.422 288.578 126.75 287.75 126.75Z" fill="#3B3B3C"/></g></svg>