<?xml version="1.0" encoding="utf-8"?>
<!-- Generator: Adobe Illustrator 27.8.0, SVG Export Plug-In . SVG Version: 6.00 Build 0)  -->
<svg version="1.1" id="Layer_1" xmlns="http://www.w3.org/2000/svg" xmlns:xlink="http://www.w3.org/1999/xlink" x="0px" y="0px"
	 width="140px" height="140px" viewBox="0 0 140 140" style="enable-background:new 0 0 140 140;" xml:space="preserve">
<g transform="matrix(10,0,0,10,0,0)">
	<path fill="#8C979A" d="M7.4,14H6.6c-0.6,0-1.2-0.4-1.4-1l-0.4-1l-1.1-0.7l-1,0.2c-0.6,0.1-1.2-0.2-1.5-0.7l-0.4-0.7C0.4,9.6,0.5,9,0.9,8.5
		l0.6-0.8V6.3L0.9,5.5C0.5,5.1,0.4,4.4,0.7,3.8l0.4-0.7C1.5,2.6,2,2.3,2.7,2.4l1,0.2l1.1-0.7l0.4-1C5.4,0.4,6,0,6.6,0h0.8
		C8,0,8.6,0.4,8.8,1l0.4,1l1.1,0.7l1-0.2c0.6-0.1,1.2,0.2,1.5,0.7l0.4,0.7c0.3,0.5,0.3,1.2-0.1,1.7l-0.6,0.8v1.3l0.6,0.8
		c0.4,0.5,0.4,1.1,0.1,1.7l-0.4,0.7c-0.3,0.5-0.9,0.8-1.5,0.7l-1-0.2l-1.1,0.7l-0.4,1C8.6,13.6,8,14,7.4,14z M3.8,10.4
		c0.1,0,0.2,0,0.3,0.1l1.5,0.8c0.1,0.1,0.2,0.1,0.2,0.3l0.4,1.1C6.2,12.9,6.4,13,6.6,13h0.8c0.2,0,0.4-0.1,0.5-0.3l0.4-1.1
		c0-0.1,0.1-0.2,0.2-0.3l1.4-0.8c0.1-0.1,0.2-0.1,0.3-0.1l1.2,0.2c0.2,0,0.4-0.1,0.5-0.2l0.4-0.7c0.1-0.2,0.1-0.4,0-0.6l-0.7-0.9
		c-0.1-0.1-0.1-0.2-0.1-0.3V6.2c0-0.1,0-0.2,0.1-0.3l0.7-0.9c0.1-0.2,0.1-0.4,0-0.6L12,3.6c-0.1-0.2-0.3-0.3-0.5-0.2l-1.2,0.2
		c-0.1,0-0.2,0-0.3-0.1L8.5,2.7C8.4,2.6,8.4,2.5,8.3,2.4L7.9,1.3C7.8,1.1,7.6,1,7.4,1H6.6C6.4,1,6.2,1.1,6.1,1.3L5.7,2.4
		c0,0.1-0.1,0.2-0.2,0.3L4,3.5C3.9,3.6,3.8,3.6,3.7,3.6L2.5,3.4C2.3,3.4,2.1,3.5,2,3.6L1.6,4.4c-0.1,0.2-0.1,0.4,0,0.6l0.7,0.9
		C2.5,5.9,2.5,6,2.5,6.2v1.7c0,0.1,0,0.2-0.1,0.3L1.6,9.1c-0.1,0.2-0.1,0.4,0,0.6L2,10.3c0.1,0.2,0.3,0.3,0.5,0.2L3.8,10.4
		C3.7,10.4,3.8,10.4,3.8,10.4z M5.2,2.3L5.2,2.3L5.2,2.3z M7,9.5C5.6,9.5,4.5,8.4,4.5,7S5.6,4.5,7,4.5S9.5,5.6,9.5,7S8.4,9.5,7,9.5z
		 M7,5.5C6.2,5.5,5.5,6.2,5.5,7c0,0.8,0.7,1.5,1.5,1.5c0.8,0,1.5-0.7,1.5-1.5C8.5,6.2,7.8,5.5,7,5.5z"/>
</g>
</svg>
