<?xml version="1.0" encoding="UTF-8"?>
<svg id="Layer_1" xmlns="http://www.w3.org/2000/svg" viewBox="0 0 36 36">
<defs><style>.cls-1,.cls-2{stroke-width:0px; }.cls-2{fill:none;}</style></defs>
<path class="cls-2" d="m14.54,12.09c-.89.73-2.13,1.35-3.74,1.87v3.87c1.09-.33,1.99-.68,2.72-1.04.72-.36,1.47-.84,2.24-1.42v11.32h4.77V9.4h-3.9c-.5,1.07-1.2,1.96-2.09,2.69Z"/>
<path d="m18,0C8.06,0,0,8.06,0,18s8.06,18,18,18,18-8.06,18-18S27.94,0,18,0Zm2.53,26.67h-4.77v-11.32c-.77.59-1.52,1.06-2.24,1.42-.72.36-1.63.71-2.72,1.04v-3.87c1.61-.52,2.85-1.14,3.74-1.87.89-.73,1.58-1.62,2.09-2.69h3.9v17.27Z"/>
</svg>