<?xml version="1.0" encoding="UTF-8"?><svg id="Layer_1" xmlns="http://www.w3.org/2000/svg" viewBox="0 0 36 36"><defs><style>.cls-1,.cls-2{stroke-width:0px;}.cls-2{fill:none;}</style></defs><path class="cls-2" d="m8.66,12.09c-.89.73-2.13,1.35-3.74,1.87v3.87c1.09-.33,1.99-.68,2.72-1.04.72-.36,1.47-.84,2.24-1.42v11.32h4.77V9.4h-3.9c-.5,1.07-1.2,1.96-2.09,2.69Z"/><path class="cls-2" d="m29.22,12.35c-.27-.5-.63-.97-1.09-1.42-.46-.45-1.06-.82-1.8-1.1s-1.67-.42-2.82-.42c-2.38,0-4.15.65-5.31,1.93-1.16,1.29-1.74,3.55-1.74,6.78,0,1.31.11,2.51.34,3.6.23,1.08.55,1.94.96,2.57.56.88,1.29,1.55,2.17,2,.88.46,2.04.68,3.46.68,2.55,0,4.34-.71,5.39-2.14s1.56-3.68,1.56-6.77c0-1.37-.16-2.7-.47-3.96-.16-.66-.38-1.25-.64-1.74Zm-3.82,9.3c-.17.73-.42,1.26-.78,1.59s-.77.5-1.25.5c-.73,0-1.28-.4-1.66-1.19-.38-.79-.57-2.27-.57-4.43s.17-3.6.52-4.4c.35-.79.91-1.19,1.69-1.19s1.34.39,1.72,1.16c.38.78.57,2.29.57,4.55,0,1.54-.08,2.67-.25,3.39Z"/><path class="cls-1" d="m23.36,12.54c-.78,0-1.34.4-1.69,1.19-.35.79-.52,2.26-.52,4.4s.19,3.64.57,4.43c.38.79.94,1.19,1.66,1.19.48,0,.89-.17,1.25-.5s.61-.87.78-1.59c.17-.73.25-1.86.25-3.39,0-2.25-.19-3.77-.57-4.55-.38-.78-.96-1.16-1.72-1.16Z"/><path class="cls-1" d="m18,0C8.06,0,0,8.06,0,18s8.06,18,18,18,18-8.06,18-18S27.94,0,18,0Zm-3.35,26.67h-4.77v-11.32c-.77.59-1.52,1.06-2.24,1.42-.72.36-1.63.71-2.72,1.04v-3.87c1.61-.52,2.85-1.14,3.74-1.87.89-.73,1.58-1.62,2.09-2.69h3.9v17.27Zm14.12-1.85c-1.04,1.43-2.84,2.14-5.39,2.14-1.43,0-2.58-.23-3.46-.68-.88-.46-1.6-1.12-2.17-2-.41-.62-.73-1.48-.96-2.57-.23-1.08-.34-2.28-.34-3.6,0-3.23.58-5.49,1.74-6.78,1.16-1.29,2.93-1.93,5.31-1.93,1.14,0,2.08.14,2.82.42s1.33.65,1.8,1.1c.46.45.83.93,1.09,1.42.27.5.48,1.08.64,1.74.32,1.27.47,2.59.47,3.96,0,3.08-.52,5.34-1.56,6.77Z"/></svg>