<?xml version="1.0" encoding="UTF-8"?><svg id="Layer_1" xmlns="http://www.w3.org/2000/svg" viewBox="0 0 36 36"><defs><style>.cls-1,.cls-2{stroke-width:0px;}.cls-2{fill:none;}</style></defs><path class="cls-2" d="m23.74,21.79c.32-.26.96-.72,1.91-1.38,1.6-1.13,2.7-2.16,3.31-3.1s.91-1.93.91-2.97c0-.97-.26-1.85-.79-2.64s-1.25-1.36-2.18-1.74-2.21-.57-3.88-.57-2.84.2-3.74.6c-.9.4-1.6.97-2.09,1.71-.49.75-.83,1.78-1.02,3.11l4.73.38c.13-.96.39-1.63.77-2s.88-.57,1.48-.57,1.06.18,1.44.55c.38.37.57.81.57,1.33,0,.48-.19.98-.58,1.52-.39.53-1.27,1.31-2.65,2.34-2.26,1.68-3.81,3.13-4.63,4.36-.82,1.23-1.31,2.55-1.48,3.94h14.16v-3.85h-7.37c.43-.42.81-.77,1.13-1.03Z"/><path class="cls-2" d="m7.9,12.09c-.89.73-2.13,1.35-3.74,1.87v3.87c1.09-.33,1.99-.68,2.72-1.04.72-.36,1.47-.84,2.24-1.42v11.32h4.77V9.4h-3.9c-.5,1.07-1.2,1.96-2.09,2.69Z"/><path class="cls-1" d="m18,0C8.06,0,0,8.06,0,18s8.06,18,18,18,18-8.06,18-18S27.94,0,18,0Zm-4.11,26.67h-4.77v-11.32c-.77.59-1.52,1.06-2.24,1.42-.72.36-1.63.71-2.72,1.04v-3.87c1.61-.52,2.85-1.14,3.74-1.87.89-.73,1.58-1.62,2.09-2.69h3.9v17.27Zm16.09,0h-14.16c.16-1.4.65-2.71,1.48-3.94.82-1.23,2.37-2.69,4.63-4.36,1.38-1.03,2.27-1.81,2.65-2.34.39-.53.58-1.04.58-1.52,0-.52-.19-.96-.57-1.33-.38-.37-.86-.55-1.44-.55s-1.09.19-1.48.57-.64,1.05-.77,2l-4.73-.38c.19-1.33.53-2.36,1.02-3.11.49-.75,1.19-1.32,2.09-1.71.9-.4,2.15-.6,3.74-.6s2.95.19,3.88.57,1.65.96,2.18,1.74.79,1.66.79,2.64c0,1.04-.3,2.02-.91,2.97s-1.71,1.98-3.31,3.1c-.95.66-1.59,1.12-1.91,1.38s-.7.61-1.13,1.03h7.37v3.85Z"/></svg>