<?xml version="1.0" encoding="UTF-8"?><svg id="Layer_1" xmlns="http://www.w3.org/2000/svg" viewBox="0 0 36 36"><defs><style>.cls-1,.cls-2{stroke-width:0px;}.cls-2{fill:none;}</style></defs><path class="cls-2" d="m23.42,17.88c-.35-.22-.85-.41-1.51-.57.81-.45,1.42-.97,1.82-1.56.4-.59.6-1.26.6-1.99,0-1.25-.5-2.29-1.48-3.12-.99-.83-2.59-1.24-4.81-1.24-1.93,0-3.42.38-4.48,1.14-1.05.76-1.77,1.85-2.14,3.27l4.46.8c.12-.84.36-1.43.71-1.77.35-.34.8-.5,1.35-.5s.97.15,1.27.46c.31.31.46.72.46,1.24s-.21,1.01-.62,1.4c-.41.39-.93.59-1.55.59-.15,0-.35-.02-.61-.06l-.24,3.37c.65-.19,1.16-.28,1.53-.28.69,0,1.25.22,1.65.65s.61,1.04.61,1.83-.21,1.39-.63,1.85c-.42.46-.95.69-1.58.69s-1.1-.18-1.49-.55c-.39-.37-.68-1.03-.86-1.97l-4.71.62c.31,1.06.75,1.94,1.33,2.64s1.31,1.23,2.2,1.59c.89.36,2.11.54,3.66.54s2.86-.25,3.83-.74,1.72-1.19,2.24-2.1.78-1.86.78-2.84c0-.79-.16-1.47-.47-2.03-.31-.57-.75-1.02-1.32-1.37Z"/><path class="cls-1" d="m18.25,0C8.31,0,.25,8.06.25,18s8.06,18,18,18,18-8.06,18-18S28.19,0,18.25,0Zm6.17,24.13c-.52.91-1.26,1.61-2.24,2.1s-2.25.74-3.83.74-2.76-.18-3.66-.54c-.89-.36-1.63-.89-2.2-1.59s-1.02-1.58-1.33-2.64l4.71-.62c.19.95.47,1.61.86,1.97.39.37.89.55,1.49.55.63,0,1.16-.23,1.58-.69.42-.46.63-1.08.63-1.85s-.2-1.4-.61-1.83-.96-.65-1.65-.65c-.37,0-.88.09-1.53.28l.24-3.37c.26.04.47.06.61.06.62,0,1.13-.2,1.55-.59.41-.39.62-.86.62-1.4s-.16-.93-.46-1.24c-.31-.31-.73-.46-1.27-.46s-1.01.17-1.35.5c-.35.34-.58.93-.71,1.77l-4.46-.8c.37-1.42,1.08-2.51,2.14-3.27,1.05-.76,2.55-1.14,4.48-1.14,2.22,0,3.82.41,4.81,1.24.99.83,1.48,1.86,1.48,3.12,0,.73-.2,1.4-.6,1.99-.4.59-1.01,1.12-1.82,1.56.66.16,1.16.35,1.51.57.56.35,1,.81,1.32,1.37.31.57.47,1.25.47,2.03,0,.99-.26,1.94-.78,2.84Z"/></svg>