<?xml version="1.0" encoding="UTF-8"?><svg id="Layer_1" xmlns="http://www.w3.org/2000/svg" viewBox="0 0 36 36"><defs><style>.cls-1{fill:#ff1d25;}.cls-1,.cls-2{stroke-width:0px;}.cls-2{fill:#fff;}</style></defs><circle class="cls-1" cx="18.25" cy="18" r="18"/><path class="cls-2" d="m13.09,21.28l1.92-.26c.22,1.09.6,1.88,1.13,2.36.53.48,1.18.72,1.94.72.9,0,1.67-.31,2.29-.94.62-.63.93-1.4.93-2.33s-.29-1.61-.87-2.19c-.58-.57-1.31-.86-2.2-.86-.36,0-.82.07-1.36.21l.21-1.69c.13.01.23.02.31.02.82,0,1.56-.21,2.21-.64.66-.43.98-1.09.98-1.98,0-.71-.24-1.29-.71-1.75-.48-.46-1.09-.69-1.85-.69s-1.37.23-1.87.71c-.5.47-.82,1.18-.96,2.12l-1.92-.34c.24-1.29.77-2.29,1.6-3,.83-.71,1.87-1.06,3.11-1.06.86,0,1.64.18,2.36.55.72.37,1.27.87,1.65,1.5s.57,1.31.57,2.02-.18,1.29-.54,1.85-.9,1-1.61,1.33c.93.21,1.65.66,2.16,1.33s.77,1.52.77,2.53c0,1.37-.5,2.53-1.5,3.48s-2.26,1.43-3.78,1.43c-1.38,0-2.52-.41-3.42-1.23s-1.43-1.88-1.56-3.18Z"/></svg>