<?xml version="1.0" encoding="UTF-8"?><svg id="Layer_1" xmlns="http://www.w3.org/2000/svg" viewBox="0 0 36 36"><defs><style>.cls-1,.cls-2{stroke-width:0px;}.cls-2{fill:none;}</style></defs><path class="cls-2" d="m22.28,9.4h-4.11l-8.6,10.22v3.88h8.6v3.17h4.11v-3.17h2.13v-3.66h-2.13v-10.44Zm-4.11,10.44h-4.54l4.54-5.34v5.34Z"/><path class="cls-1" d="m18,0C8.06,0,0,8.06,0,18s8.06,18,18,18,18-8.06,18-18S27.94,0,18,0Zm6.41,23.5h-2.13v3.17h-4.11v-3.17h-8.6v-3.88l8.6-10.22h4.11v10.44h2.13v3.66Z"/><polygon class="cls-1" points="18.17 19.83 18.17 14.49 13.63 19.83 18.17 19.83"/></svg>