<?xml version="1.0" encoding="UTF-8"?><svg id="Layer_1" xmlns="http://www.w3.org/2000/svg" viewBox="0 0 36 36"><defs><style>.cls-1,.cls-2{stroke-width:0px;}.cls-2{fill:none;}</style></defs><path class="cls-2" d="m18.93,15.26c-.5,0-1.01.06-1.52.19s-1.03.31-1.56.56l.41-2.55h7.59v-3.77h-11.2l-1.5,9.13,4.02.58c.38-.42.73-.72,1.04-.88.42-.22.87-.34,1.32-.34.72,0,1.29.24,1.73.71.43.47.65,1.21.65,2.22s-.21,1.73-.64,2.23-.97.75-1.63.75c-.59,0-1.09-.2-1.52-.6-.42-.4-.69-.98-.81-1.74l-4.77.52c.23.8.52,1.46.87,1.99.35.53.8,1.01,1.36,1.43.56.42,1.24.74,2.04.95.8.21,1.76.32,2.88.32,1.56,0,2.84-.27,3.84-.8,1-.53,1.77-1.31,2.32-2.32.54-1.01.82-2.07.82-3.16,0-1.56-.53-2.85-1.59-3.88-1.06-1.03-2.44-1.54-4.14-1.54Z"/><path d="m18,0C8.06,0,0,8.06,0,18s8.06,18,18,18,18-8.06,18-18S27.94,0,18,0Zm5.83,23.84c-.54,1.01-1.32,1.78-2.32,2.32-1,.53-2.28.8-3.84.8-1.12,0-2.08-.11-2.88-.32-.8-.21-1.48-.53-2.04-.95-.56-.42-1.01-.9-1.36-1.43-.35-.53-.64-1.2-.87-1.99l4.77-.52c.12.76.39,1.35.81,1.74.42.4.93.6,1.52.6.66,0,1.2-.25,1.63-.75s.64-1.24.64-2.23-.22-1.75-.65-2.22c-.43-.47-1.01-.71-1.73-.71-.46,0-.9.11-1.32.34-.32.16-.66.46-1.04.88l-4.02-.58,1.5-9.13h11.2v3.77h-7.59l-.41,2.55c.52-.25,1.04-.43,1.56-.56s1.02-.19,1.52-.19c1.7,0,3.08.51,4.14,1.54,1.06,1.03,1.59,2.32,1.59,3.88,0,1.1-.27,2.15-.82,3.16Z"/></svg>