<?xml version="1.0" encoding="UTF-8"?><svg id="Layer_1" xmlns="http://www.w3.org/2000/svg" viewBox="0 0 36 36"><defs><style>.cls-1,.cls-2{stroke-width:0px;}.cls-2{fill:none;}</style></defs><path class="cls-2" d="m18.83,15.34c-.78,0-1.47.14-2.06.41-.59.27-1.17.7-1.74,1.27.15-1.82.38-3.01.68-3.57.42-.77,1.02-1.16,1.78-1.16.42,0,.78.14,1.07.41.29.27.5.73.62,1.39l4.69-.58c-.27-.91-.66-1.67-1.18-2.27-.52-.6-1.17-1.06-1.95-1.37-.78-.31-1.85-.47-3.2-.47-2.29,0-4.07.71-5.36,2.14s-1.93,3.67-1.93,6.74c0,2.09.31,3.77.92,5.04s1.43,2.2,2.46,2.77,2.39.87,4.09.87c1.41,0,2.59-.24,3.53-.71.94-.48,1.67-1.18,2.2-2.1s.79-1.95.79-3.07c0-1.66-.52-3.03-1.57-4.11-1.05-1.08-2.33-1.62-3.84-1.62Zm.31,7.97c-.42.47-.93.71-1.55.71-.67,0-1.24-.26-1.7-.78-.46-.52-.7-1.24-.7-2.16s.22-1.6.67-2.08c.44-.49.99-.73,1.65-.73s1.18.25,1.61.75c.43.5.65,1.23.65,2.19s-.21,1.64-.63,2.11Z"/><path d="m18,0C8.06,0,0,8.06,0,18s8.06,18,18,18,18-8.06,18-18S27.94,0,18,0Zm5.45,24.14c-.53.93-1.26,1.63-2.2,2.1-.94.47-2.11.71-3.53.71-1.7,0-3.06-.29-4.09-.87s-1.85-1.5-2.46-2.77-.92-2.95-.92-5.04c0-3.07.64-5.31,1.93-6.74s3.08-2.14,5.36-2.14c1.35,0,2.42.16,3.2.47.78.31,1.43.77,1.95,1.37.52.6.91,1.36,1.18,2.27l-4.69.58c-.12-.66-.33-1.12-.62-1.39-.29-.27-.65-.41-1.07-.41-.76,0-1.36.39-1.78,1.16-.31.56-.54,1.75-.68,3.57.56-.57,1.14-.99,1.74-1.27.59-.27,1.28-.41,2.06-.41,1.51,0,2.79.54,3.84,1.62,1.05,1.08,1.57,2.45,1.57,4.11,0,1.12-.26,2.14-.79,3.07Z"/><path d="m17.51,18.26c-.66,0-1.21.24-1.65.73-.44.49-.67,1.18-.67,2.08s.23,1.64.7,2.16c.46.52,1.03.78,1.7.78.62,0,1.13-.24,1.55-.71.42-.47.63-1.17.63-2.11s-.22-1.69-.65-2.19c-.43-.5-.97-.75-1.61-.75Z"/></svg>