<?xml version="1.0" encoding="UTF-8"?><svg id="Layer_1" xmlns="http://www.w3.org/2000/svg" viewBox="0 0 36 36"><defs><style>.cls-1,.cls-2{stroke-width:0px;}.cls-2{fill:none;}</style></defs><path class="cls-2" d="m11.14,13.67h8.39c-1.72,2.14-2.98,4.15-3.78,6.02-.8,1.88-1.38,4.2-1.75,6.97h4.7c.16-1.99.46-3.72.9-5.18.56-1.88,1.33-3.58,2.3-5.11.8-1.26,1.8-2.43,3-3.51v-3.19h-13.77v3.98Z"/><path class="cls-1" d="m18,0C8.06,0,0,8.06,0,18s8.06,18,18,18,18-8.06,18-18S27.94,0,18,0Zm6.92,12.87c-1.2,1.08-2.2,2.25-3,3.51-.97,1.53-1.74,3.23-2.3,5.11-.45,1.46-.75,3.19-.9,5.18h-4.7c.37-2.77.95-5.1,1.75-6.97.79-1.88,2.05-3.88,3.78-6.02h-8.39v-3.98h13.77v3.19Z"/></svg>