<?xml version="1.0" encoding="UTF-8"?><svg id="Layer_1" xmlns="http://www.w3.org/2000/svg" viewBox="0 0 36 36"><defs><style>.cls-1,.cls-2{stroke-width:0px;}.cls-2{fill:none;}</style></defs><path class="cls-2" d="m22.2,17.54c.7-.46,1.2-.94,1.53-1.44.43-.66.65-1.38.65-2.14,0-1.31-.54-2.4-1.63-3.27-1.08-.86-2.76-1.3-5.03-1.3-1.71,0-3.09.35-4.14,1.04-1.34.9-2,2.07-2,3.49,0,.87.23,1.63.7,2.29.34.49.88.93,1.62,1.32-.97.38-1.68.91-2.14,1.6-.46.69-.7,1.54-.7,2.53s.25,1.94.74,2.77c.49.83,1.22,1.45,2.17,1.88s2.32.64,4.12.64c.96,0,1.86-.09,2.71-.28.85-.19,1.55-.48,2.12-.89.57-.4,1.05-.97,1.44-1.71.39-.74.58-1.53.58-2.38s-.23-1.68-.68-2.41c-.45-.73-1.14-1.31-2.06-1.75Zm-5.65-4.73c.36-.36.82-.54,1.4-.54s1.03.18,1.39.55c.36.37.54.84.54,1.43s-.17,1.02-.52,1.38c-.35.35-.79.53-1.33.53-.61,0-1.1-.18-1.46-.54-.37-.36-.55-.83-.55-1.42s.18-1.04.54-1.4Zm2.97,10.53c-.45.48-.95.72-1.52.72s-1.11-.24-1.56-.71c-.46-.47-.68-1.09-.68-1.84,0-.79.22-1.41.66-1.88.44-.46.95-.69,1.53-.69s1.12.24,1.57.72c.45.48.68,1.09.68,1.84s-.22,1.35-.67,1.84Z"/><path d="m17.95,18.94c-.59,0-1.1.23-1.53.69-.44.46-.66,1.09-.66,1.88s.23,1.36.68,1.84c.46.48.98.71,1.56.71s1.07-.24,1.52-.72c.45-.48.67-1.09.67-1.84s-.23-1.36-.68-1.84c-.45-.48-.98-.72-1.57-.72Z"/><path d="m18,0C8.06,0,0,8.06,0,18s8.06,18,18,18,18-8.06,18-18S27.94,0,18,0Zm6.35,24.08c-.39.74-.87,1.31-1.44,1.71-.57.4-1.27.7-2.12.89-.85.19-1.75.28-2.71.28-1.8,0-3.17-.21-4.12-.64s-1.67-1.05-2.17-1.88c-.5-.83-.74-1.75-.74-2.77s.23-1.84.7-2.53c.46-.69,1.18-1.23,2.14-1.6-.74-.39-1.28-.83-1.62-1.32-.46-.66-.7-1.43-.7-2.29,0-1.42.67-2.58,2-3.49,1.04-.69,2.42-1.04,4.14-1.04,2.27,0,3.95.43,5.03,1.3,1.08.87,1.63,1.95,1.63,3.27,0,.76-.22,1.48-.65,2.14-.33.49-.83.97-1.53,1.44.92.44,1.6,1.02,2.06,1.75.45.73.68,1.53.68,2.41s-.19,1.64-.58,2.38Z"/><path d="m18.03,16.16c.54,0,.99-.18,1.33-.53.35-.36.52-.81.52-1.38s-.18-1.06-.54-1.43c-.36-.37-.83-.55-1.39-.55s-1.04.18-1.4.54c-.36.36-.54.82-.54,1.4s.18,1.06.55,1.42c.37.36.86.54,1.46.54Z"/></svg>