<?xml version="1.0" encoding="UTF-8"?><svg id="Layer_1" xmlns="http://www.w3.org/2000/svg" viewBox="0 0 36 36"><defs><style>.cls-1,.cls-2{stroke-width:0px;}.cls-2{fill:none;}</style></defs><path class="cls-2" d="m22.19,10.27c-1.03-.58-2.39-.87-4.09-.87-1.41,0-2.59.24-3.52.71-.93.48-1.67,1.18-2.2,2.1-.53.93-.8,1.95-.8,3.08,0,1.65.52,3.02,1.57,4.1,1.05,1.08,2.33,1.62,3.85,1.62.78,0,1.47-.13,2.06-.41s1.17-.7,1.74-1.27c-.16,1.82-.39,3.02-.7,3.58-.42.76-1.02,1.15-1.77,1.15-.42,0-.78-.14-1.08-.41-.29-.27-.5-.73-.63-1.39l-4.69.59c.28.9.68,1.66,1.19,2.26.52.6,1.17,1.06,1.95,1.37.78.31,1.85.47,3.2.47,2.29,0,4.07-.71,5.36-2.14,1.29-1.42,1.93-3.67,1.93-6.74,0-2.08-.31-3.76-.92-5.03-.61-1.27-1.43-2.2-2.46-2.78Zm-2.22,7.1c-.44.49-.99.73-1.66.73s-1.18-.25-1.6-.75-.64-1.23-.64-2.18.21-1.65.62-2.12c.41-.47.93-.71,1.56-.71.66,0,1.23.26,1.69.78.46.52.7,1.24.7,2.16s-.22,1.6-.66,2.08Z"/><path d="m18,0C8.06,0,0,8.06,0,18s8.06,18,18,18,18-8.06,18-18S27.94,0,18,0Zm5.64,24.82c-1.29,1.42-3.08,2.14-5.36,2.14-1.35,0-2.42-.16-3.2-.47-.78-.31-1.43-.77-1.95-1.37-.52-.6-.92-1.36-1.19-2.26l4.69-.59c.12.66.33,1.12.63,1.39.29.27.65.41,1.08.41.76,0,1.35-.38,1.77-1.15.31-.56.54-1.76.7-3.58-.56.58-1.14,1-1.74,1.27s-1.28.41-2.06.41c-1.52,0-2.81-.54-3.85-1.62-1.05-1.08-1.57-2.45-1.57-4.1,0-1.13.27-2.15.8-3.08.53-.93,1.27-1.63,2.2-2.1.93-.48,2.11-.71,3.52-.71,1.7,0,3.06.29,4.09.87,1.03.58,1.85,1.51,2.46,2.78.61,1.27.92,2.95.92,5.03,0,3.07-.65,5.31-1.93,6.74Z"/><path d="m18.24,12.34c-.63,0-1.15.24-1.56.71-.41.47-.62,1.18-.62,2.12s.21,1.68.64,2.18.96.75,1.6.75,1.22-.24,1.66-.73c.44-.49.66-1.18.66-2.08s-.23-1.64-.7-2.16c-.46-.52-1.03-.78-1.69-.78Z"/></svg>