<?xml version="1.0" encoding="UTF-8"?><svg id="Layer_1" xmlns="http://www.w3.org/2000/svg" viewBox="0 0 771.4 771.4"><defs><style>.cls-1{fill:#616367;fill-rule:evenodd;}.cls-2{fill:none;}.cls-3{fill:#ca5d27;}</style></defs><path class="cls-1" d="M649.6,667.7H119.7c-1.2,0-2.5-.4-3.7-.8-5.4-1.8-9.8-6.1-11.6-11.6-.4-1.2-.6-2.4-.8-3.7V119.8c0-1.2.4-2.5.8-3.7,1.8-5.4,6.1-9.8,11.6-11.6,1.2-.4,2.4-.6,3.7-.8h531.8c.6,0,1.2.2,1.9.3,1.2.3,2.4.6,3.6,1.2,4.6,2.1,8.2,6.1,9.8,10.9.4,1.2.6,2.4.8,3.7v171.8c-.3,2.5-1.1,4.9-2.3,7.1-2.5,4.4-6.9,7.5-11.8,8.6-1.8.4-3.8.5-5.6.3-1.9-.2-3.7-.7-5.4-1.5s-3.3-1.8-4.7-3.1c-2.8-2.5-4.8-5.9-5.6-9.6-.3-1.6-.3-2.1-.4-3.7v-150H139.8v492h511.9c.6.2,1.2.3,1.9.4,2.5.5,4.8,1.6,6.8,3,1.5,1.1,2.9,2.5,4,4,3,4.1,4.1,9.4,3,14.3-.4,1.8-1.1,3.6-2,5.3-.9,1.6-2.1,3.1-3.6,4.4-2.3,2.1-5.2,3.6-8.3,4.2-1.6.3-2.1.3-3.7.4h-.2Z"/><path class="cls-1" d="M649.6,667.7H119.7c-1.2,0-2.5-.4-3.7-.8-5.4-1.8-9.8-6.1-11.6-11.6-.4-1.2-.6-2.4-.8-3.7V119.8c0-1.2.4-2.5.8-3.7,1.8-5.4,6.1-9.8,11.6-11.6,1.2-.4,2.4-.6,3.7-.8h531.8c.6,0,1.2.2,1.9.3,1.2.3,2.4.6,3.6,1.2,4.6,2.1,8.2,6.1,9.8,10.9.4,1.2.6,2.4.8,3.7,0,.6,0,1.3,0,1.9v168c0,.6,0,1.3,0,1.9-.3,2.5-1.1,4.9-2.3,7.1-2.5,4.4-6.9,7.5-11.8,8.6-1.8.4-3.8.5-5.6.3-1.9-.2-3.7-.7-5.4-1.5s-3.3-1.8-4.7-3.1c-2.8-2.5-4.8-5.9-5.6-9.6-.3-1.6-.3-2.1-.4-3.7v-150H139.6v492h511.9c.6.2,1.2.3,1.9.4,2.5.5,4.8,1.6,6.8,3,1.5,1.1,2.9,2.5,4,4,3,4.1,4.1,9.4,3,14.3-.4,1.8-1.1,3.6-2,5.3-.9,1.6-2.1,3.1-3.6,4.4-2.3,2.1-5.2,3.6-8.3,4.2-1.6.3-2.1.3-3.7.4h0Z"/><path class="cls-1" d="M756.8,457c1.3,1.4,2.4,2.9,3.3,4.6,2.4,4.7,2.6,10.4.5,15.3-.9,2.1-2.2,3.9-3.8,5.6l-92.7,92.7c-.7.7-.9.9-1.7,1.5-1.5,1.2-3.2,2.1-5.1,2.7-2.2.8-4.5,1.1-6.8,1-1.9,0-3.8-.5-5.6-1.2s-3.5-1.7-5-2.9c-4.8-4-7.3-10.3-6.4-16.5.4-2.7,1.4-5.2,2.9-7.5.6-1,1.4-1.8,2.2-2.7l62-62h-145.4c-.9,0-1.2,0-2.1-.1-2.1-.3-4.2-.9-6.1-1.9-2.2-1.1-4.2-2.7-5.8-4.7-1.3-1.7-2.4-3.6-3.1-5.6-.6-1.7-.9-3.4-.9-5.2-.2-6.1,2.9-12,7.9-15.5,2.1-1.4,4.4-2.4,6.9-2.8,1.1-.2,2.1-.3,3.2-.3,48.3,0,96.7-1.2,145-.4l-61.6-61.6-.8-.8c-.6-.8-.8-1-1.4-1.8-1.1-1.6-1.9-3.4-2.4-5.2-.5-1.9-.7-3.8-.6-5.7.3-5.8,3.5-11.3,8.4-14.4,2-1.2,4.2-2.1,6.4-2.5,1-.2,1.3-.2,2.3-.3h2.3c1.2.1,2.3.3,3.4.6,2.2.6,4.3,1.7,6.2,3.1l94.5,94.3v.2Z"/><path class="cls-3" d="M582.5,331.7c9.2-5.1,11-17.7,3.5-25.2l-.2-.2c-5.2-5.2-13.1-6.1-19.4-2.4-6.3,3.7-13.2,6-21,6h-.4c-24.3,0-44.6-20.3-44.6-44.6s19.5-45.1,44.6-44.6c5.4.1,9.2.6,12.4,1.4s6.1,2.2,9.3,4.1c6.3,3.5,14.1,2.5,19.1-2.6l.4-.4c7.4-7.4,5.7-19.9-3.4-25.1s-24.2-9.8-38.4-9.8c-42.4,0-76.7,34.3-76.7,76.7s34.3,76.7,76.7,76.7c0,0,20.9,1.2,38.1-10Z"/><path class="cls-3" d="M363,187.7l71.7,71.7h-58.8c-7.1,0-12.9-5.8-12.9-12.9v-58.8h0Z"/><path class="cls-3" d="M499.7,422h-88.8c-6.6,0-11.9,6-11.9,13.3v135.2c0,7.4,5.3,13.3,11.9,13.3h88.8c6.6,0,11.9-6,11.9-13.3v-135.2c0-7.4-5.3-13.3-11.9-13.3ZM421.4,455h66.6v25.1h-66.6v-25.1ZM420.7,507.5c0-1.4,1-2.5,2.2-2.5h22.2c1.2,0,2.2,1.1,2.2,2.5v20c0,1.4-1,2.5-2.2,2.5h-22.2c-1.2,0-2.2-1.1-2.2-2.5v-20ZM447.6,564.8c0,1.4-1,2.5-2.2,2.5h-22.2c-1.2,0-2.2-1.1-2.2-2.5v-20c0-1.4,1-2.5,2.2-2.5h22.2c1.2,0,2.2,1.1,2.2,2.5v20ZM462.8,507.5c0-1.4,1-2.5,2.2-2.5h22.2c1.2,0,2.2,1.1,2.2,2.5v20c0,1.4-1,2.5-2.2,2.5h-22.2c-1.2,0-2.2-1.1-2.2-2.5v-20ZM489.8,564.8c0,1.4-1,2.5-2.2,2.5h-22.2c-1.2,0-2.2-1.1-2.2-2.5v-20c0-1.4,1-2.5,2.2-2.5h22.2c1.2,0,2.2,1.1,2.2,2.5v20Z"/><path class="cls-3" d="M374,273.8c-14.2,0-25.7-11.5-25.7-25.7v-60.9l-112.3.5c-14.2,0-25.7,11.5-25.7,25.7v345.4c0,14.2,11.5,25.7,25.7,25.7l145.5-.5h.1v-166.7c0-6.8,5.5-12.3,12.3-12.3h40.8v-131.2h-60.7ZM310.6,448.1v12.8c0,6.7-5.4,12.2-12.2,12.2h-.7c-6.7,0-12.2-5.4-12.2-12.2v-12.8c-14,0-26.4-7.9-32.8-19.5-4.5-8.1,1.4-18,10.7-18h1c4.3,0,8.2,2.5,10.4,6.2,2.1,3.6,5.9,5.9,10.4,6.3,5.4.5,23.8.7,28.6-.4,11.7-2.7,12.7-20.7.6-24.1-7.8-2.3-23.3.3-32.3-.5-13.4-1.2-26.4-10.9-31.3-23.4-9.7-25.2,8.1-51.1,34.8-51.6v-12.8c0-6.7,5.4-12.2,12.2-12.2h.7c6.7,0,12.2,5.4,12.2,12.2h-.2c0,0,0,12.7,0,12.7,13.9,0,26.4,7.9,32.8,19.5,4.5,8.1-1.4,18-10.7,18h-.8c-4.4,0-8.2-2.5-10.4-6.2-2.1-3.6-6-5.9-10.5-6.3-5.4-.5-23.8-.7-28.6.4-12.9,3-12.6,23.3,2.8,24.7,17.3,1.5,33.2-4.1,48.5,7.8,28.3,22.1,12.2,67-23,67.2Z"/><circle class="cls-3" cx="585.8" cy="265" r="19.8"/><rect class="cls-2" y="0" width="771.4" height="771.4"/></svg>