<?xml version="1.0" encoding="UTF-8" standalone="no"?><!DOCTYPE svg PUBLIC "-//W3C//DTD SVG 1.1//EN" "http://www.w3.org/Graphics/SVG/1.1/DTD/svg11.dtd"><svg width="100%" height="100%" viewBox="0 0 10 10" version="1.1" xmlns="http://www.w3.org/2000/svg" xmlns:xlink="http://www.w3.org/1999/xlink" xml:space="preserve" style="fill-rule:evenodd;clip-rule:evenodd;stroke-linejoin:round;stroke-miterlimit:1.41421;"><path d="M8.532,0c0.767,0 1.389,0.622 1.389,1.389l0,7.143c0,0.767 -0.622,1.389 -1.389,1.389l-7.143,0c-0.767,0 -1.389,-0.622 -1.389,-1.389l0,-7.143c0,-0.767 0.622,-1.389 1.389,-1.389l7.143,0Zm-0.706,7.93l0.801,-0.8l-0.801,-0.801c-0.078,0 -0.246,0 -0.246,0c0,0 -0.028,-0.003 -0.042,-0.005c-0.04,-0.006 -0.079,-0.018 -0.116,-0.036c-0.093,-0.044 -0.167,-0.124 -0.205,-0.22c-0.016,-0.042 -0.025,-0.086 -0.028,-0.13c-0.01,-0.258 -0.006,-1.024 -0.006,-1.024c0,-0.504 0.009,-1.009 -0.001,-1.513c-0.004,-0.141 -0.03,-0.281 -0.081,-0.413c-0.073,-0.193 -0.195,-0.367 -0.352,-0.503c-0.114,-0.099 -0.247,-0.177 -0.389,-0.229c-0.128,-0.047 -0.263,-0.072 -0.399,-0.076c-0.871,-0.017 -1.742,0 -2.613,0c-0.142,0 -0.283,0.023 -0.417,0.071c-0.219,0.077 -0.415,0.216 -0.56,0.397c-0.089,0.11 -0.159,0.235 -0.207,0.369c-0.045,0.129 -0.068,0.264 -0.07,0.4c-0.008,1.037 -0.018,1.834 0,2.87c0.004,0.131 0.027,0.261 0.07,0.384c0.041,0.115 0.098,0.224 0.17,0.322c0.149,0.204 0.359,0.361 0.597,0.445c0.134,0.047 0.275,0.07 0.417,0.071l1.268,0l0,-1.601c-0.146,0 -0.279,0 -0.366,0l0,0c-0.089,0 -0.164,0 -0.164,0c0,0 -0.028,-0.003 -0.042,-0.005c-0.04,-0.006 -0.079,-0.018 -0.116,-0.036c-0.093,-0.044 -0.167,-0.124 -0.205,-0.22c-0.016,-0.042 -0.025,-0.086 -0.028,-0.131c-0.021,-0.527 -0.021,-0.816 0,-1.344c0.003,-0.045 0.012,-0.088 0.028,-0.13c0.04,-0.102 0.122,-0.186 0.224,-0.229c0.044,-0.019 0.091,-0.029 0.139,-0.032c0.368,-0.014 0.737,-0.014 1.104,0c0.049,0.003 0.095,0.013 0.14,0.032c0.111,0.047 0.198,0.142 0.234,0.258c0.012,0.039 0.018,0.08 0.018,0.122l0,0.721c0,0 0.006,1.581 0.006,1.794c0.004,0.131 0.027,0.261 0.071,0.385c0.04,0.114 0.097,0.223 0.169,0.321c0.149,0.204 0.359,0.361 0.597,0.445c0.134,0.047 0.275,0.07 0.417,0.071l0.984,0Z" style="fill:#ca5d27;"/></svg>