<?xml version="1.0" encoding="UTF-8"?><svg id="Layer_1" xmlns="http://www.w3.org/2000/svg" viewBox="0 0 300 300"><defs><style>.cls-1{fill:#40403f;fill-rule:evenodd;stroke-width:0px;}</style></defs><path class="cls-1" d="m229.8,253.4H35.3c-.4,0-.8,0-1.2-.4-2.1-.8-3.7-2.1-4.1-4.1,0-.4-.4-.8-.4-1.2V52.4c0-.4,0-.8.4-1.2.8-2.1,2.1-3.7,4.1-4.1.4,0,.8-.4,1.2-.4h195.4c.4,0,.8,0,1.2.4,1.2.4,2.1.8,2.9,2.1.4.4.8,1.2,1.2,1.7.4.8.4,1.2.4,2.1,0,1.7-.4,3.7-1.7,5-.4.4-.8.8-1.7,1.2-.8.4-1.7.8-2.5.8H42.7v180.4h180.5v-55.7c0-.4,0-.8.4-1.2.4-1.2.8-2.1,2.1-2.9.4-.4,1.2-.8,1.7-1.2.8-.4,1.2-.4,2.1-.4h2.1c1.7.4,3.3,1.7,4.5,3.3.4.8.8,1.7.8,2.5v63.2c0,.4,0,.8-.4,1.2-.8,2.1-2.1,3.7-4.1,4.1-.4,0-.8.4-1.2.4h-1.2Zm18.6-141.2l-22.7-22.7-.4-.4q-.4-.4-.4-.8c-.4-.4-.8-1.2-.8-2.1s-.4-1.2-.4-2.1c0-2.1,1.2-4.1,2.9-5.4.8-.4,1.7-.8,2.5-.8h2.5c.8,0,1.7.4,2.5.8.4.4.8.4.8.8l33.9,33.9c.4.4.8,1.2,1.2,1.7.8,1.7.8,3.7,0,5.8-.4.8-.8,1.2-1.2,2.1l-33.9,33.9q-.4.4-.8.4c-.4.4-1.2.8-1.7.8-.8.4-1.7.4-2.5.4-2.5,0-4.5-1.2-5.4-3.3-.4-.4-.4-1.2-.8-2.1v-2.1c0-.8.4-2.1,1.2-2.9.4-.4.4-.8.8-.8l22.7-22.7h-54.1c-.8,0-1.7-.4-2.1-.8-.8-.4-1.7-.8-2.1-1.7-.4-.4-.8-1.2-1.2-2.1-.4-.4-.4-1.2-.4-2.1,0-2.1,1.2-4.5,2.9-5.8.8-.4,1.7-.8,2.5-.8h1.2c17.8,1.2,35.5.8,53.3.8h0Z"/><path class="cls-1" d="m124.7,126.3h-11.1c-.8,0-1.2,0-2.1-.4-1.6-.4-3.3-2.1-4.1-3.7-.4-.8-.4-1.7-.4-2.5-.4-12,0-23.6,0-35.7s0-1.7.4-2.5c.8-1.7,2.1-3.3,3.7-3.7.8-.4,1.2-.4,2.1-.4,11.9-.4,23.9-.4,35.8,0,.8,0,1.2,0,2.1.4,1.6.8,3.3,2.1,3.7,3.7.4.8.4,1.2.4,2.1.4,12,0,23.6,0,35.7s0,1.7-.4,2.5c-.8,1.7-2.1,3.3-3.7,3.7-.8.4-1.2.4-2.1.4h-11.1v16.2c11.9,0,23.5,0,35.4.4h.8c.4,0,.8.4,1.2.4,1.6.8,2.9,2.5,3.7,4.1,0,.4.4,1.2.4,2.1v18.7h11.1c.8,0,1.2,0,2.1.4,1.6.8,3.3,2.1,3.7,3.7.4.8.4,1.2.4,2.1.4,12,0,23.6,0,35.7s0,1.2-.4,2.1c-.4,1.7-2.1,3.3-3.7,4.1-.8.4-1.6.4-2.5.4-11.9.4-23.5,0-35.4,0s-1.2,0-2.1-.4c-1.6-.4-3.3-2.1-4.1-3.7-.4-.8-.4-1.7-.4-2.5-.4-12,0-23.6,0-35.7s0-1.7.4-2.5c.8-1.7,2.1-3.3,3.7-3.7.8-.4,1.2-.4,2.1-.4h11.1v-11.2h-70.8v12h12.3c.8,0,1.2,0,2.1.4,1.6.8,3.3,2.1,3.7,3.7.4.8.4,1.2.4,2.1.4,12,0,23.6,0,35.7s0,1.2-.4,2.1c-.4,1.7-2.1,3.3-3.7,4.1-.8.4-1.6.4-2.5.4-11.9.4-23.5,0-35.4,0s-1.2,0-2.1-.4c-1.6-.4-3.3-2.1-4.1-3.7-.4-.8-.4-1.7-.4-2.5-.4-12,0-23.6,0-35.7s0-1.7.4-2.5c.8-1.7,2.1-3.3,3.7-3.7.8-.4,1.2-.4,2.1-.4h10.3v-19.5c0-.4,0-.8.4-1.2.8-2.1,2.5-3.3,4.1-4.1.4,0,1.2-.4,1.6-.4,11.9,0,23.9,0,35.8-.4v-15.8h1.6Zm17.7-35.3h-21.8v22h21.8v-22h0Z"/></svg>