<?xml version="1.0" encoding="UTF-8"?><svg id="Layer_1" xmlns="http://www.w3.org/2000/svg" viewBox="0 0 300 300"><defs><style>.cls-1{fill:#fff;fill-rule:evenodd;stroke-width:0px;}</style></defs><path class="cls-1" d="m228.9,251.9H36.7c-.4,0-.8,0-1.2-.4-2-.8-3.7-2-4.1-4.1-.4-.4-.4-.8-.4-1.2V53.4c0-.4,0-.8.4-1.2.8-2,2-3.7,4.1-4.1.4,0,.8-.4,1.2-.4h193.8c.4,0,.8.4,1.2.4,1.6.8,2.9,2,3.7,4.1,0,.4.4.8.4,1.2v62.4c0,.8-.4,1.6-.8,2.4-.8,1.6-2.4,2.9-4.5,3.3h-2c-.8,0-1.2-.4-2-.4-.8-.4-1.2-.8-1.6-1.2-.8-.8-1.6-2-2-3.7v-55.4H44v178.1h186.5c.8,0,1.6.4,2.4,1.2.4.4,1.2.8,1.6,1.6,1.2,1.6,1.6,3.3,1.2,5.3,0,.8-.4,1.2-.8,2-.4.4-.8,1.2-1.2,1.6-.8.8-2,1.2-2.9,1.6q-1.2-.4-2-.4h0Zm18.4-78.3l-22.4-22.4-.4-.4q-.4-.4-.4-.8c-.4-.4-.8-1.2-.8-2s-.4-1.2-.4-2c0-2,1.2-4.1,2.9-5.3.8-.4,1.6-.8,2.4-.8h1.6c.4,0,.8,0,1.2.4.8.4,1.6.4,2,1.2q.4.4.8.4l33.5,33.4c.4.4.8,1.2,1.2,1.6.8,1.6.8,3.7,0,5.7-.4.8-.8,1.2-1.2,2l-33.5,33.4q-.4.4-.8.4c-.4.4-1.2.8-1.6.8-.8.4-1.6.4-2.4.4s-1.2,0-2-.4c-.8-.4-1.2-.4-1.6-1.2-1.6-1.6-2.4-3.7-2.4-6.1s.4-2,1.2-2.9c.4-.4.4-.8.8-.8l22.4-22.4h-53.5c-.8,0-1.6-.4-2-.8-.8-.4-1.6-.8-2-1.6-.4-.4-.8-1.2-1.2-2-.4-.4-.4-1.2-.4-2,0-2,1.2-4.5,2.9-5.7.8-.4,1.6-.8,2.4-.8h1.2c17.5.8,35.1.4,52.6.8h0Z"/><path class="cls-1" d="m172.1,221.8h-95.6c-.4,0-1.2,0-1.6-.4-1.6-.8-3.3-2-4.1-4.1,0-.4-.4-1.2-.4-1.6V84.3c0-.4,0-1.2.4-1.6.8-1.6,2-3.3,4.1-4.1.4,0,1.2-.4,1.6-.4h96.8c.4,0,1.2.4,1.6.4,1.6.8,2.8,2.4,3.7,4.1,0,.4,0,1.2.4,1.6v131c0,.4,0,1.2-.4,1.6-.8,1.6-2,3.3-4.1,4.1-.4,0-1.2.4-1.6.4q-.4.4-.8.4h0Zm-65.5-13.1v-18.4h-23.2v18.4h23.2Zm24.8-18.4l-18.3,15.5v2.9h4.5l18.7-15.9v-2.4h-4.9Zm34.2,0h-23.2v18.4h23.2v-18.4h0Zm-38.2,18.4h8.5v-7.3l-8.5,7.3h0Zm-14.2-18.4v6.9l8.1-6.9h-8.1Zm-29.7-24.9v18.4h23.2v-18.4h-23.2Zm48,0l-18.7,15.5v2.9h4.5l18.7-15.5v-2.9h-4.5Zm11,0v18.4h23.2v-18.4h-23.2Zm-14.6,18.4h8.5v-6.9l-8.5,6.9h0Zm-14.6-18.4v6.9l8.5-6.9h-8.5Zm-29.7-24.9v18.4h23.2v-18.4h-23.2Zm48.4,0l-18.7,15.9v2.4h4.5l18.3-15.5v-2.9h-4.1Zm10.6,0v18.4h23.2v-18.4h-23.2Zm-14.6,18.4h8.1v-6.9l-8.1,6.9h0Zm-14.6-18.4v7.3l8.5-7.3h-8.5Zm-29.7-24.5v18.4h23.2v-18.4h-23.2Zm48.4,0l-19.1,15.9v2.4h4.9l18.3-15.5v-2.9h-4.1Zm10.6,0v18.4h23.2v-18.4h-23.2Zm-14.6,17.9h8.1v-6.9l-8.1,6.9h0Zm-14.6-17.9v7.3l9-7.3h-9Zm-29.7-24.9v18.4h23.2v-18.4h-23.2Zm48.8,0l-19.1,15.9v2h4.9l18.3-15.1v-3.3h-4.1v.4h0Zm10.2,0v18.4h23.2v-18.4h-23.2Zm-14.2,18.4h8.1v-6.5l-8.1,6.5h0Zm-15.1-18.4v7.3l9-7.3h-9Z"/></svg>