<?xml version="1.0" encoding="utf-8"?>
<!-- Generator: Adobe Illustrator 27.8.0, SVG Export Plug-In . SVG Version: 6.00 Build 0)  -->
<svg version="1.1" id="Layer_1" xmlns="http://www.w3.org/2000/svg" xmlns:xlink="http://www.w3.org/1999/xlink" x="0px" y="0px"
	 viewBox="0 0 400 400" style="enable-background:new 0 0 400 400; fill:#004990" xml:space="preserve" title="External Link">
<g>
	<path d="M119.6,91.1v59.7l55.8-21.2C165.9,107.8,144.6,92.3,119.6,91.1z"/>
	<path d="M121.5,157.1c-0.7,0.3-1.5,0.4-2.2,0.4c-1.3,0-2.5-0.4-3.6-1.1c-1.7-1.2-2.7-3.1-2.7-5.2V91.1C79,92.8,51.8,121,51.8,155.5
		c0,35.6,28.9,64.5,64.5,64.5c35.6,0,64.5-28.9,64.5-64.5c0-6.9-1.1-13.5-3.1-19.8L121.5,157.1z"/>
	<rect x="212.6" y="156.9" width="34.4" height="62.9"/>
	<rect x="260.5" y="91.2" width="34.4" height="128.5"/>
	<rect x="308.3" y="127.2" width="34.4" height="92.5"/>
	<path d="M377.6,10.5H23c-12.3,0-22.4,10-22.4,22.4V50v9.4v205.4v8.6v22.5c0,12.3,10,22.4,22.4,22.4h142.4v21.4
		c-51.1,3.1-88.3,12.9-88.3,24.6c0,14.1,55.2,25.6,123.2,25.6c68.1,0,123.2-11.5,123.2-25.6c0-11.6-37.3-21.4-88.3-24.6v-21.4h142.4
		c12.3,0,22.4-10,22.4-22.4v-263C400,20.5,390,10.5,377.6,10.5z M361.9,250.9c0,2.6-2.1,4.7-4.7,4.7H47.6h-8.9V64.9V50
		c0-2.6,2.1-4.7,4.7-4.7h313.7c2.6,0,4.7,2.1,4.7,4.7V250.9z"/>
</g>
</svg>
