<?xml version="1.0" encoding="utf-8"?>
<!-- Generator: Adobe Illustrator 27.8.0, SVG Export Plug-In . SVG Version: 6.00 Build 0)  -->
<svg version="1.1" id="Layer_1" xmlns="http://www.w3.org/2000/svg" xmlns:xlink="http://www.w3.org/1999/xlink" x="0px" y="0px"
	 viewBox="0 0 400 400" style="enable-background:new 0 0 400 400; fill:#ED1A33" aria-hidden="true" xml:space="preserve">
<g>
	<path d="M59.6,373.8L40.4,393c-0.8,0.8-2.1,0.8-2.9,0L1,356.5c-0.8-0.8-0.8-2.1,0-2.9l19.2-19.2c0.8-0.8,2.1-0.8,2.9,0l36.5,36.5
		C60.4,371.7,60.4,373,59.6,373.8z"/>
	<path d="M181.3,298.3L65.6,355.9L38,328.4l57.6-115.7c2.9-5,9.7-5.9,13.7-1.8l73.7,73.7C187.1,288.6,186.2,295.4,181.3,298.3z"/>
	<path d="M128.7,209.5l-12.9-12.3l-0.1,0.1c0.7-0.7,16.1-17.9,9.9-51.6c-2.8-15.4-0.1-30.3,7.4-42.5c-10.6-20.6-8.5-44,0.7-61.7
		c7.2-13.9,18.6-24.7,32.2-30.4c15.2-6.4,32-6.2,48.7,0.7l-6.8,16.4c-26.9-11.1-48.7,2.8-58.3,21.4c-5.9,11.5-7.9,25.5-3.5,38.7
		c15.9-13,37.9-17.7,61.4-12.9c15.6,3.2,26.6,13.2,29.4,26.8c2.7,13.4-3,27.2-14.6,35.2c-4,2.8-12,6.9-23.7,6.9
		c-10.2,0-23.3-3.2-39.2-13.2c-5.7-3.6-10.5-7.5-14.6-11.7c-2.6,7-3.2,14.9-1.7,23.1C151.1,185.5,129.6,208.5,128.7,209.5z
		 M155,104.1c3.7,4.3,8.3,8.4,14,12c17.5,11.1,33.3,13.5,43.2,6.7c5.6-3.9,8.6-10.7,7.3-17c-1.4-6.6-6.9-11.2-15.5-12.9
		C184.6,88.9,166.8,93,155,104.1z"/>
	<path d="M186.8,268.5l-11.7-13.4c12.5-10.9,29-8.9,43.6-7.2c15.9,1.9,23.1,2.1,26.4-4.2c2.2-4.2,4.1-9.1,5.9-13.7
		c5.3-13.4,10.8-27.2,24-31.2c9.3-2.8,20.2,0.2,33.3,9.2c18.5,12.6,47.5,19.5,62.1,8.5c14.7-11,15.3-39.8,1.8-81.3l16.9-5.5
		c8.4,25.7,11.9,47.4,10.2,64.5c-1.6,16.4-7.7,28.7-18.2,36.6c-10.8,8.1-25.6,10.9-42.7,8c-13.8-2.3-28.4-8.2-40.1-16.1
		c-8-5.5-14.5-7.9-18.1-6.8c-5,1.5-8.9,11.3-12.6,20.8c-2,5.1-4.1,10.3-6.6,15.3c-9.2,17.9-28.7,15.6-44.3,13.7
		C204.6,264.2,193.3,262.9,186.8,268.5z"/>
	<path d="M170.1,229.4l-14.4-10.5c17.8-24.5,35.9-27.2,50.4-29.4c12.6-1.9,20.9-3.2,28.9-17.3c7.3-12.8,6.7-23.6,6.2-32.2
		c-0.4-7.6-0.9-15.5,5.2-21.2c6.5-6.1,17.3-6.1,31.6-4.4c10.8,1.3,14.3-2.8,15.5-4.2c8.8-10.3,5.2-37.9,0.9-52.8l17.1-5
		c0.1,0.5,3.4,11.8,4.7,25.5c1.9,19.8-1.2,34.5-9.1,43.8c-5,5.8-14.4,12.4-31.2,10.3c-11.6-1.4-15.7-0.8-17-0.3
		c-0.2,1.5,0,4.8,0.1,7.3c0.6,9.8,1.4,24.6-8.5,42c-12.3,21.7-27.9,24-41.7,26.1C195.8,209.1,183.6,210.9,170.1,229.4z"/>
	<path d="M103.2,87.3l-34,11.3c1.6-14.6-3.6-30.3-15.6-46.9l34-11.3C99.9,48.7,105.1,64.3,103.2,87.3z"/>
	<path d="M48.9,148.1l20.7-17.5c9.7-0.9,19.5,7.4,29.7,35.2l-20.7,17.5C77.8,160.7,63,154.8,48.9,148.1z"/>
	<path d="M290.8,322.7l-18.4-38.1c8.6-15.4,19.3-27.3,41.5-20l18.4,38.1C312.4,290.7,298.2,296.1,290.8,322.7z"/>
	<path d="M267.9,77.3L236.3,83c6.1-15,0.1-28.8-7.6-42.4l31.6-5.7C256.4,44.1,259.4,58.6,267.9,77.3z"/>
	<path d="M292.9,183.3l14.1-28.8c9.8,14.2,23.4,18.8,38.7,19l-14.1,28.8C318,205,305.2,197.9,292.9,183.3z"/>
</g>
</svg>
