<?xml version="1.0" encoding="utf-8"?>
<!-- Generator: Adobe Illustrator 27.8.0, SVG Export Plug-In . SVG Version: 6.00 Build 0)  -->
<svg version="1.1" id="Layer_1" xmlns="http://www.w3.org/2000/svg" xmlns:xlink="http://www.w3.org/1999/xlink" x="0px" y="0px"
	 viewBox="0 0 400 400" width="105" height="105" style="enable-background:new 0 0 400 400;" xml:space="preserve">
<path fill="#8C979A" d="M200,30.3c-93.6,0-169.7,76.1-169.7,169.7c0,31.5,8.7,61.1,23.7,86.4v4.8c0,8.7,6.6,15.9,15.1,16.7
	c31.2,37.7,78.3,61.8,130.9,61.8c52.6,0,99.7-24.1,130.9-61.8c8.5-0.8,15.1-8,15.1-16.7v-4.8c15.1-25.3,23.7-54.9,23.7-86.4
	C369.7,106.4,293.6,30.3,200,30.3z M327.3,142.4c-3.7-2.1-7.6-4-11.7-5.9c-11.7-5.3-24.8-9.8-38.9-13.2
	c-3.5-14.1-7.9-27.2-13.2-38.9c-1.9-4.1-3.8-8-5.9-11.7C288.4,86.7,313.3,111.6,327.3,142.4z M200,60.3c15.9,0,32.8,21.9,43.8,57
	c-14.1-1.8-28.8-2.7-43.8-2.7c-15,0-29.7,0.9-43.8,2.7C167.2,82.2,184.1,60.3,200,60.3z M148.8,148.8c15.7-2.7,32.9-4.2,51.2-4.2
	s35.5,1.5,51.2,4.2c2,11.6,3.3,24.1,3.9,37.2H144.9C145.4,172.9,146.8,160.4,148.8,148.8z M208.8,260c-1.3-1.3-2.9-2.4-4.8-3.3
	c-1.9-0.8-4.6-1.9-8-3c-4.9-1.7-9-3.3-12.1-4.9c-3.1-1.6-5.8-3.9-8.1-7.1c-2.2-3.1-3.4-7.2-3.4-12.2c0-4.6,1.2-8.7,3.5-12.1
	c2.4-3.4,5.6-6,9.8-7.8c4.2-1.8,8.9-2.7,14.3-2.7c8.7,0,15.6,2.1,20.7,6.2c5.1,4.1,8,9.8,8.7,17h-20.5c-0.4-2.6-1.3-4.6-2.8-6.1
	c-1.5-1.5-3.6-2.3-6.1-2.3c-2.2,0-4,0.6-5.4,1.8c-1.4,1.2-2,2.9-2,5.2c0,1.8,0.6,3.4,1.8,4.7c1.2,1.3,2.7,2.3,4.6,3.2
	c1.8,0.8,4.5,1.8,8,3.1c5,1.7,9.1,3.4,12.3,5c3.2,1.7,5.9,4.1,8.2,7.2c2.3,3.2,3.4,7.3,3.4,12.4c0,4.1-1,7.9-3.2,11.4
	c-2.1,3.5-5.2,6.2-9.3,8.3c-4.1,2.1-9,3.1-14.9,3.1c-8.8,0-16-2.1-21.7-6.4c-5.7-4.3-8.8-10.2-9.3-17.9h20.1c0.3,2.9,1.3,5.3,3.2,7
	c1.8,1.7,4.1,2.5,6.9,2.5c2.4,0,4.3-0.7,5.8-2c1.4-1.3,2.1-3.1,2.1-5.3C210.8,263,210.1,261.3,208.8,260z M142.4,72.7
	c-2.1,3.7-4,7.6-5.9,11.7c-5.3,11.7-9.8,24.8-13.2,38.9c-14.1,3.5-27.2,7.9-38.9,13.2c-4.1,1.9-8,3.8-11.7,5.9
	C86.7,111.6,111.6,86.7,142.4,72.7z M70.8,186c-2.1,0-4,0.4-5.9,1.1c8.2-11.6,26.8-22.9,52.4-30.9c-1.2,9.7-2,19.6-2.4,29.8H70.8z
	 M111.5,308h21.8c1,2.6,2.1,5.1,3.2,7.6c1.9,4.1,3.8,8,5.9,11.7C131.3,322.2,120.9,315.7,111.5,308z M113.1,263.4
	c3.4,4,7.9,6,13.4,6c4.2,0,7.8-1,10.9-3.1c3.1-2.1,5.3-4.9,6.8-8.4h20c-1.9,8.8-6.1,15.9-12.7,21.2c-6.5,5.3-14.8,7.9-24.7,7.9
	c-7.6,0-14.3-1.7-20-5c-5.8-3.4-10.2-8.1-13.3-14.1c-3.1-6-4.7-12.9-4.7-20.7s1.6-14.6,4.7-20.7c3.1-6,7.6-10.7,13.3-14.1
	c5.7-3.4,12.4-5,20-5c10,0,18.2,2.6,24.7,7.9c6.5,5.2,10.7,12.3,12.7,21.2h-20c-1.5-3.6-3.7-6.4-6.8-8.5c-3.1-2.1-6.7-3.1-10.9-3.1
	c-5.5,0-10,2-13.4,6.1c-3.4,4.1-5.1,9.5-5.1,16.3C108.1,254,109.8,259.4,113.1,263.4z M200,339.7c-11.6,0-23.8-11.7-33.8-31.7h67.5
	C223.8,328,211.6,339.7,200,339.7z M257.6,327.3c2.1-3.7,4-7.6,5.9-11.7c1.1-2.5,2.2-5,3.2-7.6h21.8
	C279.1,315.7,268.7,322.2,257.6,327.3z M287.4,286.3H263l-27.1-78.2h20.2l19.1,58.8l19.1-58.8h20.2L287.4,286.3z M329.2,186h-44.1
	c-0.4-10.1-1.2-20.1-2.4-29.8c25.6,8,44.2,19.2,52.4,30.9C333.3,186.4,331.3,186,329.2,186z"/>
</svg>
