<?xml version="1.0" encoding="UTF-8"?><svg id="Layer_1" xmlns="http://www.w3.org/2000/svg" viewBox="0 0 300 300" width="105" height="105"><defs><style>.cls-1{fill:#808080;fill-rule:evenodd;stroke-width:0px;}</style></defs><path class="cls-1" d="m186.7,211h-122c-.8,0-1.7-.4-2.1-.4-2.5-1.2-4.1-3.3-4.1-5.4v-1.7c0-.8.4-1.7.8-2.1,0,0,0-.4.4-.4l60.4-98.6c.4-.4.8-.8,1.2-1.2.8-.8,2.1-1.7,3.3-1.7h2.9c1.2.4,2.1.8,2.9,1.7.4.4.8.8,1.2,1.2l60.8,98.2s0,.4.4.4c.4.8.4,1.2.8,2.1v1.7c-.4,2.1-1.7,4.1-3.7,5.4-.8.4-1.2.4-2.1.4-.8.4-1.2.4-1.2.4h0Zm-110-13.3h98l-48.8-79.2c-16.5,26.1-32.7,52.6-49.2,79.2h0Zm127.8-85.8h.8c.4,0,1.2.4,1.7.8.4.4.8.4.8.8,1.2,1.2,1.2,3.3.4,4.6-.4.4-.8,1.2-1.2,1.7l-17.8,13.3,7,21.1v2.9c-.4,1.7-2.1,2.9-3.7,2.9h-1.2c-.8,0-1.2-.4-1.7-.8l-17.8-13.3h0l-21.1-34h9.9l6.6-21.1v-.4c0-.4.4-.4.4-.8.4-.8,1.2-1.2,2.1-1.7.4,0,.8-.4,1.2-.4h.8c.4,0,.8,0,.8.4.8.4,1.7.8,2.1,1.7.4.4.4.8.4,1.2l6.6,21.1h22.7Z"/><path class="cls-1" d="m229.8,253.4H35.3c-.4,0-.8,0-1.2-.4-2.1-.8-3.7-2.1-4.1-4.1-.4-.4-.4-.8-.4-1.2V52.4c0-.4,0-.8.4-1.2.8-2.1,2.1-3.7,4.1-4.1.4,0,.8-.4,1.2-.4h196.2c.4,0,.8.4,1.2.4,1.7.8,2.9,2.1,3.7,4.1,0,.4.4.8.4,1.2v63.6c-.4,1.2-.8,2.5-2.1,3.7-.4.4-1.2.8-1.7,1.2-.8.4-1.2.4-2.1.4-1.7,0-3.7-.4-5-1.7-.4-.4-.8-.8-1.2-1.7-.4-.8-.8-1.7-.8-2.5v-55.7H42.7v180.4h188.8c.8,0,1.7.4,2.5,1.2.4.4,1.2.8,1.7,1.7.4.4.8,1.2.8,1.7.4,1.7.4,3.7-.4,5.4-.4.4-.8,1.2-1.2,1.7-.8.8-2.1,1.2-2.9,1.7h-2.1Zm18.6-79.3l-22.7-22.7-.4-.4q-.4-.4-.4-.8c-.4-.4-.8-1.2-.8-2.1s-.4-1.2-.4-2.1c0-2.1,1.2-4.1,2.9-5.4.8-.4,1.7-.8,2.5-.8h2.5c.8,0,1.7.4,2.5.8.4.4.8.4.8.8l33.9,33.9c.4.4.8,1.2,1.2,1.7.8,1.7.8,3.7,0,5.8-.4.8-.8,1.2-1.2,2.1l-33.9,33.9q-.4.4-.8.4c-.4.4-1.2.8-1.7.8-.8.4-1.7.4-2.5.4s-1.2,0-2.1-.4c-2.1-.8-3.7-2.9-4.1-5v-2.1c0-.8.4-2.1,1.2-2.9.4-.4.4-.8.8-.8l22.7-22.7h-54.1c-.8,0-1.7-.4-2.1-.8-.8-.4-1.7-.8-2.1-1.7-.4-.4-.8-1.2-.8-1.7-.8-2.1-.4-4.5.8-6.2.4-.8.8-1.2,1.7-1.7.8-.4,1.7-.8,2.5-.8h1.2c17.4.4,35.1,0,52.9.4h0Z"/></svg>