<?xml version="1.0" encoding="UTF-8"?><svg id="Layer_1" xmlns="http://www.w3.org/2000/svg" viewBox="0 0 300 300"><defs><style>.cls-1{fill:#40403f;fill-rule:evenodd;stroke-width:0px;}</style></defs><path class="cls-1" d="m143.5,247.6v-52.6c0-.8,0-1.6.4-2.4.8-1.6,2-3.3,3.7-3.7.8-.4,1.2-.4,2-.4h.8c.8,0,1.6.4,2.5.4,1.6.8,2.9,2,3.7,4.1,0,.8.4,1.2.4,2v52.6l22.5-22.4.4-.4c.4-.4.8-.4.8-.8.4-.4,1.2-.4,2-.8h2.5c.8,0,1.2.4,2,.8.4.4,1.2.8,1.6,1.2,1.6,1.6,2,4.1,1.6,6.1-.4.8-.4,1.6-1.2,2q-.4.4-.4.8l-33.5,33.4c-.4.4-1.2.8-1.6,1.2-1.6.8-3.7.8-5.7,0-.8-.4-1.6-.8-2-1.2l-33.5-33.4q-.4-.4-.4-.8c-.4-.4-.8-1.2-.8-1.6-.4-.8-.4-1.6-.4-2.4s0-1.2.4-2c.4-.8.4-1.2,1.2-1.6,1.6-1.6,3.7-2.4,6.1-2.4s2,.4,2.9,1.2c.4.4.8.4.8.8l21.3,22.4h0Zm-58.9-12.6h-31.5c-.4,0-.8,0-1.2-.4-2-.8-3.7-2-4.1-4.1,0-.4-.4-.8-.4-1.2V36.3c0-.4,0-.8.4-1.2.4-2,2-3.7,4.1-4.1.4,0,.8-.4,1.2-.4h194.3c.4,0,.8.4,1.2.4,1.6.8,2.9,2,3.7,4.1,0,.4.4.8.4,1.2v192.9c0,.4,0,.8-.4,1.2-.8,2-2,3.7-4.1,4.1-.4,0-.8.4-1.2.4h-32.7c-1.2-.4-2.5-.8-3.7-2-.4-.4-.8-1.2-1.2-1.6-.8-1.6-.8-3.7,0-5.3.4-.8.8-1.2,1.2-1.6.4-.4.8-.8,1.6-1.2.8-.4,1.6-.8,2.5-.8h25V43.6H60.8v178.3h25.4c1.2.4,2.5.8,3.7,2,.4.4.8,1.2,1.2,1.6.8,1.6.8,3.7,0,5.3-.4.8-.8,1.2-1.2,1.6-.4.4-.8.8-1.6,1.2-.8.4-1.6.8-2.5.8-.8.4-1.2.4-1.2.4h0Z"/><path class="cls-1" d="m210.9,64.8h1.2c.8,0,1.2.4,2,.8.4.4.8.8,1.2,1.2,1.6,1.6,2,4.1,1.2,6.1-.4.8-.4,1.2-.8,2q-.4.4-.8.8l-48.8,48.7v35.7c0,.8-.4,1.2-.8,2-.4.4-.4.8-.8,1.2l-19.9,19.9q-.4.4-.8.8c-.4.4-1.2.8-2,.8-2,.8-4.5,0-6.1-1.2-.4-.4-.8-1.2-1.2-1.6-.4-.8-.4-1.2-.8-2v-55.6l-48.8-48.7-.4-.4q-.4-.4-.4-.8c-.4-.8-.8-1.2-.8-2v-1.6c0-2,1.6-4.1,3.3-5.3.8-.4,1.2-.4,2-.8h122.5c-.4,0,0,0,0,0h0Zm-25.2,19.9c.4,0,1.2,0,1.6-.4,1.2-.8,2-2,1.6-3.2,0-.4,0-.8-.4-1.2,0-.4-.4-.8-.4-.8-.4-.4-1.2-.8-1.6-.8h-81.8l39.5,39.4.4.4c.4.4.4.8.8,1.2.4.4.4,1.2.4,2v42.2l6.9-6.9v-35.3l-14.2-36.1h47.2v-.4h0Z"/></svg>