<?xml version="1.0" encoding="UTF-8"?><svg id="Layer_1" xmlns="http://www.w3.org/2000/svg" viewBox="0 0 300 300"><defs><style>.cls-1{fill:#fff;fill-rule:evenodd;stroke-width:0px;}</style></defs><path class="cls-1" d="m229.5,253H35.2c-.4,0-.8,0-1.2-.4-2.1-.8-3.7-2.1-4.1-4.1,0-.4-.4-.8-.4-1.2V52.3c0-.4,0-.8.4-1.2.8-2.1,2.1-3.7,4.1-4.1.4,0,.8-.4,1.2-.4h195.9c.4,0,.8.4,1.2.4,1.6.8,2.9,2.1,3.7,4.1,0,.4.4.8.4,1.2v63c0,.8-.4,1.6-.8,2.5-.4.4-.8,1.2-1.2,1.6-1.2,1.2-3.3,1.6-4.9,1.6s-1.2-.4-2.1-.4c-.8-.4-1.2-.8-1.6-1.2-.8-.8-1.6-2.1-2.1-3.7v-56H43.5v180.1h188.5c.8,0,1.6.4,2.5,1.2.4.4,1.2.8,1.7,1.6,1.2,1.6,1.6,3.3,1.2,5.4,0,.8-.4,1.2-.8,2.1-.4.4-.8,1.2-1.2,1.6-.8.8-2.1,1.2-2.9,1.6q-2.1-.4-2.9-.4h0Zm18.6-79.1l-22.7-22.7-.4-.4q-.4-.4-.4-.8c-.4-.8-.8-1.6-.8-2.5-.4-2.1,0-4.1,1.6-5.8.4-.4,1.2-.8,1.6-1.2.8-.4,1.2-.4,2.1-.8h1.6c.4,0,.8,0,1.2.4.8.4,1.6.4,2.1,1.2q.4.4.8.4l33.8,33.8c.4.4.8,1.2,1.2,1.6.8,1.6.8,3.7,0,5.8-.4.8-.8,1.2-1.2,2.1l-33.8,33.8q-.4.4-.8.4c-.4.4-1.2.8-1.6.8-.8.4-1.6.4-2.5.4s-1.2,0-2.1-.4c-2.1-.8-3.7-2.9-4.1-4.9v-2.1c0-.8.4-2.1,1.2-2.9.4-.4.4-.8.8-.8l22.7-22.7h-54.4c-.8,0-1.6-.4-2.5-.8-.4-.4-.8-.8-1.2-1.2-1.2-1.6-1.6-4.1-1.2-6.2.4-.8.8-1.2,1.2-2.1s1.2-1.2,2.1-1.6c.8-.4,1.6-.4,2.1-.8h.8c17.3,0,35.1-.4,52.8,0h0Z"/><path class="cls-1" d="m90.3,108.8v-5.4c0-.8,0-1.2.4-2.1.8-2.1,2.1-3.3,4.1-4.1.8-.4,1.2-.4,2.1-.4,24.4,0,48.7-.8,73.1,0,.8,0,1.2.4,2.1.4,1.7.8,3.3,2.1,3.7,4.1.4.8.4,1.2.4,2.1v5.4h22.3c.4,0,1.2.4,1.7.4,1.7.8,2.9,2.5,3.7,4.1,0,.4,0,1.2.4,1.7v3.7h-28.1v9.9h28.1v26.4c0,.4,0,1.2-.4,1.7-.8,1.7-2.1,3.3-4.1,4.1-.4,0-1.2.4-1.7.4h-21.9v5.4c0,.8,0,1.2-.4,2.1-.8,2.1-2.1,3.3-4.1,4.1-.8.4-1.2.4-2.1.4h-9.9v26c0,.8,0,1.7-.4,2.1-.8,1.7-2.1,3.3-4.1,4.1-.8.4-1.7.4-2.1.4h-5v-36.3c-.4-.4-1.2-.8-1.7-1.2-1.2-.4-2.1-.8-3.3-1.2-1.2-.4-2.5-.4-3.7-.8h-1.2v39.6h-24.8c-.8,0-1.7,0-2.1-.4-1.7-.8-3.3-2.1-4.1-4.1-.4-.8-.4-1.7-.4-2.1v-26h-9.9c-.8,0-1.2,0-2.1-.4-2.1-.8-3.3-2.1-4.1-4.1-.4-.8-.4-1.2-.4-2.1v-5.4h-21.9c-.4,0-1.2,0-1.7-.4-1.7-.8-3.3-2.1-4.1-4.1,0-.4-.4-1.2-.4-1.7v-26.4h28.1v-9.9h-28.1v-4.1c0-.4,0-1.2.4-1.7.8-1.7,2.1-3.3,4.1-4.1.4,0,1.2-.4,1.7-.4h21.9v.4h0Zm56.2,58.2h0Zm-43-57v50h6.2l.4-.4.4-.4c.4-.4.8-.8,1.7-1.2,1.2-.8,2.5-1.7,3.7-2.1,2.1-.8,3.7-1.2,5.8-1.7,3.7-.8,7.8-1.2,11.6-1.2s7.8.4,11.6,1.2c2.5.4,5,1.2,7.4,2.5,1.7.8,3.3,2.1,4.5,3.3h6.2v-50h-59.5Zm43.4,18.6h-27.7v-9.9h27.7v9.9h0Z"/></svg>