<?xml version="1.0" encoding="UTF-8"?><svg id="Layer_1" xmlns="http://www.w3.org/2000/svg" viewBox="0 0 36 36"><defs><style>.cls-1{fill:#ff1d25;}.cls-1,.cls-2{stroke-width:0px;}.cls-2{fill:#fff;}</style></defs><circle class="cls-1" cx="18" cy="18" r="18"/><path class="cls-2" d="m14.08,25.41h-1.92v-12.26c-.46.44-1.07.88-1.82,1.33-.75.44-1.43.77-2.03.99v-1.86c1.08-.51,2.02-1.12,2.82-1.84.81-.72,1.38-1.42,1.71-2.09h1.24v15.73Z"/><path class="cls-2" d="m16.81,17.69c0-1.85.19-3.34.57-4.47.38-1.13.95-2,1.7-2.61s1.7-.92,2.84-.92c.84,0,1.58.17,2.21.51.63.34,1.16.83,1.57,1.46s.74,1.41.97,2.33c.24.92.35,2.15.35,3.7,0,1.84-.19,3.32-.57,4.45-.38,1.13-.94,2-1.69,2.62-.75.62-1.7.92-2.85.92-1.51,0-2.7-.54-3.56-1.62-1.03-1.3-1.55-3.43-1.55-6.37Zm1.98,0c0,2.57.3,4.28.9,5.14.6.85,1.34,1.28,2.23,1.28s1.63-.43,2.23-1.28c.6-.86.9-2.57.9-5.13s-.3-4.29-.9-5.14c-.6-.85-1.35-1.27-2.25-1.27s-1.59.37-2.12,1.12c-.66.96-.99,2.72-.99,5.29Z"/></svg>