<?xml version="1.0" encoding="UTF-8"?><svg id="Layer_1" xmlns="http://www.w3.org/2000/svg" viewBox="0 0 36 36"><defs><style>.cls-1{fill:#ff1d25;}.cls-1,.cls-2{stroke-width:0px;}.cls-2{fill:#fff;}</style></defs><circle class="cls-1" cx="18" cy="18" r="18"/><path class="cls-2" d="m16.32,25.41h-1.92v-12.26c-.46.44-1.07.88-1.82,1.33-.75.44-1.43.77-2.03.99v-1.86c1.08-.51,2.02-1.12,2.82-1.84.81-.72,1.38-1.42,1.71-2.09h1.24v15.73Z"/><path class="cls-2" d="m23.81,25.41h-1.92v-12.26c-.46.44-1.07.88-1.82,1.33-.75.44-1.43.77-2.03.99v-1.86c1.08-.51,2.02-1.12,2.82-1.84.8-.72,1.38-1.42,1.71-2.09h1.24v15.73Z"/></svg>