<?xml version="1.0" encoding="UTF-8"?><svg id="Layer_1" xmlns="http://www.w3.org/2000/svg" viewBox="0 0 36 36"><defs><style>.cls-1{fill:#ff1d25;}.cls-1,.cls-2{stroke-width:0px;}.cls-2{fill:#fff;}</style></defs><circle class="cls-1" cx="18" cy="18" r="18"/><path class="cls-2" d="m14.53,25.41h-1.92v-12.26c-.46.44-1.07.88-1.82,1.33-.75.44-1.43.77-2.03.99v-1.86c1.08-.51,2.02-1.12,2.82-1.84.81-.72,1.38-1.42,1.71-2.09h1.24v15.73Z"/><path class="cls-2" d="m27.38,23.57v1.85h-10.36c-.01-.46.06-.91.22-1.34.26-.71.69-1.4,1.27-2.08.58-.68,1.42-1.47,2.52-2.37,1.7-1.4,2.85-2.5,3.45-3.32.6-.82.9-1.59.9-2.31s-.27-1.41-.82-1.93c-.55-.52-1.26-.79-2.13-.79-.93,0-1.67.28-2.22.83s-.84,1.33-.84,2.31l-1.98-.2c.13-1.48.64-2.6,1.53-3.37.88-.77,2.07-1.16,3.56-1.16s2.69.42,3.57,1.25c.88.83,1.31,1.87,1.31,3.1,0,.63-.13,1.24-.38,1.85-.26.61-.68,1.24-1.28,1.91-.59.67-1.58,1.59-2.96,2.76-1.15.97-1.9,1.63-2.22,1.97-.33.35-.6.69-.81,1.04h7.68Z"/></svg>