<?xml version="1.0" encoding="UTF-8"?><svg id="Layer_1" xmlns="http://www.w3.org/2000/svg" viewBox="0 0 36 36"><defs><style>.cls-1{fill:#ff1d25;}.cls-1,.cls-2{stroke-width:0px;}.cls-2{fill:#fff;}</style></defs><circle class="cls-1" cx="18" cy="18" r="18"/><path class="cls-2" d="m12.82,21.31l2.02-.17c.15.98.5,1.72,1.04,2.22.54.5,1.2.74,1.97.74.93,0,1.71-.35,2.35-1.05.64-.7.96-1.62.96-2.78s-.31-1.96-.92-2.6c-.62-.63-1.42-.95-2.42-.95-.62,0-1.18.14-1.68.42-.5.28-.89.65-1.18,1.1l-1.81-.23,1.52-8.05h7.79v1.84h-6.25l-.84,4.21c.94-.66,1.93-.98,2.96-.98,1.37,0,2.52.47,3.46,1.42.94.95,1.41,2.17,1.41,3.66s-.41,2.64-1.24,3.68c-1,1.27-2.38,1.9-4.11,1.9-1.42,0-2.59-.4-3.49-1.2s-1.42-1.86-1.54-3.17Z"/></svg>