<?xml version="1.0" encoding="UTF-8"?><svg id="Layer_1" xmlns="http://www.w3.org/2000/svg" viewBox="0 0 36 36"><defs><style>.cls-1{fill:#ff1d25;}.cls-1,.cls-2{stroke-width:0px;}.cls-2{fill:#fff;}</style></defs><circle class="cls-1" cx="18" cy="18" r="18"/><path class="cls-2" d="m22.8,13.58l-1.91.15c-.17-.76-.41-1.3-.73-1.65-.52-.55-1.16-.82-1.92-.82-.61,0-1.15.17-1.61.51-.61.44-1.08,1.09-1.43,1.93-.35.85-.53,2.06-.54,3.62.46-.71,1.03-1.23,1.7-1.57.67-.34,1.37-.51,2.11-.51,1.28,0,2.38.47,3.28,1.42.9.94,1.35,2.16,1.35,3.66,0,.98-.21,1.9-.64,2.74-.42.84-1.01,1.49-1.75,1.94-.74.45-1.58.67-2.52.67-1.6,0-2.91-.59-3.92-1.77-1.01-1.18-1.52-3.12-1.52-5.83,0-3.03.56-5.23,1.68-6.6.98-1.2,2.29-1.8,3.94-1.8,1.23,0,2.24.35,3.03,1.04s1.26,1.65,1.42,2.86Zm-7.85,6.75c0,.66.14,1.3.42,1.9s.67,1.07,1.18,1.38,1.04.48,1.59.48c.81,0,1.51-.33,2.09-.98s.88-1.55.88-2.67-.29-1.94-.87-2.56c-.58-.62-1.3-.94-2.18-.94s-1.61.31-2.21.94c-.61.62-.91,1.44-.91,2.45Z"/></svg>