<?xml version="1.0" encoding="UTF-8"?><svg id="Layer_1" xmlns="http://www.w3.org/2000/svg" viewBox="0 0 36 36"><defs><style>.cls-1{fill:#ff1d25;}.cls-1,.cls-2{stroke-width:0px;}.cls-2{fill:#fff;}</style></defs><circle class="cls-1" cx="18" cy="18" r="18"/><path class="cls-2" d="m15.78,16.92c-.8-.29-1.39-.71-1.77-1.25s-.58-1.19-.58-1.95c0-1.14.41-2.1,1.23-2.88.82-.78,1.91-1.16,3.27-1.16s2.47.4,3.3,1.19c.83.79,1.25,1.76,1.25,2.9,0,.73-.19,1.36-.57,1.9-.38.54-.96.95-1.74,1.24.96.31,1.69.82,2.2,1.52.5.7.75,1.53.75,2.5,0,1.34-.47,2.46-1.42,3.38s-2.19,1.37-3.74,1.37-2.79-.46-3.74-1.37c-.95-.92-1.42-2.06-1.42-3.42,0-1.02.26-1.87.78-2.56.52-.69,1.25-1.16,2.21-1.41Zm-1,3.98c0,.55.13,1.08.39,1.59.26.51.65.91,1.16,1.19.51.28,1.06.42,1.66.42.92,0,1.68-.3,2.28-.89.6-.59.9-1.34.9-2.26s-.31-1.69-.92-2.3c-.62-.61-1.39-.91-2.31-.91s-1.65.3-2.25.9c-.59.6-.89,1.35-.89,2.24Zm.62-7.24c0,.74.24,1.35.72,1.82.48.47,1.1.71,1.86.71s1.35-.23,1.82-.7c.47-.47.71-1.04.71-1.72s-.24-1.3-.73-1.78-1.1-.72-1.82-.72-1.34.23-1.83.71c-.49.47-.73,1.03-.73,1.69Z"/></svg>