<?xml version="1.0" encoding="UTF-8"?><svg id="Layer_1" xmlns="http://www.w3.org/2000/svg" viewBox="0 0 36 36"><defs><style>.cls-1{fill:#ff1d25;}.cls-1,.cls-2{stroke-width:0px;}.cls-2{fill:#fff;}</style></defs><circle class="cls-1" cx="18" cy="18" r="18"/><path class="cls-2" d="m13.11,21.79l1.85-.17c.16.87.46,1.5.9,1.89s1.01.59,1.7.59c.59,0,1.11-.14,1.55-.41s.81-.63,1.1-1.08c.29-.45.52-1.06.72-1.83s.29-1.55.29-2.35c0-.09,0-.21-.01-.38-.38.61-.91,1.11-1.58,1.49-.67.38-1.39.57-2.16.57-1.3,0-2.39-.47-3.29-1.41-.9-.94-1.35-2.18-1.35-3.72s.47-2.87,1.41-3.84c.94-.97,2.11-1.45,3.52-1.45,1.02,0,1.95.27,2.79.82.84.55,1.49,1.33,1.92,2.35.44,1.02.66,2.48.66,4.41s-.22,3.6-.65,4.78-1.08,2.09-1.94,2.71c-.86.62-1.87.93-3.02.93-1.23,0-2.23-.34-3-1.02-.78-.68-1.24-1.64-1.4-2.87Zm7.88-6.91c0-1.1-.29-1.98-.88-2.63s-1.29-.97-2.12-.97-1.6.35-2.23,1.05c-.63.7-.95,1.6-.95,2.71,0,1,.3,1.81.9,2.43.6.62,1.34.94,2.23.94s1.62-.31,2.2-.94.86-1.49.86-2.59Z"/></svg>