<?xml version="1.0" encoding="utf-8"?>
<!-- Generator: Adobe Illustrator 27.8.0, SVG Export Plug-In . SVG Version: 6.00 Build 0)  -->
<svg version="1.1"
	 id="Layer_1" text-rendering="geometricPrecision" shape-rendering="geometricPrecision" image-rendering="optimizeQuality"
	 xmlns="http://www.w3.org/2000/svg" xmlns:xlink="http://www.w3.org/1999/xlink" x="0px" y="0px" width="1024px" height="1024px"
	 viewBox="0 0 1024 1024" style="enable-background:new 0 0 1024 1024;" xml:space="preserve">
<path id="curve1" d="M828.9,414.1c-57.2,0-178.1-8.2-226.2,18.2c-19.7,10.8-39,15.7-61.5,15.7h-58.4
	c-22.5,0-41.8-4.9-61.5-15.7c-48.1-26.4-169-18.2-226.2-18.2c-38.6,0-73.7,15.6-99,44.2c-5.6,6.2-10.4,12.9-14.6,19.8L32,480v64
	c0,10.9,5.5,20.6,13.9,26.4c15.2,10.4,24.4,23.3,27,41.5l6.5,44.3c9.3,63.3,64.3,108.8,129.8,109.9l113.2,1.9
	c44.5,0.7,84.3-20.8,109-57l35.1-51.4c26.4-38.6,64.4-39,91,0l35.1,51.4c24.7,36.2,64.5,57.7,109,57l113.2-1.9
	c65.5-1.1,120.5-46.6,129.8-109.9l6.2-42.2c2.6-18.3,11.9-33.1,27.2-43.6c8.4-5.7,14-15.4,14-26.4v-64h-48.4
	c-4.4-7.6-9.6-14.9-15.7-21.7C902.6,429.7,867.5,414.1,828.9,414.1z M195.1,478.1l162.3,1.9c36.1,0.4,65.6,28.8,65.6,64v44.6
	c0,13.2-3.5,24.6-11,35.5l-35.1,51.4c-12.5,18.3-32,28.9-54.5,28.5l-113.2-1.9c-32.9-0.5-60.3-23.2-64.9-54.9l-14-96
	c-2.8-19.1,2.4-36.5,15.3-51C158.5,485.7,175.5,477.9,195.1,478.1z M828.9,478.1c19.6-0.2,36.6,7.6,49.5,22.1
	c12.9,14.5,18.1,31.9,15.3,51l-14,96c-4.6,31.7-32,54.4-64.9,54.9L701.6,704c-22.6,0.4-42-10.2-54.5-28.5L612,624.1
	c-7.5-10.9-11-22.3-11-35.5V544c0-35.2,29.5-63.6,65.6-64L828.9,478.1z"/>
<path id="curve0" d="M212.5,224c13,0,24.1,2.8,35.7,9L373,299.8c9.8,5.2,13.8,18.1,8.9,28.6l-6.2,13.3
	c-5.9,12.7-16.2,20.8-29.3,23.1c-13,2.2-25.2-2-34.6-12l-52.3-56c-15.5-16.6-40.8-16.6-56.3,0c-13.9,14.8-26.8,50.5-36.3,87.7
	c-36.5,6.1-69.5,24.1-94.7,52.5c-2.8,3.2-5.5,6.4-8,9.8l-27.8,1C56.1,363.8,139.2,224,212.5,224z M811.5,224c-13,0-24.1,2.8-35.7,9
	L651,299.8c-9.8,5.2-13.8,18.1-8.9,28.6l6.2,13.3c5.9,12.7,16.2,20.8,29.3,23.1c13,2.2,25.2-2,34.6-12l52.3-56
	c15.5-16.6,40.8-16.6,56.3,0c13.9,14.8,26.8,50.5,36.3,87.7c36.5,6.1,69.5,24.1,94.7,52.5c3.2,3.5,6.1,7.2,9,11h26.9
	C968,364,884.9,224,811.5,224z"/>
<path d="M0,0v1024h1024V0H0z M995.7,995.7H28.3V28.3h967.3V995.7z"/>
</svg>
