<?xml version="1.0" encoding="utf-8"?>
<!-- Generator: Adobe Illustrator 27.8.0, SVG Export Plug-In . SVG Version: 6.00 Build 0)  -->
<svg version="1.1"
	 id="Layer_1" text-rendering="geometricPrecision" shape-rendering="geometricPrecision" image-rendering="optimizeQuality"
	 xmlns="http://www.w3.org/2000/svg" xmlns:xlink="http://www.w3.org/1999/xlink" x="0px" y="0px" width="1024px" height="1024px"
	 viewBox="0 0 1024 1024" style="enable-background:new 0 0 1024 1024;" xml:space="preserve">

<path id="curve1" d="M598.6,681.4l82.8-82.8c12.4-12.4,32.8-12.4,45.2,0l242.8,242.8c12.4,12.4,12.4,32.8,0,45.2
	l-82.8,82.8c-12.4,12.4-32.8,12.4-45.2,0L598.6,726.6C586.2,714.2,586.2,693.8,598.6,681.4z"/>
<path id="curve0" d="M608.2,544.2l41.2,41.2l-64,64l-41.2-41.2C490.8,648.3,424.5,672,352.6,672
	C176.2,672,33.2,529,33.2,352.6s143-319.4,319.4-319.4S672,176.2,672,352.6C672,424.5,648.3,490.8,608.2,544.2z M352.6,97.1
	c-141.1,0-255.5,114.4-255.5,255.5s114.4,255.5,255.5,255.5s255.5-114.4,255.5-255.5S493.7,97.1,352.6,97.1z"/>
<path d="M0,0v1024h1024V0H0z M995.7,995.7H28.3V28.3h967.3V995.7z"/>
</svg>
