<?xml version="1.0" encoding="utf-8"?>
<!-- Generator: Adobe Illustrator 27.8.0, SVG Export Plug-In . SVG Version: 6.00 Build 0)  -->
<svg version="1.1"
	 id="Layer_1" text-rendering="geometricPrecision" shape-rendering="geometricPrecision" image-rendering="optimizeQuality"
	 xmlns="http://www.w3.org/2000/svg" xmlns:xlink="http://www.w3.org/1999/xlink" x="0px" y="0px" width="1024px" height="1024px"
	 viewBox="0 0 1024 1024" style="enable-background:new 0 0 1024 1024;" xml:space="preserve">

<path id="curve1" d="M512,832c-88.4,0-168.4-35.8-226.3-93.7C227.8,680.4,192,600.4,192,512s35.8-168.4,93.7-226.3l1-1
	c3.1,6.3,7.1,12.1,12.3,17.2l75.8,75.8c-33.9,34.6-54.8,82-54.8,134.3c0,53,21.5,101,56.2,135.8C411,682.5,459,704,512,704
	l-68.7-68.7c-4.6-4.7-6-11.3-3.4-17.4c2.5-6.1,8.2-10,14.7-9.9l83.9,0.7c17.6,0.1,32.8,6.3,45.3,18.7l118.6,118.7
	c12.4,12.4,12.4,32.8,0,45.2L583.8,909.9c-12.5,12.5-27.7,18.9-45.3,18.8l-83.9-0.7c-6.6-0.1-12.2-3.8-14.7-9.9
	c-2.6-6.1-1.2-12.7,3.4-17.4L512,832L512,832z"/>
<path id="curve0" d="M440.2,397.9L321.6,279.3c-12.4-12.4-12.4-32.8,0-45.2l118.6-118.7c12.5-12.4,27.7-18.6,45.3-18.7
	l83.9-0.7c6.5-0.1,12.2,3.8,14.7,9.9c2.6,6.1,1.2,12.7-3.4,17.4L512,192c88.4,0,168.4,35.8,226.3,93.7
	C796.2,343.6,832,423.6,832,512s-35.8,168.4-93.7,226.3c-0.5,0.5-1,0.9-1.5,1.4c-3-5.9-6.9-11.4-11.8-16.3L648.5,647
	c34.3-34.7,55.5-82.4,55.5-135c0-53-21.5-101-56.2-135.8C613,341.5,565,320,512,320l68.7,68.7c4.6,4.7,6,11.3,3.4,17.4
	c-2.5,6.1-8.1,9.8-14.7,9.9l-83.9,0.7C467.9,416.8,452.7,410.4,440.2,397.9z"/>
</svg>
