<?xml version="1.0" encoding="utf-8"?>
<!-- Generator: Adobe Illustrator 27.8.0, SVG Export Plug-In . SVG Version: 6.00 Build 0)  -->
<svg version="1.1"
	 id="Layer_1" text-rendering="geometricPrecision" shape-rendering="geometricPrecision" image-rendering="optimizeQuality"
	 xmlns="http://www.w3.org/2000/svg" xmlns:xlink="http://www.w3.org/1999/xlink" x="0px" y="0px" width="1024px" height="1024px"
	 viewBox="0 0 1024 1024" style="enable-background:new 0 0 1024 1024;" xml:space="preserve" >

<path id="curve0" d="M768,704c35.3,0,64,28.8,64,64v128c0,35.2-28.8,64-64,64H256c-35.2,0-64-28.7-64-64V768
	c0-35.3,28.8-64,64-64v-32c-35.2,0-64-28.7-64-64V480c0-35.3,28.8-64,64-64v-32c-35.2,0-64-28.8-64-64V192c0-35.3,28.8-64,64-64h512
	c35.3,0,64,28.8,64,64v128c0,35.2-28.8,64-64,64v32c35.3,0,64,28.8,64,64v128c0,35.2-28.8,64-64,64V704z M268.8,768
	c-7,0-12.8,7.2-12.8,16v96c0,8.8,5.8,16,12.8,16H512V768H268.8z M268.8,192c-7,0-12.8,7.2-12.8,16v96c0,8.8,5.8,16,12.8,16H512V192
	H268.8z M268.8,480c-7,0-12.8,7.2-12.8,16v96c0,8.8,5.8,16,12.8,16H512V480H268.8z"/>
<path d="M0,0v1024h1024V0H0z M995.7,995.7H28.3V28.3h967.3V995.7z"/>
</svg>
