<?xml version="1.0" encoding="utf-8"?>
<!-- Generator: Adobe Illustrator 27.8.0, SVG Export Plug-In . SVG Version: 6.00 Build 0)  -->
<svg version="1.1"
	 id="Layer_1" text-rendering="geometricPrecision" shape-rendering="geometricPrecision" image-rendering="optimizeQuality"
	 xmlns="http://www.w3.org/2000/svg" xmlns:xlink="http://www.w3.org/1999/xlink" x="0px" y="0px" width="1024px" height="1024px"
	 viewBox="0 0 1024 1024" style="enable-background:new 0 0 1024 1024;" xml:space="preserve">
<path id="curve1" d="M64,704L289.9,64h136.3l183.5,462.2l-90.1,118.4L492.3,576H244.7l-45.2,128H64z M441.5,448
	l-80.3-202.2L289.8,448H441.5z"/>
<path id="curve0" d="M594.8,704H768V476.7L594.8,704z M736,896L736,896c17.6,0,32-14.4,32-32v-96H546l-63.3,83.1
	c-6,7.9-8,17.1-5.7,26.8c2.3,9.6,8.2,17,17,21.4c10.7,5.2,18,16.1,18,28.7v32H288v-32c0-17.6,14.4-32,32-32h32.4
	c10.3,0,19.2-4.4,25.4-12.6l419.7-550.8c6.3-8.2,15.1-12.6,25.5-12.6h41c17.6,0,32,14.4,32,32v512c0,17.6,14.4,32,32,32l0,0
	c17.6,0,32,14.4,32,32v32H704v-32C704,910.4,718.4,896,736,896z"/>
</svg>
