<?xml version="1.0" encoding="utf-8"?>
<!-- Generator: Adobe Illustrator 27.8.0, SVG Export Plug-In . SVG Version: 6.00 Build 0)  -->
<svg version="1.1" id="Layer_1" xmlns="http://www.w3.org/2000/svg" xmlns:xlink="http://www.w3.org/1999/xlink" x="0px" y="0px"
	 viewBox="0 0 400 400" style="enable-background:new 0 0 400 400;" xml:space="preserve">
<style type="text/css">
	.st0{fill:#EC1B33;}
	.st1{fill:#FFFFFF;}
	.st2{fill:#231F20;}
</style>
<g id="ThumbUp">
	<path class="st0" d="M348.9,225.1l-0.6,0.1c-12.6,2.2-19.7-2.1-22.5-5.8c-2.3-3.1-2.1-7.1,0-9.9c0.8,1.4,1.8,2.8,3.1,4.1
		c3.8,3.8,16.1,7.5,29.2,3C357.6,220.4,355,223.6,348.9,225.1L348.9,225.1z M361.6,212c-13.8,7-27.3,2.7-30.4-0.4
		c-7.2-7.2-4.8-15.7,4.1-16.7c0.3,1.3,0.6,2.5,1,3.6c3,8.2,14.8,7.6,21.4,5.7c3.8-1.1,8.4-2.9,10.7-3.8
		C368,204.8,366.2,209.1,361.6,212L361.6,212z M69.2,274.2L63,273l19.3-46.7l38.3-39.9c-2.4-26.2-5.3-69.6-8-140.3l4.1-0.5
		c23.1-3.6,32.9-14.1,57.8-17c2.8-0.3,5.5-0.6,8.1-0.8c-4.8-0.8-11.3-1.5-20.1-1.6c43.7-12.2,56,2.9,59.3,9.8
		c2.1,3.1,2.9,7,2.4,11.8c-0.1,0.6-0.2,1.1-0.4,1.9c-5.2,11.9-7.8,17.8-7.8,17.8s5.6,46,5.6,63.8s-16.3,14.8-16.3,14.8
		s-2.4,27.8-2.6,53.3l45.6,17.9l29.7-26.3l4.4,7.4c0,0-1.1,0.4,13-8.5c-2.6-17.4-0.4-25.9,2.8-35.5c-0.1-0.4-0.2-0.9-0.3-1.3
		c-0.3-4.9-4.6-27.2-5.8-34.1c-1.2-7,17.1-17.9,33.2,1.2c10.5,12.5,0.9,30.5-5.6,38.9l-1.5,2.2l0.8,0.2c15.3,4.5,6.9,19.7,2.8,19.9
		l0.1,3c5.5-0.2,17.6-18.4,0-25c4.1,0.4,8.4,0.7,12.9,0.6c16.2-0.2,29.9,3.6,34.2,5c3.3,0.5,8.4,2.1,12,6.4c5.9,7,2.2,15.2-3,19.6
		c-2,1.7-5.5,3.9-9.6,6.1c-1.3,0.5-7,2.8-11.5,4.1c-5,1.4-15.5,2.5-17.8-3.9c-1.3-3.5-1.9-8.8-0.6-12.5l0.1-0.6
		c2.5-8.7,19.5-9.1,25.2-8.8c2,0.1,2.4-2.2,0.5-2.9c-7.5-2.6-9.5-2.3-9.5-2.3c-1.4,0.1-1.7,1.7-1,2.5c-6.4,0.7-16,3.5-18.1,10.7
		l-0.1,0.5c-0.8,2.4-1,5.1-0.8,7.8c-8.9,1.1-12.3,7.8-10.2,14.6c-3.8,3.8-4.6,10-1.1,14.7c2.7,3.6,8.1,7.1,16.4,7.5
		c-6.8,3-19.3-0.3-23.4-5.5c-3-3.8-3-8.8-1-12.4c-3.2-1.5-5.3-2.7-5.3-2.7l-18.9,13l4.8,14.8L246.4,253l-45.3-8.5l-1.1,56.7
		l-0.2,5.7l-0.3,5.9l-0.9,20l-4.8,15.9c0,0,38.2,5.2,47.4,27.1c-17.1-0.7-31.8-0.9-43.7-1c-7.6-10-20.6-15.9-29.8-19.4l4.9-24.7
		l-3.7-12.9c-4.8,0.5-9.9,1-14.9,1.3l0.9,19.1l-4.8,15.9c0,0,6.2,0.8,14.2,3.3c9.3,3.4,23.1,9.2,30.8,19.3c0.9,1.4,1.7,2.9,2.4,4.4
		c-47.8-1.9-77.5-0.7-77.5-0.7l8.9-44.5l-2.7-15.9l-0.2-1l-0.4-3.6c-1.4-13.2-4.9-51.4-7.3-78.9l-19,13L94.9,279l-6.4-1.2l-2.1,7.2
		c0,0,10.3,2,12.4,17.4c11.6,9.8,19.3,19,17.2,28.1c-5.4,4.5-11.4,6.5-18.5-7.6c-2.4-4.6-9.3-1.4-9.3-1.4l-1.5,5.3
		c-1.2,4.2,1.1,28.2,0.6,32.9c-0.5,4.7-10.2,11.7-13,6.9c-2.8-4.8-1.6-27.4-1.6-27.4l-3.5-1.4c0,0-1.9,29.4-4.4,33.7
		c-2.5,4.4-12.1,4.8-14.5-1.4c-2.4-6.2,7.1-32.9,7.1-32.9l-3.9-3.9c0,0-6.8,27.6-13,32.6c-6.2,5.1-11.9-1.2-10.5-8
		c1.4-6.8,12.3-29.2,12.3-29.2s-11,14.5-14.9,18.4c-3.8,4-10.1,5.1-9.9-0.9c0.2-6,19-27.8,19-27.8s3.3-10.7,9.8-21.7
		c6.5-11,20.9-15.7,20.9-15.7L69.2,274.2L69.2,274.2z"/>
	<g>
		<g>
			<path class="st1" d="M172.7,170c0,0-10.3,13.5-19,12.8c-28.8-2.3-25.1-44-25.6-61.6C131.8,161.8,172.7,170,172.7,170L172.7,170z"
				/>
			<path class="st2" d="M153.6,183.7c-26.2-2.1-26.3-35.4-26.3-55.3c0-2.6,0-5.1-0.1-7.1l1.7-0.1c1.5,16.6,9.4,29.7,23.3,38.9
				c10.4,7,20.6,9,20.7,9.1l1.3,0.3l-0.8,1.1c-0.4,0.6-10.1,13.2-19,13.2C154.1,183.7,153.9,183.7,153.6,183.7z M151.3,161.5
				c-8.3-5.5-18.2-15-22.4-30.4c0.1,19.5,1.2,49,24.8,50.9c6.9,0.6,15-8.4,17.5-11.5C168.1,169.7,159.9,167.3,151.3,161.5z"/>
		</g>
		<path class="st2" d="M187.3,172.5c12.9,0,27-4,40.6-14.4c0.4-0.3,0.4-0.8,0.2-1.2c-0.3-0.4-0.8-0.4-1.2-0.2
			c-28.5,21.8-58.8,14.9-76.1,2.3c-18.5-13.4-26.1-34.6-19.3-54c0.2-0.4-0.1-0.9-0.5-1.1c-0.4-0.2-0.9,0.1-1.1,0.5
			c-7,20.1,0.8,42.1,19.9,55.9C159.3,167.3,172.6,172.5,187.3,172.5z"/>
	</g>
	<g>
		<path class="st1" d="M169.8,98.3c0-10.5-3.7-19.1-8.2-19.1c-4.5,0-8.2,8.5-8.2,19.1c0,10.5,3.7,19.1,8.2,19.1
			C166.1,117.4,169.8,108.9,169.8,98.3L169.8,98.3z"/>
		<path class="st2" d="M163.9,101.9c0-3.1-1.4-5.5-3-5.5c-1.7,0-3,2.5-3,5.5c0,3.1,1.3,5.5,3,5.5
			C162.5,107.4,163.9,104.9,163.9,101.9L163.9,101.9z"/>
		<path class="st2" d="M180.1,112.4c0.3-0.1,0.5-0.2,0.7-0.5l-0.2,0.2C180.4,112.3,180.3,112.4,180.1,112.4L180.1,112.4z
			 M178.2,110.5c-0.1,0.3-0.1,0.6,0,0.8c0-0.2,0-0.4,0-0.6L178.2,110.5L178.2,110.5z M204,105.5c1.3,1.4-0.8,3.5-2.2,2
			c-3.8-4.1-11.5-3.6-21.1,4.5c-0.2,0.2-0.4,0.4-0.7,0.5c-0.4,0.2-0.9,0.1-1.2-0.1c-0.4-0.2-0.6-0.6-0.7-1c-0.1-0.3-0.1-0.6,0-0.8
			c1.2-6.7,4.8-10.3,11.7-13.2c1.8-0.8,3,2,1.2,2.7c-4.5,1.9-7.1,3.9-8.6,6.9C190.9,101.1,199.1,100.2,204,105.5L204,105.5z"/>
	</g>
	<g>
		<path class="st1" d="M189.7,223.8c1.5,0,2.8,1.5,2.9,3.3c0,0,0,0.1,0,0.1c0,2.4,0,4.9,0,7.3c0,1.4-0.8,2.8-1.9,3.2
			c-0.3,0.1-0.6,0.2-0.9,0.2c-2.9,0-6.7,0-9.6,0c-1.2,0-2.3-1-2.7-2.3c-0.1-0.3-0.1-0.7-0.1-1.1c0-2.4,0-4.9,0-7.3
			c0-1.4,0.8-2.7,1.9-3.2c0.3-0.1,0.6-0.2,0.9-0.2C183,223.8,186.8,223.8,189.7,223.8 M180.6,225.9c-0.6,0-1.2,0.6-1.2,1.4
			c0,2.4,0,4.8,0,7.2c0,0.7,0.5,1.3,1.1,1.4c0,0,8.6,0,8.6,0c0.6,0,1.1-0.6,1.1-1.4c0-2.4,0-4.8,0-7.2c0-0.7-0.5-1.3-1.1-1.4
			C189.2,225.9,180.6,225.9,180.6,225.9"/>
		<path class="st1" d="M162.6,227.3c1,0,1.8,0.9,1.8,2.1h9.5v2.1h-9.5v4.3h10v2.1h-12.2v-10.6H162.6z M162.1,223.8h12.2v2.1h-9.8
			h-0.7C162.9,225.9,162.1,225,162.1,223.8"/>
		<path class="st1" d="M158.9,223.8v14.1h-2.2v-6.4h-9.2v6.4h-2.2v-14.1h2.2v5.6h9.2v-3.6c0-1.1,0.8-2,1.8-2H158.9z"/>
		<path class="st1" d="M129.1,225.9L129.1,225.9c0-0.1,0-0.1,0-0.2c0.1-1.1,0.8-1.9,1.8-1.9h5c1,0,1.8,0.9,1.8,2.1v12h-2.2v-12h-3.8
			H129.1z M142.9,225.9H139v-2.1h3.9V225.9z"/>
	</g>
</g>
</svg>
