<?xml version="1.0" encoding="utf-8"?>
<!-- Generator: Adobe Illustrator 27.8.0, SVG Export Plug-In . SVG Version: 6.00 Build 0)  -->
<svg version="1.1"
	 id="Layer_1" text-rendering="geometricPrecision" shape-rendering="geometricPrecision" image-rendering="optimizeQuality"
	 xmlns="http://www.w3.org/2000/svg" xmlns:xlink="http://www.w3.org/1999/xlink" x="0px" y="0px" width="1024px" height="1024px"
	 viewBox="0 0 1024 1024" style="enable-background:new 0 0 1024 1024;" xml:space="preserve">
<path id="curve0" d="M790.6,150.6l82.8,82.8c12.4,12.4,12.4,32.8,0,45.2L640,512l233.4,233.4
	c12.4,12.4,12.4,32.8,0,45.2l-82.8,82.8c-12.4,12.4-32.8,12.4-45.2,0L512,640L278.6,873.4c-12.4,12.4-32.8,12.4-45.2,0l-82.8-82.8
	c-12.4-12.4-12.4-32.8,0-45.2L384,512L150.6,278.6c-12.4-12.4-12.4-32.8,0-45.2l82.8-82.8c12.4-12.4,32.8-12.4,45.2,0L512,384
	l233.4-233.4C757.8,138.2,778.2,138.2,790.6,150.6z"/>
</svg>
